M48
; DRILL file {KiCad 8.0.4+1} date 2024-09-11T08:07:54+0800
; FORMAT={-:-/ absolute / inch / decimal}
; #@! TF.CreationDate,2024-09-11T08:07:54+08:00
; #@! TF.GenerationSoftware,Kicad,Pcbnew,8.0.4+1
; #@! TF.FileFunction,Plated,1,2,PTH
FMAT,2
INCH
; #@! TA.AperFunction,Plated,PTH,ViaDrill
T1C0.1181
; #@! TA.AperFunction,Plated,PTH,ComponentDrill
T2C0.1260
; #@! TA.AperFunction,Plated,PTH,ViaDrill
T3C0.2362
; #@! TA.AperFunction,Plated,PTH,ViaDrill
T4C0.3543
%
G90
G05
T1
X2.3622Y-2.6772
X2.3622Y-2.874
X3.1496Y-2.6772
X3.1496Y-2.874
X3.937Y-2.6772
X3.937Y-2.874
X4.7244Y-2.6772
X4.7244Y-2.874
T3
X2.3622Y-1.7126
X2.3622Y-3.8386
X3.1496Y-1.7126
X3.1496Y-3.8386
X3.937Y-1.7126
X3.937Y-3.8386
X4.7244Y-1.7126
X4.7244Y-3.8386
T4
X4.0945Y-4.7244
T2
G00X2.2087Y-1.2992
M15
G01X2.3189Y-1.2992
M16
G05
G00X2.2087Y-6.122
M15
G01X2.3189Y-6.122
M16
G05
G00X4.7677Y-1.2992
M15
G01X4.878Y-1.2992
M16
G05
G00X4.7677Y-6.122
M15
G01X4.878Y-6.122
M16
G05
M30
