%TF.GenerationSoftware,KiCad,Pcbnew,8.0.4+1*%
%TF.CreationDate,2024-09-11T08:07:54+08:00*%
%TF.ProjectId,MiniSeq - Panel,4d696e69-5365-4712-902d-2050616e656c,v0.1*%
%TF.SameCoordinates,Original*%
%TF.FileFunction,Drillmap*%
%TF.FilePolarity,Positive*%
%FSLAX45Y45*%
G04 Gerber Fmt 4.5, Leading zero omitted, Abs format (unit mm)*
G04 Created by KiCad (PCBNEW 8.0.4+1) date 2024-09-11 08:07:54*
%MOMM*%
%LPD*%
G01*
G04 APERTURE LIST*
%ADD10C,0.100000*%
%ADD11C,0.200000*%
%ADD12C,0.620000*%
%ADD13C,0.720000*%
G04 APERTURE END LIST*
D10*
X5000000Y-3000000D02*
X13000000Y-3000000D01*
X13000000Y-15850000D01*
X5000000Y-15850000D01*
X5000000Y-3000000D01*
X5150000Y-11450000D02*
X9100000Y-11450000D01*
X9100000Y-13350000D01*
X5150000Y-13350000D01*
X5150000Y-11450000D01*
D11*
D12*
X5840000Y-13962000D02*
X6460000Y-14582000D01*
X6460000Y-13962000D02*
X5840000Y-14582000D01*
X7690000Y-13962000D02*
X8310000Y-14582000D01*
X8310000Y-13962000D02*
X7690000Y-14582000D01*
X11990000Y-12137000D02*
X12610000Y-12757000D01*
X12610000Y-12137000D02*
X11990000Y-12757000D01*
X11990000Y-13940000D02*
X12610000Y-14560000D01*
X12610000Y-13940000D02*
X11990000Y-14560000D01*
D13*
X6360000Y-5594250D02*
G75*
G02*
X5640000Y-5594250I-360000J0D01*
G01*
X5640000Y-5594250D02*
G75*
G02*
X6360000Y-5594250I360000J0D01*
G01*
X6360000Y-8500000D02*
G75*
G02*
X5640000Y-8500000I-360000J0D01*
G01*
X5640000Y-8500000D02*
G75*
G02*
X6360000Y-8500000I360000J0D01*
G01*
X8360000Y-5594250D02*
G75*
G02*
X7640000Y-5594250I-360000J0D01*
G01*
X7640000Y-5594250D02*
G75*
G02*
X8360000Y-5594250I360000J0D01*
G01*
X8360000Y-8500000D02*
G75*
G02*
X7640000Y-8500000I-360000J0D01*
G01*
X7640000Y-8500000D02*
G75*
G02*
X8360000Y-8500000I360000J0D01*
G01*
X10360000Y-5594250D02*
G75*
G02*
X9640000Y-5594250I-360000J0D01*
G01*
X9640000Y-5594250D02*
G75*
G02*
X10360000Y-5594250I360000J0D01*
G01*
X10360000Y-8500000D02*
G75*
G02*
X9640000Y-8500000I-360000J0D01*
G01*
X9640000Y-8500000D02*
G75*
G02*
X10360000Y-8500000I360000J0D01*
G01*
X12360000Y-5594250D02*
G75*
G02*
X11640000Y-5594250I-360000J0D01*
G01*
X11640000Y-5594250D02*
G75*
G02*
X12360000Y-5594250I360000J0D01*
G01*
X12360000Y-8505750D02*
G75*
G02*
X11640000Y-8505750I-360000J0D01*
G01*
X11640000Y-8505750D02*
G75*
G02*
X12360000Y-8505750I360000J0D01*
G01*
D11*
X5255777Y-16166484D02*
X5255777Y-15966484D01*
X5255777Y-15966484D02*
X5303396Y-15966484D01*
X5303396Y-15966484D02*
X5331967Y-15976008D01*
X5331967Y-15976008D02*
X5351015Y-15995055D01*
X5351015Y-15995055D02*
X5360539Y-16014103D01*
X5360539Y-16014103D02*
X5370063Y-16052198D01*
X5370063Y-16052198D02*
X5370063Y-16080769D01*
X5370063Y-16080769D02*
X5360539Y-16118865D01*
X5360539Y-16118865D02*
X5351015Y-16137912D01*
X5351015Y-16137912D02*
X5331967Y-16156960D01*
X5331967Y-16156960D02*
X5303396Y-16166484D01*
X5303396Y-16166484D02*
X5255777Y-16166484D01*
X5455777Y-16166484D02*
X5455777Y-16033150D01*
X5455777Y-16071246D02*
X5465301Y-16052198D01*
X5465301Y-16052198D02*
X5474824Y-16042674D01*
X5474824Y-16042674D02*
X5493872Y-16033150D01*
X5493872Y-16033150D02*
X5512920Y-16033150D01*
X5579586Y-16166484D02*
X5579586Y-16033150D01*
X5579586Y-15966484D02*
X5570063Y-15976008D01*
X5570063Y-15976008D02*
X5579586Y-15985531D01*
X5579586Y-15985531D02*
X5589110Y-15976008D01*
X5589110Y-15976008D02*
X5579586Y-15966484D01*
X5579586Y-15966484D02*
X5579586Y-15985531D01*
X5703396Y-16166484D02*
X5684348Y-16156960D01*
X5684348Y-16156960D02*
X5674824Y-16137912D01*
X5674824Y-16137912D02*
X5674824Y-15966484D01*
X5808158Y-16166484D02*
X5789110Y-16156960D01*
X5789110Y-16156960D02*
X5779586Y-16137912D01*
X5779586Y-16137912D02*
X5779586Y-15966484D01*
X6036729Y-16166484D02*
X6036729Y-15966484D01*
X6036729Y-15966484D02*
X6103396Y-16109341D01*
X6103396Y-16109341D02*
X6170062Y-15966484D01*
X6170062Y-15966484D02*
X6170062Y-16166484D01*
X6351015Y-16166484D02*
X6351015Y-16061722D01*
X6351015Y-16061722D02*
X6341491Y-16042674D01*
X6341491Y-16042674D02*
X6322443Y-16033150D01*
X6322443Y-16033150D02*
X6284348Y-16033150D01*
X6284348Y-16033150D02*
X6265301Y-16042674D01*
X6351015Y-16156960D02*
X6331967Y-16166484D01*
X6331967Y-16166484D02*
X6284348Y-16166484D01*
X6284348Y-16166484D02*
X6265301Y-16156960D01*
X6265301Y-16156960D02*
X6255777Y-16137912D01*
X6255777Y-16137912D02*
X6255777Y-16118865D01*
X6255777Y-16118865D02*
X6265301Y-16099817D01*
X6265301Y-16099817D02*
X6284348Y-16090293D01*
X6284348Y-16090293D02*
X6331967Y-16090293D01*
X6331967Y-16090293D02*
X6351015Y-16080769D01*
X6446253Y-16033150D02*
X6446253Y-16233150D01*
X6446253Y-16042674D02*
X6465301Y-16033150D01*
X6465301Y-16033150D02*
X6503396Y-16033150D01*
X6503396Y-16033150D02*
X6522443Y-16042674D01*
X6522443Y-16042674D02*
X6531967Y-16052198D01*
X6531967Y-16052198D02*
X6541491Y-16071246D01*
X6541491Y-16071246D02*
X6541491Y-16128388D01*
X6541491Y-16128388D02*
X6531967Y-16147436D01*
X6531967Y-16147436D02*
X6522443Y-16156960D01*
X6522443Y-16156960D02*
X6503396Y-16166484D01*
X6503396Y-16166484D02*
X6465301Y-16166484D01*
X6465301Y-16166484D02*
X6446253Y-16156960D01*
X6627205Y-16147436D02*
X6636729Y-16156960D01*
X6636729Y-16156960D02*
X6627205Y-16166484D01*
X6627205Y-16166484D02*
X6617682Y-16156960D01*
X6617682Y-16156960D02*
X6627205Y-16147436D01*
X6627205Y-16147436D02*
X6627205Y-16166484D01*
X6627205Y-16042674D02*
X6636729Y-16052198D01*
X6636729Y-16052198D02*
X6627205Y-16061722D01*
X6627205Y-16061722D02*
X6617682Y-16052198D01*
X6617682Y-16052198D02*
X6627205Y-16042674D01*
X6627205Y-16042674D02*
X6627205Y-16061722D01*
X4795000Y-16395000D02*
X4995000Y-16595000D01*
X4995000Y-16395000D02*
X4795000Y-16595000D01*
X5341491Y-16386484D02*
X5303396Y-16386484D01*
X5303396Y-16386484D02*
X5284348Y-16396008D01*
X5284348Y-16396008D02*
X5274824Y-16405531D01*
X5274824Y-16405531D02*
X5255777Y-16434103D01*
X5255777Y-16434103D02*
X5246253Y-16472198D01*
X5246253Y-16472198D02*
X5246253Y-16548388D01*
X5246253Y-16548388D02*
X5255777Y-16567436D01*
X5255777Y-16567436D02*
X5265301Y-16576960D01*
X5265301Y-16576960D02*
X5284348Y-16586484D01*
X5284348Y-16586484D02*
X5322444Y-16586484D01*
X5322444Y-16586484D02*
X5341491Y-16576960D01*
X5341491Y-16576960D02*
X5351015Y-16567436D01*
X5351015Y-16567436D02*
X5360539Y-16548388D01*
X5360539Y-16548388D02*
X5360539Y-16500769D01*
X5360539Y-16500769D02*
X5351015Y-16481722D01*
X5351015Y-16481722D02*
X5341491Y-16472198D01*
X5341491Y-16472198D02*
X5322444Y-16462674D01*
X5322444Y-16462674D02*
X5284348Y-16462674D01*
X5284348Y-16462674D02*
X5265301Y-16472198D01*
X5265301Y-16472198D02*
X5255777Y-16481722D01*
X5255777Y-16481722D02*
X5246253Y-16500769D01*
X5446253Y-16567436D02*
X5455777Y-16576960D01*
X5455777Y-16576960D02*
X5446253Y-16586484D01*
X5446253Y-16586484D02*
X5436729Y-16576960D01*
X5436729Y-16576960D02*
X5446253Y-16567436D01*
X5446253Y-16567436D02*
X5446253Y-16586484D01*
X5531967Y-16405531D02*
X5541491Y-16396008D01*
X5541491Y-16396008D02*
X5560539Y-16386484D01*
X5560539Y-16386484D02*
X5608158Y-16386484D01*
X5608158Y-16386484D02*
X5627205Y-16396008D01*
X5627205Y-16396008D02*
X5636729Y-16405531D01*
X5636729Y-16405531D02*
X5646253Y-16424579D01*
X5646253Y-16424579D02*
X5646253Y-16443627D01*
X5646253Y-16443627D02*
X5636729Y-16472198D01*
X5636729Y-16472198D02*
X5522444Y-16586484D01*
X5522444Y-16586484D02*
X5646253Y-16586484D01*
X5770062Y-16386484D02*
X5789110Y-16386484D01*
X5789110Y-16386484D02*
X5808158Y-16396008D01*
X5808158Y-16396008D02*
X5817682Y-16405531D01*
X5817682Y-16405531D02*
X5827205Y-16424579D01*
X5827205Y-16424579D02*
X5836729Y-16462674D01*
X5836729Y-16462674D02*
X5836729Y-16510293D01*
X5836729Y-16510293D02*
X5827205Y-16548388D01*
X5827205Y-16548388D02*
X5817682Y-16567436D01*
X5817682Y-16567436D02*
X5808158Y-16576960D01*
X5808158Y-16576960D02*
X5789110Y-16586484D01*
X5789110Y-16586484D02*
X5770062Y-16586484D01*
X5770062Y-16586484D02*
X5751015Y-16576960D01*
X5751015Y-16576960D02*
X5741491Y-16567436D01*
X5741491Y-16567436D02*
X5731967Y-16548388D01*
X5731967Y-16548388D02*
X5722443Y-16510293D01*
X5722443Y-16510293D02*
X5722443Y-16462674D01*
X5722443Y-16462674D02*
X5731967Y-16424579D01*
X5731967Y-16424579D02*
X5741491Y-16405531D01*
X5741491Y-16405531D02*
X5751015Y-16396008D01*
X5751015Y-16396008D02*
X5770062Y-16386484D01*
X5960539Y-16386484D02*
X5979586Y-16386484D01*
X5979586Y-16386484D02*
X5998634Y-16396008D01*
X5998634Y-16396008D02*
X6008158Y-16405531D01*
X6008158Y-16405531D02*
X6017682Y-16424579D01*
X6017682Y-16424579D02*
X6027205Y-16462674D01*
X6027205Y-16462674D02*
X6027205Y-16510293D01*
X6027205Y-16510293D02*
X6017682Y-16548388D01*
X6017682Y-16548388D02*
X6008158Y-16567436D01*
X6008158Y-16567436D02*
X5998634Y-16576960D01*
X5998634Y-16576960D02*
X5979586Y-16586484D01*
X5979586Y-16586484D02*
X5960539Y-16586484D01*
X5960539Y-16586484D02*
X5941491Y-16576960D01*
X5941491Y-16576960D02*
X5931967Y-16567436D01*
X5931967Y-16567436D02*
X5922443Y-16548388D01*
X5922443Y-16548388D02*
X5912920Y-16510293D01*
X5912920Y-16510293D02*
X5912920Y-16462674D01*
X5912920Y-16462674D02*
X5922443Y-16424579D01*
X5922443Y-16424579D02*
X5931967Y-16405531D01*
X5931967Y-16405531D02*
X5941491Y-16396008D01*
X5941491Y-16396008D02*
X5960539Y-16386484D01*
X6112920Y-16586484D02*
X6112920Y-16453150D01*
X6112920Y-16472198D02*
X6122443Y-16462674D01*
X6122443Y-16462674D02*
X6141491Y-16453150D01*
X6141491Y-16453150D02*
X6170063Y-16453150D01*
X6170063Y-16453150D02*
X6189110Y-16462674D01*
X6189110Y-16462674D02*
X6198634Y-16481722D01*
X6198634Y-16481722D02*
X6198634Y-16586484D01*
X6198634Y-16481722D02*
X6208158Y-16462674D01*
X6208158Y-16462674D02*
X6227205Y-16453150D01*
X6227205Y-16453150D02*
X6255777Y-16453150D01*
X6255777Y-16453150D02*
X6274824Y-16462674D01*
X6274824Y-16462674D02*
X6284348Y-16481722D01*
X6284348Y-16481722D02*
X6284348Y-16586484D01*
X6379586Y-16586484D02*
X6379586Y-16453150D01*
X6379586Y-16472198D02*
X6389110Y-16462674D01*
X6389110Y-16462674D02*
X6408158Y-16453150D01*
X6408158Y-16453150D02*
X6436729Y-16453150D01*
X6436729Y-16453150D02*
X6455777Y-16462674D01*
X6455777Y-16462674D02*
X6465301Y-16481722D01*
X6465301Y-16481722D02*
X6465301Y-16586484D01*
X6465301Y-16481722D02*
X6474824Y-16462674D01*
X6474824Y-16462674D02*
X6493872Y-16453150D01*
X6493872Y-16453150D02*
X6522443Y-16453150D01*
X6522443Y-16453150D02*
X6541491Y-16462674D01*
X6541491Y-16462674D02*
X6551015Y-16481722D01*
X6551015Y-16481722D02*
X6551015Y-16586484D01*
X6941491Y-16376960D02*
X6770063Y-16634103D01*
X7198634Y-16386484D02*
X7217682Y-16386484D01*
X7217682Y-16386484D02*
X7236729Y-16396008D01*
X7236729Y-16396008D02*
X7246253Y-16405531D01*
X7246253Y-16405531D02*
X7255777Y-16424579D01*
X7255777Y-16424579D02*
X7265301Y-16462674D01*
X7265301Y-16462674D02*
X7265301Y-16510293D01*
X7265301Y-16510293D02*
X7255777Y-16548388D01*
X7255777Y-16548388D02*
X7246253Y-16567436D01*
X7246253Y-16567436D02*
X7236729Y-16576960D01*
X7236729Y-16576960D02*
X7217682Y-16586484D01*
X7217682Y-16586484D02*
X7198634Y-16586484D01*
X7198634Y-16586484D02*
X7179586Y-16576960D01*
X7179586Y-16576960D02*
X7170063Y-16567436D01*
X7170063Y-16567436D02*
X7160539Y-16548388D01*
X7160539Y-16548388D02*
X7151015Y-16510293D01*
X7151015Y-16510293D02*
X7151015Y-16462674D01*
X7151015Y-16462674D02*
X7160539Y-16424579D01*
X7160539Y-16424579D02*
X7170063Y-16405531D01*
X7170063Y-16405531D02*
X7179586Y-16396008D01*
X7179586Y-16396008D02*
X7198634Y-16386484D01*
X7351015Y-16567436D02*
X7360539Y-16576960D01*
X7360539Y-16576960D02*
X7351015Y-16586484D01*
X7351015Y-16586484D02*
X7341491Y-16576960D01*
X7341491Y-16576960D02*
X7351015Y-16567436D01*
X7351015Y-16567436D02*
X7351015Y-16586484D01*
X7436729Y-16405531D02*
X7446253Y-16396008D01*
X7446253Y-16396008D02*
X7465301Y-16386484D01*
X7465301Y-16386484D02*
X7512920Y-16386484D01*
X7512920Y-16386484D02*
X7531967Y-16396008D01*
X7531967Y-16396008D02*
X7541491Y-16405531D01*
X7541491Y-16405531D02*
X7551015Y-16424579D01*
X7551015Y-16424579D02*
X7551015Y-16443627D01*
X7551015Y-16443627D02*
X7541491Y-16472198D01*
X7541491Y-16472198D02*
X7427206Y-16586484D01*
X7427206Y-16586484D02*
X7551015Y-16586484D01*
X7722444Y-16453150D02*
X7722444Y-16586484D01*
X7674825Y-16376960D02*
X7627206Y-16519817D01*
X7627206Y-16519817D02*
X7751015Y-16519817D01*
X7912920Y-16453150D02*
X7912920Y-16586484D01*
X7865301Y-16376960D02*
X7817682Y-16519817D01*
X7817682Y-16519817D02*
X7941491Y-16519817D01*
X8122444Y-16586484D02*
X8008158Y-16586484D01*
X8065301Y-16586484D02*
X8065301Y-16386484D01*
X8065301Y-16386484D02*
X8046253Y-16415055D01*
X8046253Y-16415055D02*
X8027206Y-16434103D01*
X8027206Y-16434103D02*
X8008158Y-16443627D01*
X8198634Y-16386484D02*
X8198634Y-16424579D01*
X8274825Y-16386484D02*
X8274825Y-16424579D01*
X8570063Y-16662674D02*
X8560539Y-16653150D01*
X8560539Y-16653150D02*
X8541491Y-16624579D01*
X8541491Y-16624579D02*
X8531968Y-16605531D01*
X8531968Y-16605531D02*
X8522444Y-16576960D01*
X8522444Y-16576960D02*
X8512920Y-16529341D01*
X8512920Y-16529341D02*
X8512920Y-16491246D01*
X8512920Y-16491246D02*
X8522444Y-16443627D01*
X8522444Y-16443627D02*
X8531968Y-16415055D01*
X8531968Y-16415055D02*
X8541491Y-16396008D01*
X8541491Y-16396008D02*
X8560539Y-16367436D01*
X8560539Y-16367436D02*
X8570063Y-16357912D01*
X8731968Y-16453150D02*
X8731968Y-16586484D01*
X8684349Y-16376960D02*
X8636730Y-16519817D01*
X8636730Y-16519817D02*
X8760539Y-16519817D01*
X8989111Y-16586484D02*
X8989111Y-16386484D01*
X9074825Y-16586484D02*
X9074825Y-16481722D01*
X9074825Y-16481722D02*
X9065301Y-16462674D01*
X9065301Y-16462674D02*
X9046253Y-16453150D01*
X9046253Y-16453150D02*
X9017682Y-16453150D01*
X9017682Y-16453150D02*
X8998634Y-16462674D01*
X8998634Y-16462674D02*
X8989111Y-16472198D01*
X9198634Y-16586484D02*
X9179587Y-16576960D01*
X9179587Y-16576960D02*
X9170063Y-16567436D01*
X9170063Y-16567436D02*
X9160539Y-16548388D01*
X9160539Y-16548388D02*
X9160539Y-16491246D01*
X9160539Y-16491246D02*
X9170063Y-16472198D01*
X9170063Y-16472198D02*
X9179587Y-16462674D01*
X9179587Y-16462674D02*
X9198634Y-16453150D01*
X9198634Y-16453150D02*
X9227206Y-16453150D01*
X9227206Y-16453150D02*
X9246253Y-16462674D01*
X9246253Y-16462674D02*
X9255777Y-16472198D01*
X9255777Y-16472198D02*
X9265301Y-16491246D01*
X9265301Y-16491246D02*
X9265301Y-16548388D01*
X9265301Y-16548388D02*
X9255777Y-16567436D01*
X9255777Y-16567436D02*
X9246253Y-16576960D01*
X9246253Y-16576960D02*
X9227206Y-16586484D01*
X9227206Y-16586484D02*
X9198634Y-16586484D01*
X9379587Y-16586484D02*
X9360539Y-16576960D01*
X9360539Y-16576960D02*
X9351015Y-16557912D01*
X9351015Y-16557912D02*
X9351015Y-16386484D01*
X9531968Y-16576960D02*
X9512920Y-16586484D01*
X9512920Y-16586484D02*
X9474825Y-16586484D01*
X9474825Y-16586484D02*
X9455777Y-16576960D01*
X9455777Y-16576960D02*
X9446253Y-16557912D01*
X9446253Y-16557912D02*
X9446253Y-16481722D01*
X9446253Y-16481722D02*
X9455777Y-16462674D01*
X9455777Y-16462674D02*
X9474825Y-16453150D01*
X9474825Y-16453150D02*
X9512920Y-16453150D01*
X9512920Y-16453150D02*
X9531968Y-16462674D01*
X9531968Y-16462674D02*
X9541492Y-16481722D01*
X9541492Y-16481722D02*
X9541492Y-16500769D01*
X9541492Y-16500769D02*
X9446253Y-16519817D01*
X9617682Y-16576960D02*
X9636730Y-16586484D01*
X9636730Y-16586484D02*
X9674825Y-16586484D01*
X9674825Y-16586484D02*
X9693873Y-16576960D01*
X9693873Y-16576960D02*
X9703396Y-16557912D01*
X9703396Y-16557912D02*
X9703396Y-16548388D01*
X9703396Y-16548388D02*
X9693873Y-16529341D01*
X9693873Y-16529341D02*
X9674825Y-16519817D01*
X9674825Y-16519817D02*
X9646253Y-16519817D01*
X9646253Y-16519817D02*
X9627206Y-16510293D01*
X9627206Y-16510293D02*
X9617682Y-16491246D01*
X9617682Y-16491246D02*
X9617682Y-16481722D01*
X9617682Y-16481722D02*
X9627206Y-16462674D01*
X9627206Y-16462674D02*
X9646253Y-16453150D01*
X9646253Y-16453150D02*
X9674825Y-16453150D01*
X9674825Y-16453150D02*
X9693873Y-16462674D01*
X9770063Y-16662674D02*
X9779587Y-16653150D01*
X9779587Y-16653150D02*
X9798634Y-16624579D01*
X9798634Y-16624579D02*
X9808158Y-16605531D01*
X9808158Y-16605531D02*
X9817682Y-16576960D01*
X9817682Y-16576960D02*
X9827206Y-16529341D01*
X9827206Y-16529341D02*
X9827206Y-16491246D01*
X9827206Y-16491246D02*
X9817682Y-16443627D01*
X9817682Y-16443627D02*
X9808158Y-16415055D01*
X9808158Y-16415055D02*
X9798634Y-16396008D01*
X9798634Y-16396008D02*
X9779587Y-16367436D01*
X9779587Y-16367436D02*
X9770063Y-16357912D01*
X10131968Y-16662674D02*
X10122444Y-16653150D01*
X10122444Y-16653150D02*
X10103396Y-16624579D01*
X10103396Y-16624579D02*
X10093873Y-16605531D01*
X10093873Y-16605531D02*
X10084349Y-16576960D01*
X10084349Y-16576960D02*
X10074825Y-16529341D01*
X10074825Y-16529341D02*
X10074825Y-16491246D01*
X10074825Y-16491246D02*
X10084349Y-16443627D01*
X10084349Y-16443627D02*
X10093873Y-16415055D01*
X10093873Y-16415055D02*
X10103396Y-16396008D01*
X10103396Y-16396008D02*
X10122444Y-16367436D01*
X10122444Y-16367436D02*
X10131968Y-16357912D01*
X10208158Y-16453150D02*
X10208158Y-16586484D01*
X10208158Y-16472198D02*
X10217682Y-16462674D01*
X10217682Y-16462674D02*
X10236730Y-16453150D01*
X10236730Y-16453150D02*
X10265301Y-16453150D01*
X10265301Y-16453150D02*
X10284349Y-16462674D01*
X10284349Y-16462674D02*
X10293873Y-16481722D01*
X10293873Y-16481722D02*
X10293873Y-16586484D01*
X10417682Y-16586484D02*
X10398634Y-16576960D01*
X10398634Y-16576960D02*
X10389111Y-16567436D01*
X10389111Y-16567436D02*
X10379587Y-16548388D01*
X10379587Y-16548388D02*
X10379587Y-16491246D01*
X10379587Y-16491246D02*
X10389111Y-16472198D01*
X10389111Y-16472198D02*
X10398634Y-16462674D01*
X10398634Y-16462674D02*
X10417682Y-16453150D01*
X10417682Y-16453150D02*
X10446254Y-16453150D01*
X10446254Y-16453150D02*
X10465301Y-16462674D01*
X10465301Y-16462674D02*
X10474825Y-16472198D01*
X10474825Y-16472198D02*
X10484349Y-16491246D01*
X10484349Y-16491246D02*
X10484349Y-16548388D01*
X10484349Y-16548388D02*
X10474825Y-16567436D01*
X10474825Y-16567436D02*
X10465301Y-16576960D01*
X10465301Y-16576960D02*
X10446254Y-16586484D01*
X10446254Y-16586484D02*
X10417682Y-16586484D01*
X10541492Y-16453150D02*
X10617682Y-16453150D01*
X10570063Y-16386484D02*
X10570063Y-16557912D01*
X10570063Y-16557912D02*
X10579587Y-16576960D01*
X10579587Y-16576960D02*
X10598634Y-16586484D01*
X10598634Y-16586484D02*
X10617682Y-16586484D01*
X10836730Y-16453150D02*
X10836730Y-16653150D01*
X10836730Y-16462674D02*
X10855777Y-16453150D01*
X10855777Y-16453150D02*
X10893873Y-16453150D01*
X10893873Y-16453150D02*
X10912920Y-16462674D01*
X10912920Y-16462674D02*
X10922444Y-16472198D01*
X10922444Y-16472198D02*
X10931968Y-16491246D01*
X10931968Y-16491246D02*
X10931968Y-16548388D01*
X10931968Y-16548388D02*
X10922444Y-16567436D01*
X10922444Y-16567436D02*
X10912920Y-16576960D01*
X10912920Y-16576960D02*
X10893873Y-16586484D01*
X10893873Y-16586484D02*
X10855777Y-16586484D01*
X10855777Y-16586484D02*
X10836730Y-16576960D01*
X11046254Y-16586484D02*
X11027206Y-16576960D01*
X11027206Y-16576960D02*
X11017682Y-16557912D01*
X11017682Y-16557912D02*
X11017682Y-16386484D01*
X11208158Y-16586484D02*
X11208158Y-16481722D01*
X11208158Y-16481722D02*
X11198634Y-16462674D01*
X11198634Y-16462674D02*
X11179587Y-16453150D01*
X11179587Y-16453150D02*
X11141492Y-16453150D01*
X11141492Y-16453150D02*
X11122444Y-16462674D01*
X11208158Y-16576960D02*
X11189111Y-16586484D01*
X11189111Y-16586484D02*
X11141492Y-16586484D01*
X11141492Y-16586484D02*
X11122444Y-16576960D01*
X11122444Y-16576960D02*
X11112920Y-16557912D01*
X11112920Y-16557912D02*
X11112920Y-16538865D01*
X11112920Y-16538865D02*
X11122444Y-16519817D01*
X11122444Y-16519817D02*
X11141492Y-16510293D01*
X11141492Y-16510293D02*
X11189111Y-16510293D01*
X11189111Y-16510293D02*
X11208158Y-16500769D01*
X11274825Y-16453150D02*
X11351015Y-16453150D01*
X11303396Y-16386484D02*
X11303396Y-16557912D01*
X11303396Y-16557912D02*
X11312920Y-16576960D01*
X11312920Y-16576960D02*
X11331968Y-16586484D01*
X11331968Y-16586484D02*
X11351015Y-16586484D01*
X11493873Y-16576960D02*
X11474825Y-16586484D01*
X11474825Y-16586484D02*
X11436730Y-16586484D01*
X11436730Y-16586484D02*
X11417682Y-16576960D01*
X11417682Y-16576960D02*
X11408158Y-16557912D01*
X11408158Y-16557912D02*
X11408158Y-16481722D01*
X11408158Y-16481722D02*
X11417682Y-16462674D01*
X11417682Y-16462674D02*
X11436730Y-16453150D01*
X11436730Y-16453150D02*
X11474825Y-16453150D01*
X11474825Y-16453150D02*
X11493873Y-16462674D01*
X11493873Y-16462674D02*
X11503396Y-16481722D01*
X11503396Y-16481722D02*
X11503396Y-16500769D01*
X11503396Y-16500769D02*
X11408158Y-16519817D01*
X11674825Y-16586484D02*
X11674825Y-16386484D01*
X11674825Y-16576960D02*
X11655777Y-16586484D01*
X11655777Y-16586484D02*
X11617682Y-16586484D01*
X11617682Y-16586484D02*
X11598634Y-16576960D01*
X11598634Y-16576960D02*
X11589111Y-16567436D01*
X11589111Y-16567436D02*
X11579587Y-16548388D01*
X11579587Y-16548388D02*
X11579587Y-16491246D01*
X11579587Y-16491246D02*
X11589111Y-16472198D01*
X11589111Y-16472198D02*
X11598634Y-16462674D01*
X11598634Y-16462674D02*
X11617682Y-16453150D01*
X11617682Y-16453150D02*
X11655777Y-16453150D01*
X11655777Y-16453150D02*
X11674825Y-16462674D01*
X11751015Y-16662674D02*
X11760539Y-16653150D01*
X11760539Y-16653150D02*
X11779587Y-16624579D01*
X11779587Y-16624579D02*
X11789111Y-16605531D01*
X11789111Y-16605531D02*
X11798634Y-16576960D01*
X11798634Y-16576960D02*
X11808158Y-16529341D01*
X11808158Y-16529341D02*
X11808158Y-16491246D01*
X11808158Y-16491246D02*
X11798634Y-16443627D01*
X11798634Y-16443627D02*
X11789111Y-16415055D01*
X11789111Y-16415055D02*
X11779587Y-16396008D01*
X11779587Y-16396008D02*
X11760539Y-16367436D01*
X11760539Y-16367436D02*
X11751015Y-16357912D01*
X4995000Y-16815000D02*
G75*
G02*
X4795000Y-16815000I-100000J0D01*
G01*
X4795000Y-16815000D02*
G75*
G02*
X4995000Y-16815000I100000J0D01*
G01*
X5236729Y-16706484D02*
X5370063Y-16706484D01*
X5370063Y-16706484D02*
X5284348Y-16906484D01*
X5446253Y-16887436D02*
X5455777Y-16896960D01*
X5455777Y-16896960D02*
X5446253Y-16906484D01*
X5446253Y-16906484D02*
X5436729Y-16896960D01*
X5436729Y-16896960D02*
X5446253Y-16887436D01*
X5446253Y-16887436D02*
X5446253Y-16906484D01*
X5531967Y-16725531D02*
X5541491Y-16716008D01*
X5541491Y-16716008D02*
X5560539Y-16706484D01*
X5560539Y-16706484D02*
X5608158Y-16706484D01*
X5608158Y-16706484D02*
X5627205Y-16716008D01*
X5627205Y-16716008D02*
X5636729Y-16725531D01*
X5636729Y-16725531D02*
X5646253Y-16744579D01*
X5646253Y-16744579D02*
X5646253Y-16763627D01*
X5646253Y-16763627D02*
X5636729Y-16792198D01*
X5636729Y-16792198D02*
X5522444Y-16906484D01*
X5522444Y-16906484D02*
X5646253Y-16906484D01*
X5770062Y-16706484D02*
X5789110Y-16706484D01*
X5789110Y-16706484D02*
X5808158Y-16716008D01*
X5808158Y-16716008D02*
X5817682Y-16725531D01*
X5817682Y-16725531D02*
X5827205Y-16744579D01*
X5827205Y-16744579D02*
X5836729Y-16782674D01*
X5836729Y-16782674D02*
X5836729Y-16830293D01*
X5836729Y-16830293D02*
X5827205Y-16868389D01*
X5827205Y-16868389D02*
X5817682Y-16887436D01*
X5817682Y-16887436D02*
X5808158Y-16896960D01*
X5808158Y-16896960D02*
X5789110Y-16906484D01*
X5789110Y-16906484D02*
X5770062Y-16906484D01*
X5770062Y-16906484D02*
X5751015Y-16896960D01*
X5751015Y-16896960D02*
X5741491Y-16887436D01*
X5741491Y-16887436D02*
X5731967Y-16868389D01*
X5731967Y-16868389D02*
X5722443Y-16830293D01*
X5722443Y-16830293D02*
X5722443Y-16782674D01*
X5722443Y-16782674D02*
X5731967Y-16744579D01*
X5731967Y-16744579D02*
X5741491Y-16725531D01*
X5741491Y-16725531D02*
X5751015Y-16716008D01*
X5751015Y-16716008D02*
X5770062Y-16706484D01*
X5960539Y-16706484D02*
X5979586Y-16706484D01*
X5979586Y-16706484D02*
X5998634Y-16716008D01*
X5998634Y-16716008D02*
X6008158Y-16725531D01*
X6008158Y-16725531D02*
X6017682Y-16744579D01*
X6017682Y-16744579D02*
X6027205Y-16782674D01*
X6027205Y-16782674D02*
X6027205Y-16830293D01*
X6027205Y-16830293D02*
X6017682Y-16868389D01*
X6017682Y-16868389D02*
X6008158Y-16887436D01*
X6008158Y-16887436D02*
X5998634Y-16896960D01*
X5998634Y-16896960D02*
X5979586Y-16906484D01*
X5979586Y-16906484D02*
X5960539Y-16906484D01*
X5960539Y-16906484D02*
X5941491Y-16896960D01*
X5941491Y-16896960D02*
X5931967Y-16887436D01*
X5931967Y-16887436D02*
X5922443Y-16868389D01*
X5922443Y-16868389D02*
X5912920Y-16830293D01*
X5912920Y-16830293D02*
X5912920Y-16782674D01*
X5912920Y-16782674D02*
X5922443Y-16744579D01*
X5922443Y-16744579D02*
X5931967Y-16725531D01*
X5931967Y-16725531D02*
X5941491Y-16716008D01*
X5941491Y-16716008D02*
X5960539Y-16706484D01*
X6112920Y-16906484D02*
X6112920Y-16773150D01*
X6112920Y-16792198D02*
X6122443Y-16782674D01*
X6122443Y-16782674D02*
X6141491Y-16773150D01*
X6141491Y-16773150D02*
X6170063Y-16773150D01*
X6170063Y-16773150D02*
X6189110Y-16782674D01*
X6189110Y-16782674D02*
X6198634Y-16801722D01*
X6198634Y-16801722D02*
X6198634Y-16906484D01*
X6198634Y-16801722D02*
X6208158Y-16782674D01*
X6208158Y-16782674D02*
X6227205Y-16773150D01*
X6227205Y-16773150D02*
X6255777Y-16773150D01*
X6255777Y-16773150D02*
X6274824Y-16782674D01*
X6274824Y-16782674D02*
X6284348Y-16801722D01*
X6284348Y-16801722D02*
X6284348Y-16906484D01*
X6379586Y-16906484D02*
X6379586Y-16773150D01*
X6379586Y-16792198D02*
X6389110Y-16782674D01*
X6389110Y-16782674D02*
X6408158Y-16773150D01*
X6408158Y-16773150D02*
X6436729Y-16773150D01*
X6436729Y-16773150D02*
X6455777Y-16782674D01*
X6455777Y-16782674D02*
X6465301Y-16801722D01*
X6465301Y-16801722D02*
X6465301Y-16906484D01*
X6465301Y-16801722D02*
X6474824Y-16782674D01*
X6474824Y-16782674D02*
X6493872Y-16773150D01*
X6493872Y-16773150D02*
X6522443Y-16773150D01*
X6522443Y-16773150D02*
X6541491Y-16782674D01*
X6541491Y-16782674D02*
X6551015Y-16801722D01*
X6551015Y-16801722D02*
X6551015Y-16906484D01*
X6941491Y-16696960D02*
X6770063Y-16954103D01*
X7198634Y-16706484D02*
X7217682Y-16706484D01*
X7217682Y-16706484D02*
X7236729Y-16716008D01*
X7236729Y-16716008D02*
X7246253Y-16725531D01*
X7246253Y-16725531D02*
X7255777Y-16744579D01*
X7255777Y-16744579D02*
X7265301Y-16782674D01*
X7265301Y-16782674D02*
X7265301Y-16830293D01*
X7265301Y-16830293D02*
X7255777Y-16868389D01*
X7255777Y-16868389D02*
X7246253Y-16887436D01*
X7246253Y-16887436D02*
X7236729Y-16896960D01*
X7236729Y-16896960D02*
X7217682Y-16906484D01*
X7217682Y-16906484D02*
X7198634Y-16906484D01*
X7198634Y-16906484D02*
X7179586Y-16896960D01*
X7179586Y-16896960D02*
X7170063Y-16887436D01*
X7170063Y-16887436D02*
X7160539Y-16868389D01*
X7160539Y-16868389D02*
X7151015Y-16830293D01*
X7151015Y-16830293D02*
X7151015Y-16782674D01*
X7151015Y-16782674D02*
X7160539Y-16744579D01*
X7160539Y-16744579D02*
X7170063Y-16725531D01*
X7170063Y-16725531D02*
X7179586Y-16716008D01*
X7179586Y-16716008D02*
X7198634Y-16706484D01*
X7351015Y-16887436D02*
X7360539Y-16896960D01*
X7360539Y-16896960D02*
X7351015Y-16906484D01*
X7351015Y-16906484D02*
X7341491Y-16896960D01*
X7341491Y-16896960D02*
X7351015Y-16887436D01*
X7351015Y-16887436D02*
X7351015Y-16906484D01*
X7436729Y-16725531D02*
X7446253Y-16716008D01*
X7446253Y-16716008D02*
X7465301Y-16706484D01*
X7465301Y-16706484D02*
X7512920Y-16706484D01*
X7512920Y-16706484D02*
X7531967Y-16716008D01*
X7531967Y-16716008D02*
X7541491Y-16725531D01*
X7541491Y-16725531D02*
X7551015Y-16744579D01*
X7551015Y-16744579D02*
X7551015Y-16763627D01*
X7551015Y-16763627D02*
X7541491Y-16792198D01*
X7541491Y-16792198D02*
X7427206Y-16906484D01*
X7427206Y-16906484D02*
X7551015Y-16906484D01*
X7665301Y-16792198D02*
X7646253Y-16782674D01*
X7646253Y-16782674D02*
X7636729Y-16773150D01*
X7636729Y-16773150D02*
X7627206Y-16754103D01*
X7627206Y-16754103D02*
X7627206Y-16744579D01*
X7627206Y-16744579D02*
X7636729Y-16725531D01*
X7636729Y-16725531D02*
X7646253Y-16716008D01*
X7646253Y-16716008D02*
X7665301Y-16706484D01*
X7665301Y-16706484D02*
X7703396Y-16706484D01*
X7703396Y-16706484D02*
X7722444Y-16716008D01*
X7722444Y-16716008D02*
X7731967Y-16725531D01*
X7731967Y-16725531D02*
X7741491Y-16744579D01*
X7741491Y-16744579D02*
X7741491Y-16754103D01*
X7741491Y-16754103D02*
X7731967Y-16773150D01*
X7731967Y-16773150D02*
X7722444Y-16782674D01*
X7722444Y-16782674D02*
X7703396Y-16792198D01*
X7703396Y-16792198D02*
X7665301Y-16792198D01*
X7665301Y-16792198D02*
X7646253Y-16801722D01*
X7646253Y-16801722D02*
X7636729Y-16811246D01*
X7636729Y-16811246D02*
X7627206Y-16830293D01*
X7627206Y-16830293D02*
X7627206Y-16868389D01*
X7627206Y-16868389D02*
X7636729Y-16887436D01*
X7636729Y-16887436D02*
X7646253Y-16896960D01*
X7646253Y-16896960D02*
X7665301Y-16906484D01*
X7665301Y-16906484D02*
X7703396Y-16906484D01*
X7703396Y-16906484D02*
X7722444Y-16896960D01*
X7722444Y-16896960D02*
X7731967Y-16887436D01*
X7731967Y-16887436D02*
X7741491Y-16868389D01*
X7741491Y-16868389D02*
X7741491Y-16830293D01*
X7741491Y-16830293D02*
X7731967Y-16811246D01*
X7731967Y-16811246D02*
X7722444Y-16801722D01*
X7722444Y-16801722D02*
X7703396Y-16792198D01*
X7808158Y-16706484D02*
X7931967Y-16706484D01*
X7931967Y-16706484D02*
X7865301Y-16782674D01*
X7865301Y-16782674D02*
X7893872Y-16782674D01*
X7893872Y-16782674D02*
X7912920Y-16792198D01*
X7912920Y-16792198D02*
X7922444Y-16801722D01*
X7922444Y-16801722D02*
X7931967Y-16820770D01*
X7931967Y-16820770D02*
X7931967Y-16868389D01*
X7931967Y-16868389D02*
X7922444Y-16887436D01*
X7922444Y-16887436D02*
X7912920Y-16896960D01*
X7912920Y-16896960D02*
X7893872Y-16906484D01*
X7893872Y-16906484D02*
X7836729Y-16906484D01*
X7836729Y-16906484D02*
X7817682Y-16896960D01*
X7817682Y-16896960D02*
X7808158Y-16887436D01*
X8112920Y-16706484D02*
X8017682Y-16706484D01*
X8017682Y-16706484D02*
X8008158Y-16801722D01*
X8008158Y-16801722D02*
X8017682Y-16792198D01*
X8017682Y-16792198D02*
X8036729Y-16782674D01*
X8036729Y-16782674D02*
X8084348Y-16782674D01*
X8084348Y-16782674D02*
X8103396Y-16792198D01*
X8103396Y-16792198D02*
X8112920Y-16801722D01*
X8112920Y-16801722D02*
X8122444Y-16820770D01*
X8122444Y-16820770D02*
X8122444Y-16868389D01*
X8122444Y-16868389D02*
X8112920Y-16887436D01*
X8112920Y-16887436D02*
X8103396Y-16896960D01*
X8103396Y-16896960D02*
X8084348Y-16906484D01*
X8084348Y-16906484D02*
X8036729Y-16906484D01*
X8036729Y-16906484D02*
X8017682Y-16896960D01*
X8017682Y-16896960D02*
X8008158Y-16887436D01*
X8198634Y-16706484D02*
X8198634Y-16744579D01*
X8274825Y-16706484D02*
X8274825Y-16744579D01*
X8570063Y-16982674D02*
X8560539Y-16973150D01*
X8560539Y-16973150D02*
X8541491Y-16944579D01*
X8541491Y-16944579D02*
X8531968Y-16925531D01*
X8531968Y-16925531D02*
X8522444Y-16896960D01*
X8522444Y-16896960D02*
X8512920Y-16849341D01*
X8512920Y-16849341D02*
X8512920Y-16811246D01*
X8512920Y-16811246D02*
X8522444Y-16763627D01*
X8522444Y-16763627D02*
X8531968Y-16735055D01*
X8531968Y-16735055D02*
X8541491Y-16716008D01*
X8541491Y-16716008D02*
X8560539Y-16687436D01*
X8560539Y-16687436D02*
X8570063Y-16677912D01*
X8674825Y-16792198D02*
X8655777Y-16782674D01*
X8655777Y-16782674D02*
X8646253Y-16773150D01*
X8646253Y-16773150D02*
X8636730Y-16754103D01*
X8636730Y-16754103D02*
X8636730Y-16744579D01*
X8636730Y-16744579D02*
X8646253Y-16725531D01*
X8646253Y-16725531D02*
X8655777Y-16716008D01*
X8655777Y-16716008D02*
X8674825Y-16706484D01*
X8674825Y-16706484D02*
X8712920Y-16706484D01*
X8712920Y-16706484D02*
X8731968Y-16716008D01*
X8731968Y-16716008D02*
X8741491Y-16725531D01*
X8741491Y-16725531D02*
X8751015Y-16744579D01*
X8751015Y-16744579D02*
X8751015Y-16754103D01*
X8751015Y-16754103D02*
X8741491Y-16773150D01*
X8741491Y-16773150D02*
X8731968Y-16782674D01*
X8731968Y-16782674D02*
X8712920Y-16792198D01*
X8712920Y-16792198D02*
X8674825Y-16792198D01*
X8674825Y-16792198D02*
X8655777Y-16801722D01*
X8655777Y-16801722D02*
X8646253Y-16811246D01*
X8646253Y-16811246D02*
X8636730Y-16830293D01*
X8636730Y-16830293D02*
X8636730Y-16868389D01*
X8636730Y-16868389D02*
X8646253Y-16887436D01*
X8646253Y-16887436D02*
X8655777Y-16896960D01*
X8655777Y-16896960D02*
X8674825Y-16906484D01*
X8674825Y-16906484D02*
X8712920Y-16906484D01*
X8712920Y-16906484D02*
X8731968Y-16896960D01*
X8731968Y-16896960D02*
X8741491Y-16887436D01*
X8741491Y-16887436D02*
X8751015Y-16868389D01*
X8751015Y-16868389D02*
X8751015Y-16830293D01*
X8751015Y-16830293D02*
X8741491Y-16811246D01*
X8741491Y-16811246D02*
X8731968Y-16801722D01*
X8731968Y-16801722D02*
X8712920Y-16792198D01*
X8989111Y-16906484D02*
X8989111Y-16706484D01*
X9074825Y-16906484D02*
X9074825Y-16801722D01*
X9074825Y-16801722D02*
X9065301Y-16782674D01*
X9065301Y-16782674D02*
X9046253Y-16773150D01*
X9046253Y-16773150D02*
X9017682Y-16773150D01*
X9017682Y-16773150D02*
X8998634Y-16782674D01*
X8998634Y-16782674D02*
X8989111Y-16792198D01*
X9198634Y-16906484D02*
X9179587Y-16896960D01*
X9179587Y-16896960D02*
X9170063Y-16887436D01*
X9170063Y-16887436D02*
X9160539Y-16868389D01*
X9160539Y-16868389D02*
X9160539Y-16811246D01*
X9160539Y-16811246D02*
X9170063Y-16792198D01*
X9170063Y-16792198D02*
X9179587Y-16782674D01*
X9179587Y-16782674D02*
X9198634Y-16773150D01*
X9198634Y-16773150D02*
X9227206Y-16773150D01*
X9227206Y-16773150D02*
X9246253Y-16782674D01*
X9246253Y-16782674D02*
X9255777Y-16792198D01*
X9255777Y-16792198D02*
X9265301Y-16811246D01*
X9265301Y-16811246D02*
X9265301Y-16868389D01*
X9265301Y-16868389D02*
X9255777Y-16887436D01*
X9255777Y-16887436D02*
X9246253Y-16896960D01*
X9246253Y-16896960D02*
X9227206Y-16906484D01*
X9227206Y-16906484D02*
X9198634Y-16906484D01*
X9379587Y-16906484D02*
X9360539Y-16896960D01*
X9360539Y-16896960D02*
X9351015Y-16877912D01*
X9351015Y-16877912D02*
X9351015Y-16706484D01*
X9531968Y-16896960D02*
X9512920Y-16906484D01*
X9512920Y-16906484D02*
X9474825Y-16906484D01*
X9474825Y-16906484D02*
X9455777Y-16896960D01*
X9455777Y-16896960D02*
X9446253Y-16877912D01*
X9446253Y-16877912D02*
X9446253Y-16801722D01*
X9446253Y-16801722D02*
X9455777Y-16782674D01*
X9455777Y-16782674D02*
X9474825Y-16773150D01*
X9474825Y-16773150D02*
X9512920Y-16773150D01*
X9512920Y-16773150D02*
X9531968Y-16782674D01*
X9531968Y-16782674D02*
X9541492Y-16801722D01*
X9541492Y-16801722D02*
X9541492Y-16820770D01*
X9541492Y-16820770D02*
X9446253Y-16839817D01*
X9617682Y-16896960D02*
X9636730Y-16906484D01*
X9636730Y-16906484D02*
X9674825Y-16906484D01*
X9674825Y-16906484D02*
X9693873Y-16896960D01*
X9693873Y-16896960D02*
X9703396Y-16877912D01*
X9703396Y-16877912D02*
X9703396Y-16868389D01*
X9703396Y-16868389D02*
X9693873Y-16849341D01*
X9693873Y-16849341D02*
X9674825Y-16839817D01*
X9674825Y-16839817D02*
X9646253Y-16839817D01*
X9646253Y-16839817D02*
X9627206Y-16830293D01*
X9627206Y-16830293D02*
X9617682Y-16811246D01*
X9617682Y-16811246D02*
X9617682Y-16801722D01*
X9617682Y-16801722D02*
X9627206Y-16782674D01*
X9627206Y-16782674D02*
X9646253Y-16773150D01*
X9646253Y-16773150D02*
X9674825Y-16773150D01*
X9674825Y-16773150D02*
X9693873Y-16782674D01*
X9770063Y-16982674D02*
X9779587Y-16973150D01*
X9779587Y-16973150D02*
X9798634Y-16944579D01*
X9798634Y-16944579D02*
X9808158Y-16925531D01*
X9808158Y-16925531D02*
X9817682Y-16896960D01*
X9817682Y-16896960D02*
X9827206Y-16849341D01*
X9827206Y-16849341D02*
X9827206Y-16811246D01*
X9827206Y-16811246D02*
X9817682Y-16763627D01*
X9817682Y-16763627D02*
X9808158Y-16735055D01*
X9808158Y-16735055D02*
X9798634Y-16716008D01*
X9798634Y-16716008D02*
X9779587Y-16687436D01*
X9779587Y-16687436D02*
X9770063Y-16677912D01*
X10131968Y-16982674D02*
X10122444Y-16973150D01*
X10122444Y-16973150D02*
X10103396Y-16944579D01*
X10103396Y-16944579D02*
X10093873Y-16925531D01*
X10093873Y-16925531D02*
X10084349Y-16896960D01*
X10084349Y-16896960D02*
X10074825Y-16849341D01*
X10074825Y-16849341D02*
X10074825Y-16811246D01*
X10074825Y-16811246D02*
X10084349Y-16763627D01*
X10084349Y-16763627D02*
X10093873Y-16735055D01*
X10093873Y-16735055D02*
X10103396Y-16716008D01*
X10103396Y-16716008D02*
X10122444Y-16687436D01*
X10122444Y-16687436D02*
X10131968Y-16677912D01*
X10208158Y-16773150D02*
X10208158Y-16906484D01*
X10208158Y-16792198D02*
X10217682Y-16782674D01*
X10217682Y-16782674D02*
X10236730Y-16773150D01*
X10236730Y-16773150D02*
X10265301Y-16773150D01*
X10265301Y-16773150D02*
X10284349Y-16782674D01*
X10284349Y-16782674D02*
X10293873Y-16801722D01*
X10293873Y-16801722D02*
X10293873Y-16906484D01*
X10417682Y-16906484D02*
X10398634Y-16896960D01*
X10398634Y-16896960D02*
X10389111Y-16887436D01*
X10389111Y-16887436D02*
X10379587Y-16868389D01*
X10379587Y-16868389D02*
X10379587Y-16811246D01*
X10379587Y-16811246D02*
X10389111Y-16792198D01*
X10389111Y-16792198D02*
X10398634Y-16782674D01*
X10398634Y-16782674D02*
X10417682Y-16773150D01*
X10417682Y-16773150D02*
X10446254Y-16773150D01*
X10446254Y-16773150D02*
X10465301Y-16782674D01*
X10465301Y-16782674D02*
X10474825Y-16792198D01*
X10474825Y-16792198D02*
X10484349Y-16811246D01*
X10484349Y-16811246D02*
X10484349Y-16868389D01*
X10484349Y-16868389D02*
X10474825Y-16887436D01*
X10474825Y-16887436D02*
X10465301Y-16896960D01*
X10465301Y-16896960D02*
X10446254Y-16906484D01*
X10446254Y-16906484D02*
X10417682Y-16906484D01*
X10541492Y-16773150D02*
X10617682Y-16773150D01*
X10570063Y-16706484D02*
X10570063Y-16877912D01*
X10570063Y-16877912D02*
X10579587Y-16896960D01*
X10579587Y-16896960D02*
X10598634Y-16906484D01*
X10598634Y-16906484D02*
X10617682Y-16906484D01*
X10836730Y-16773150D02*
X10836730Y-16973150D01*
X10836730Y-16782674D02*
X10855777Y-16773150D01*
X10855777Y-16773150D02*
X10893873Y-16773150D01*
X10893873Y-16773150D02*
X10912920Y-16782674D01*
X10912920Y-16782674D02*
X10922444Y-16792198D01*
X10922444Y-16792198D02*
X10931968Y-16811246D01*
X10931968Y-16811246D02*
X10931968Y-16868389D01*
X10931968Y-16868389D02*
X10922444Y-16887436D01*
X10922444Y-16887436D02*
X10912920Y-16896960D01*
X10912920Y-16896960D02*
X10893873Y-16906484D01*
X10893873Y-16906484D02*
X10855777Y-16906484D01*
X10855777Y-16906484D02*
X10836730Y-16896960D01*
X11046254Y-16906484D02*
X11027206Y-16896960D01*
X11027206Y-16896960D02*
X11017682Y-16877912D01*
X11017682Y-16877912D02*
X11017682Y-16706484D01*
X11208158Y-16906484D02*
X11208158Y-16801722D01*
X11208158Y-16801722D02*
X11198634Y-16782674D01*
X11198634Y-16782674D02*
X11179587Y-16773150D01*
X11179587Y-16773150D02*
X11141492Y-16773150D01*
X11141492Y-16773150D02*
X11122444Y-16782674D01*
X11208158Y-16896960D02*
X11189111Y-16906484D01*
X11189111Y-16906484D02*
X11141492Y-16906484D01*
X11141492Y-16906484D02*
X11122444Y-16896960D01*
X11122444Y-16896960D02*
X11112920Y-16877912D01*
X11112920Y-16877912D02*
X11112920Y-16858865D01*
X11112920Y-16858865D02*
X11122444Y-16839817D01*
X11122444Y-16839817D02*
X11141492Y-16830293D01*
X11141492Y-16830293D02*
X11189111Y-16830293D01*
X11189111Y-16830293D02*
X11208158Y-16820770D01*
X11274825Y-16773150D02*
X11351015Y-16773150D01*
X11303396Y-16706484D02*
X11303396Y-16877912D01*
X11303396Y-16877912D02*
X11312920Y-16896960D01*
X11312920Y-16896960D02*
X11331968Y-16906484D01*
X11331968Y-16906484D02*
X11351015Y-16906484D01*
X11493873Y-16896960D02*
X11474825Y-16906484D01*
X11474825Y-16906484D02*
X11436730Y-16906484D01*
X11436730Y-16906484D02*
X11417682Y-16896960D01*
X11417682Y-16896960D02*
X11408158Y-16877912D01*
X11408158Y-16877912D02*
X11408158Y-16801722D01*
X11408158Y-16801722D02*
X11417682Y-16782674D01*
X11417682Y-16782674D02*
X11436730Y-16773150D01*
X11436730Y-16773150D02*
X11474825Y-16773150D01*
X11474825Y-16773150D02*
X11493873Y-16782674D01*
X11493873Y-16782674D02*
X11503396Y-16801722D01*
X11503396Y-16801722D02*
X11503396Y-16820770D01*
X11503396Y-16820770D02*
X11408158Y-16839817D01*
X11674825Y-16906484D02*
X11674825Y-16706484D01*
X11674825Y-16896960D02*
X11655777Y-16906484D01*
X11655777Y-16906484D02*
X11617682Y-16906484D01*
X11617682Y-16906484D02*
X11598634Y-16896960D01*
X11598634Y-16896960D02*
X11589111Y-16887436D01*
X11589111Y-16887436D02*
X11579587Y-16868389D01*
X11579587Y-16868389D02*
X11579587Y-16811246D01*
X11579587Y-16811246D02*
X11589111Y-16792198D01*
X11589111Y-16792198D02*
X11598634Y-16782674D01*
X11598634Y-16782674D02*
X11617682Y-16773150D01*
X11617682Y-16773150D02*
X11655777Y-16773150D01*
X11655777Y-16773150D02*
X11674825Y-16782674D01*
X11751015Y-16982674D02*
X11760539Y-16973150D01*
X11760539Y-16973150D02*
X11779587Y-16944579D01*
X11779587Y-16944579D02*
X11789111Y-16925531D01*
X11789111Y-16925531D02*
X11798634Y-16896960D01*
X11798634Y-16896960D02*
X11808158Y-16849341D01*
X11808158Y-16849341D02*
X11808158Y-16811246D01*
X11808158Y-16811246D02*
X11798634Y-16763627D01*
X11798634Y-16763627D02*
X11789111Y-16735055D01*
X11789111Y-16735055D02*
X11779587Y-16716008D01*
X11779587Y-16716008D02*
X11760539Y-16687436D01*
X11760539Y-16687436D02*
X11751015Y-16677912D01*
M02*
