%TF.GenerationSoftware,KiCad,Pcbnew,8.0.4+1*%
%TF.CreationDate,2024-09-11T08:07:54+08:00*%
%TF.ProjectId,MiniSeq - Panel,4d696e69-5365-4712-902d-2050616e656c,v0.1*%
%TF.SameCoordinates,Original*%
%TF.FileFunction,Drillmap*%
%TF.FilePolarity,Positive*%
%FSLAX45Y45*%
G04 Gerber Fmt 4.5, Leading zero omitted, Abs format (unit mm)*
G04 Created by KiCad (PCBNEW 8.0.4+1) date 2024-09-11 08:07:54*
%MOMM*%
%LPD*%
G01*
G04 APERTURE LIST*
%ADD10C,0.100000*%
%ADD11C,0.200000*%
%ADD12C,0.300000*%
%ADD13C,0.320000*%
%ADD14C,0.600000*%
%ADD15C,0.900000*%
G04 APERTURE END LIST*
D10*
X5000000Y-3000000D02*
X13000000Y-3000000D01*
X13000000Y-15850000D01*
X5000000Y-15850000D01*
X5000000Y-3000000D01*
X5150000Y-11450000D02*
X9100000Y-11450000D01*
X9100000Y-13350000D01*
X5150000Y-13350000D01*
X5150000Y-11450000D01*
D11*
D12*
X5850000Y-6650000D02*
X6150000Y-6950000D01*
X6150000Y-6650000D02*
X5850000Y-6950000D01*
X5850000Y-7150000D02*
X6150000Y-7450000D01*
X6150000Y-7150000D02*
X5850000Y-7450000D01*
X7850000Y-6650000D02*
X8150000Y-6950000D01*
X8150000Y-6650000D02*
X7850000Y-6950000D01*
X7850000Y-7150000D02*
X8150000Y-7450000D01*
X8150000Y-7150000D02*
X7850000Y-7450000D01*
X9850000Y-6650000D02*
X10150000Y-6950000D01*
X10150000Y-6650000D02*
X9850000Y-6950000D01*
X9850000Y-7150000D02*
X10150000Y-7450000D01*
X10150000Y-7150000D02*
X9850000Y-7450000D01*
X11850000Y-6650000D02*
X12150000Y-6950000D01*
X12150000Y-6650000D02*
X11850000Y-6950000D01*
X11850000Y-7150000D02*
X12150000Y-7450000D01*
X12150000Y-7150000D02*
X11850000Y-7450000D01*
D13*
X5910000Y-3300000D02*
G75*
G02*
X5590000Y-3300000I-160000J0D01*
G01*
X5590000Y-3300000D02*
G75*
G02*
X5910000Y-3300000I160000J0D01*
G01*
D10*
X5610000Y-3460000D02*
X5890000Y-3460000D01*
X5890000Y-3140000D02*
G75*
G02*
X5890000Y-3460000I0J-160000D01*
G01*
X5890000Y-3140000D02*
X5610000Y-3140000D01*
X5610000Y-3140000D02*
G75*
G03*
X5610000Y-3460000I0J-160000D01*
G01*
D13*
X5910000Y-15550000D02*
G75*
G02*
X5590000Y-15550000I-160000J0D01*
G01*
X5590000Y-15550000D02*
G75*
G02*
X5910000Y-15550000I160000J0D01*
G01*
D10*
X5610000Y-15710000D02*
X5890000Y-15710000D01*
X5890000Y-15390000D02*
G75*
G02*
X5890000Y-15710000I0J-160000D01*
G01*
X5890000Y-15390000D02*
X5610000Y-15390000D01*
X5610000Y-15390000D02*
G75*
G03*
X5610000Y-15710000I0J-160000D01*
G01*
D13*
X12410000Y-3300000D02*
G75*
G02*
X12090000Y-3300000I-160000J0D01*
G01*
X12090000Y-3300000D02*
G75*
G02*
X12410000Y-3300000I160000J0D01*
G01*
D10*
X12110000Y-3460000D02*
X12390000Y-3460000D01*
X12390000Y-3140000D02*
G75*
G02*
X12390000Y-3460000I0J-160000D01*
G01*
X12390000Y-3140000D02*
X12110000Y-3140000D01*
X12110000Y-3140000D02*
G75*
G03*
X12110000Y-3460000I0J-160000D01*
G01*
D13*
X12410000Y-15550000D02*
G75*
G02*
X12090000Y-15550000I-160000J0D01*
G01*
X12090000Y-15550000D02*
G75*
G02*
X12410000Y-15550000I160000J0D01*
G01*
D10*
X12110000Y-15710000D02*
X12390000Y-15710000D01*
X12390000Y-15390000D02*
G75*
G02*
X12390000Y-15710000I0J-160000D01*
G01*
X12390000Y-15390000D02*
X12110000Y-15390000D01*
X12110000Y-15390000D02*
G75*
G03*
X12110000Y-15710000I0J-160000D01*
G01*
D14*
X6000000Y-4050000D02*
X6000000Y-4650000D01*
X5700000Y-4350000D02*
X6300000Y-4350000D01*
X6000000Y-9450000D02*
X6000000Y-10050000D01*
X5700000Y-9750000D02*
X6300000Y-9750000D01*
X8000000Y-4050000D02*
X8000000Y-4650000D01*
X7700000Y-4350000D02*
X8300000Y-4350000D01*
X8000000Y-9450000D02*
X8000000Y-10050000D01*
X7700000Y-9750000D02*
X8300000Y-9750000D01*
X10000000Y-4050000D02*
X10000000Y-4650000D01*
X9700000Y-4350000D02*
X10300000Y-4350000D01*
X10000000Y-9450000D02*
X10000000Y-10050000D01*
X9700000Y-9750000D02*
X10300000Y-9750000D01*
X12000000Y-4050000D02*
X12000000Y-4650000D01*
X11700000Y-4350000D02*
X12300000Y-4350000D01*
X12000000Y-9450000D02*
X12000000Y-10050000D01*
X11700000Y-9750000D02*
X12300000Y-9750000D01*
D15*
X10718201Y-12318201D02*
X10718201Y-11681799D01*
X10081799Y-11681799D01*
X10081799Y-12318201D01*
X10718201Y-12318201D01*
D11*
X5255777Y-16166484D02*
X5255777Y-15966484D01*
X5255777Y-15966484D02*
X5303396Y-15966484D01*
X5303396Y-15966484D02*
X5331967Y-15976008D01*
X5331967Y-15976008D02*
X5351015Y-15995055D01*
X5351015Y-15995055D02*
X5360539Y-16014103D01*
X5360539Y-16014103D02*
X5370063Y-16052198D01*
X5370063Y-16052198D02*
X5370063Y-16080769D01*
X5370063Y-16080769D02*
X5360539Y-16118865D01*
X5360539Y-16118865D02*
X5351015Y-16137912D01*
X5351015Y-16137912D02*
X5331967Y-16156960D01*
X5331967Y-16156960D02*
X5303396Y-16166484D01*
X5303396Y-16166484D02*
X5255777Y-16166484D01*
X5455777Y-16166484D02*
X5455777Y-16033150D01*
X5455777Y-16071246D02*
X5465301Y-16052198D01*
X5465301Y-16052198D02*
X5474824Y-16042674D01*
X5474824Y-16042674D02*
X5493872Y-16033150D01*
X5493872Y-16033150D02*
X5512920Y-16033150D01*
X5579586Y-16166484D02*
X5579586Y-16033150D01*
X5579586Y-15966484D02*
X5570063Y-15976008D01*
X5570063Y-15976008D02*
X5579586Y-15985531D01*
X5579586Y-15985531D02*
X5589110Y-15976008D01*
X5589110Y-15976008D02*
X5579586Y-15966484D01*
X5579586Y-15966484D02*
X5579586Y-15985531D01*
X5703396Y-16166484D02*
X5684348Y-16156960D01*
X5684348Y-16156960D02*
X5674824Y-16137912D01*
X5674824Y-16137912D02*
X5674824Y-15966484D01*
X5808158Y-16166484D02*
X5789110Y-16156960D01*
X5789110Y-16156960D02*
X5779586Y-16137912D01*
X5779586Y-16137912D02*
X5779586Y-15966484D01*
X6036729Y-16166484D02*
X6036729Y-15966484D01*
X6036729Y-15966484D02*
X6103396Y-16109341D01*
X6103396Y-16109341D02*
X6170062Y-15966484D01*
X6170062Y-15966484D02*
X6170062Y-16166484D01*
X6351015Y-16166484D02*
X6351015Y-16061722D01*
X6351015Y-16061722D02*
X6341491Y-16042674D01*
X6341491Y-16042674D02*
X6322443Y-16033150D01*
X6322443Y-16033150D02*
X6284348Y-16033150D01*
X6284348Y-16033150D02*
X6265301Y-16042674D01*
X6351015Y-16156960D02*
X6331967Y-16166484D01*
X6331967Y-16166484D02*
X6284348Y-16166484D01*
X6284348Y-16166484D02*
X6265301Y-16156960D01*
X6265301Y-16156960D02*
X6255777Y-16137912D01*
X6255777Y-16137912D02*
X6255777Y-16118865D01*
X6255777Y-16118865D02*
X6265301Y-16099817D01*
X6265301Y-16099817D02*
X6284348Y-16090293D01*
X6284348Y-16090293D02*
X6331967Y-16090293D01*
X6331967Y-16090293D02*
X6351015Y-16080769D01*
X6446253Y-16033150D02*
X6446253Y-16233150D01*
X6446253Y-16042674D02*
X6465301Y-16033150D01*
X6465301Y-16033150D02*
X6503396Y-16033150D01*
X6503396Y-16033150D02*
X6522443Y-16042674D01*
X6522443Y-16042674D02*
X6531967Y-16052198D01*
X6531967Y-16052198D02*
X6541491Y-16071246D01*
X6541491Y-16071246D02*
X6541491Y-16128388D01*
X6541491Y-16128388D02*
X6531967Y-16147436D01*
X6531967Y-16147436D02*
X6522443Y-16156960D01*
X6522443Y-16156960D02*
X6503396Y-16166484D01*
X6503396Y-16166484D02*
X6465301Y-16166484D01*
X6465301Y-16166484D02*
X6446253Y-16156960D01*
X6627205Y-16147436D02*
X6636729Y-16156960D01*
X6636729Y-16156960D02*
X6627205Y-16166484D01*
X6627205Y-16166484D02*
X6617682Y-16156960D01*
X6617682Y-16156960D02*
X6627205Y-16147436D01*
X6627205Y-16147436D02*
X6627205Y-16166484D01*
X6627205Y-16042674D02*
X6636729Y-16052198D01*
X6636729Y-16052198D02*
X6627205Y-16061722D01*
X6627205Y-16061722D02*
X6617682Y-16052198D01*
X6617682Y-16052198D02*
X6627205Y-16042674D01*
X6627205Y-16042674D02*
X6627205Y-16061722D01*
X4795000Y-16395000D02*
X4995000Y-16595000D01*
X4995000Y-16395000D02*
X4795000Y-16595000D01*
X5236729Y-16386484D02*
X5360539Y-16386484D01*
X5360539Y-16386484D02*
X5293872Y-16462674D01*
X5293872Y-16462674D02*
X5322444Y-16462674D01*
X5322444Y-16462674D02*
X5341491Y-16472198D01*
X5341491Y-16472198D02*
X5351015Y-16481722D01*
X5351015Y-16481722D02*
X5360539Y-16500769D01*
X5360539Y-16500769D02*
X5360539Y-16548388D01*
X5360539Y-16548388D02*
X5351015Y-16567436D01*
X5351015Y-16567436D02*
X5341491Y-16576960D01*
X5341491Y-16576960D02*
X5322444Y-16586484D01*
X5322444Y-16586484D02*
X5265301Y-16586484D01*
X5265301Y-16586484D02*
X5246253Y-16576960D01*
X5246253Y-16576960D02*
X5236729Y-16567436D01*
X5446253Y-16567436D02*
X5455777Y-16576960D01*
X5455777Y-16576960D02*
X5446253Y-16586484D01*
X5446253Y-16586484D02*
X5436729Y-16576960D01*
X5436729Y-16576960D02*
X5446253Y-16567436D01*
X5446253Y-16567436D02*
X5446253Y-16586484D01*
X5579586Y-16386484D02*
X5598634Y-16386484D01*
X5598634Y-16386484D02*
X5617682Y-16396008D01*
X5617682Y-16396008D02*
X5627205Y-16405531D01*
X5627205Y-16405531D02*
X5636729Y-16424579D01*
X5636729Y-16424579D02*
X5646253Y-16462674D01*
X5646253Y-16462674D02*
X5646253Y-16510293D01*
X5646253Y-16510293D02*
X5636729Y-16548388D01*
X5636729Y-16548388D02*
X5627205Y-16567436D01*
X5627205Y-16567436D02*
X5617682Y-16576960D01*
X5617682Y-16576960D02*
X5598634Y-16586484D01*
X5598634Y-16586484D02*
X5579586Y-16586484D01*
X5579586Y-16586484D02*
X5560539Y-16576960D01*
X5560539Y-16576960D02*
X5551015Y-16567436D01*
X5551015Y-16567436D02*
X5541491Y-16548388D01*
X5541491Y-16548388D02*
X5531967Y-16510293D01*
X5531967Y-16510293D02*
X5531967Y-16462674D01*
X5531967Y-16462674D02*
X5541491Y-16424579D01*
X5541491Y-16424579D02*
X5551015Y-16405531D01*
X5551015Y-16405531D02*
X5560539Y-16396008D01*
X5560539Y-16396008D02*
X5579586Y-16386484D01*
X5770062Y-16386484D02*
X5789110Y-16386484D01*
X5789110Y-16386484D02*
X5808158Y-16396008D01*
X5808158Y-16396008D02*
X5817682Y-16405531D01*
X5817682Y-16405531D02*
X5827205Y-16424579D01*
X5827205Y-16424579D02*
X5836729Y-16462674D01*
X5836729Y-16462674D02*
X5836729Y-16510293D01*
X5836729Y-16510293D02*
X5827205Y-16548388D01*
X5827205Y-16548388D02*
X5817682Y-16567436D01*
X5817682Y-16567436D02*
X5808158Y-16576960D01*
X5808158Y-16576960D02*
X5789110Y-16586484D01*
X5789110Y-16586484D02*
X5770062Y-16586484D01*
X5770062Y-16586484D02*
X5751015Y-16576960D01*
X5751015Y-16576960D02*
X5741491Y-16567436D01*
X5741491Y-16567436D02*
X5731967Y-16548388D01*
X5731967Y-16548388D02*
X5722443Y-16510293D01*
X5722443Y-16510293D02*
X5722443Y-16462674D01*
X5722443Y-16462674D02*
X5731967Y-16424579D01*
X5731967Y-16424579D02*
X5741491Y-16405531D01*
X5741491Y-16405531D02*
X5751015Y-16396008D01*
X5751015Y-16396008D02*
X5770062Y-16386484D01*
X5960539Y-16386484D02*
X5979586Y-16386484D01*
X5979586Y-16386484D02*
X5998634Y-16396008D01*
X5998634Y-16396008D02*
X6008158Y-16405531D01*
X6008158Y-16405531D02*
X6017682Y-16424579D01*
X6017682Y-16424579D02*
X6027205Y-16462674D01*
X6027205Y-16462674D02*
X6027205Y-16510293D01*
X6027205Y-16510293D02*
X6017682Y-16548388D01*
X6017682Y-16548388D02*
X6008158Y-16567436D01*
X6008158Y-16567436D02*
X5998634Y-16576960D01*
X5998634Y-16576960D02*
X5979586Y-16586484D01*
X5979586Y-16586484D02*
X5960539Y-16586484D01*
X5960539Y-16586484D02*
X5941491Y-16576960D01*
X5941491Y-16576960D02*
X5931967Y-16567436D01*
X5931967Y-16567436D02*
X5922443Y-16548388D01*
X5922443Y-16548388D02*
X5912920Y-16510293D01*
X5912920Y-16510293D02*
X5912920Y-16462674D01*
X5912920Y-16462674D02*
X5922443Y-16424579D01*
X5922443Y-16424579D02*
X5931967Y-16405531D01*
X5931967Y-16405531D02*
X5941491Y-16396008D01*
X5941491Y-16396008D02*
X5960539Y-16386484D01*
X6112920Y-16586484D02*
X6112920Y-16453150D01*
X6112920Y-16472198D02*
X6122443Y-16462674D01*
X6122443Y-16462674D02*
X6141491Y-16453150D01*
X6141491Y-16453150D02*
X6170063Y-16453150D01*
X6170063Y-16453150D02*
X6189110Y-16462674D01*
X6189110Y-16462674D02*
X6198634Y-16481722D01*
X6198634Y-16481722D02*
X6198634Y-16586484D01*
X6198634Y-16481722D02*
X6208158Y-16462674D01*
X6208158Y-16462674D02*
X6227205Y-16453150D01*
X6227205Y-16453150D02*
X6255777Y-16453150D01*
X6255777Y-16453150D02*
X6274824Y-16462674D01*
X6274824Y-16462674D02*
X6284348Y-16481722D01*
X6284348Y-16481722D02*
X6284348Y-16586484D01*
X6379586Y-16586484D02*
X6379586Y-16453150D01*
X6379586Y-16472198D02*
X6389110Y-16462674D01*
X6389110Y-16462674D02*
X6408158Y-16453150D01*
X6408158Y-16453150D02*
X6436729Y-16453150D01*
X6436729Y-16453150D02*
X6455777Y-16462674D01*
X6455777Y-16462674D02*
X6465301Y-16481722D01*
X6465301Y-16481722D02*
X6465301Y-16586484D01*
X6465301Y-16481722D02*
X6474824Y-16462674D01*
X6474824Y-16462674D02*
X6493872Y-16453150D01*
X6493872Y-16453150D02*
X6522443Y-16453150D01*
X6522443Y-16453150D02*
X6541491Y-16462674D01*
X6541491Y-16462674D02*
X6551015Y-16481722D01*
X6551015Y-16481722D02*
X6551015Y-16586484D01*
X6941491Y-16376960D02*
X6770063Y-16634103D01*
X7198634Y-16386484D02*
X7217682Y-16386484D01*
X7217682Y-16386484D02*
X7236729Y-16396008D01*
X7236729Y-16396008D02*
X7246253Y-16405531D01*
X7246253Y-16405531D02*
X7255777Y-16424579D01*
X7255777Y-16424579D02*
X7265301Y-16462674D01*
X7265301Y-16462674D02*
X7265301Y-16510293D01*
X7265301Y-16510293D02*
X7255777Y-16548388D01*
X7255777Y-16548388D02*
X7246253Y-16567436D01*
X7246253Y-16567436D02*
X7236729Y-16576960D01*
X7236729Y-16576960D02*
X7217682Y-16586484D01*
X7217682Y-16586484D02*
X7198634Y-16586484D01*
X7198634Y-16586484D02*
X7179586Y-16576960D01*
X7179586Y-16576960D02*
X7170063Y-16567436D01*
X7170063Y-16567436D02*
X7160539Y-16548388D01*
X7160539Y-16548388D02*
X7151015Y-16510293D01*
X7151015Y-16510293D02*
X7151015Y-16462674D01*
X7151015Y-16462674D02*
X7160539Y-16424579D01*
X7160539Y-16424579D02*
X7170063Y-16405531D01*
X7170063Y-16405531D02*
X7179586Y-16396008D01*
X7179586Y-16396008D02*
X7198634Y-16386484D01*
X7351015Y-16567436D02*
X7360539Y-16576960D01*
X7360539Y-16576960D02*
X7351015Y-16586484D01*
X7351015Y-16586484D02*
X7341491Y-16576960D01*
X7341491Y-16576960D02*
X7351015Y-16567436D01*
X7351015Y-16567436D02*
X7351015Y-16586484D01*
X7551015Y-16586484D02*
X7436729Y-16586484D01*
X7493872Y-16586484D02*
X7493872Y-16386484D01*
X7493872Y-16386484D02*
X7474825Y-16415055D01*
X7474825Y-16415055D02*
X7455777Y-16434103D01*
X7455777Y-16434103D02*
X7436729Y-16443627D01*
X7741491Y-16586484D02*
X7627206Y-16586484D01*
X7684348Y-16586484D02*
X7684348Y-16386484D01*
X7684348Y-16386484D02*
X7665301Y-16415055D01*
X7665301Y-16415055D02*
X7646253Y-16434103D01*
X7646253Y-16434103D02*
X7627206Y-16443627D01*
X7855777Y-16472198D02*
X7836729Y-16462674D01*
X7836729Y-16462674D02*
X7827206Y-16453150D01*
X7827206Y-16453150D02*
X7817682Y-16434103D01*
X7817682Y-16434103D02*
X7817682Y-16424579D01*
X7817682Y-16424579D02*
X7827206Y-16405531D01*
X7827206Y-16405531D02*
X7836729Y-16396008D01*
X7836729Y-16396008D02*
X7855777Y-16386484D01*
X7855777Y-16386484D02*
X7893872Y-16386484D01*
X7893872Y-16386484D02*
X7912920Y-16396008D01*
X7912920Y-16396008D02*
X7922444Y-16405531D01*
X7922444Y-16405531D02*
X7931967Y-16424579D01*
X7931967Y-16424579D02*
X7931967Y-16434103D01*
X7931967Y-16434103D02*
X7922444Y-16453150D01*
X7922444Y-16453150D02*
X7912920Y-16462674D01*
X7912920Y-16462674D02*
X7893872Y-16472198D01*
X7893872Y-16472198D02*
X7855777Y-16472198D01*
X7855777Y-16472198D02*
X7836729Y-16481722D01*
X7836729Y-16481722D02*
X7827206Y-16491246D01*
X7827206Y-16491246D02*
X7817682Y-16510293D01*
X7817682Y-16510293D02*
X7817682Y-16548388D01*
X7817682Y-16548388D02*
X7827206Y-16567436D01*
X7827206Y-16567436D02*
X7836729Y-16576960D01*
X7836729Y-16576960D02*
X7855777Y-16586484D01*
X7855777Y-16586484D02*
X7893872Y-16586484D01*
X7893872Y-16586484D02*
X7912920Y-16576960D01*
X7912920Y-16576960D02*
X7922444Y-16567436D01*
X7922444Y-16567436D02*
X7931967Y-16548388D01*
X7931967Y-16548388D02*
X7931967Y-16510293D01*
X7931967Y-16510293D02*
X7922444Y-16491246D01*
X7922444Y-16491246D02*
X7912920Y-16481722D01*
X7912920Y-16481722D02*
X7893872Y-16472198D01*
X8122444Y-16586484D02*
X8008158Y-16586484D01*
X8065301Y-16586484D02*
X8065301Y-16386484D01*
X8065301Y-16386484D02*
X8046253Y-16415055D01*
X8046253Y-16415055D02*
X8027206Y-16434103D01*
X8027206Y-16434103D02*
X8008158Y-16443627D01*
X8198634Y-16386484D02*
X8198634Y-16424579D01*
X8274825Y-16386484D02*
X8274825Y-16424579D01*
X8570063Y-16662674D02*
X8560539Y-16653150D01*
X8560539Y-16653150D02*
X8541491Y-16624579D01*
X8541491Y-16624579D02*
X8531968Y-16605531D01*
X8531968Y-16605531D02*
X8522444Y-16576960D01*
X8522444Y-16576960D02*
X8512920Y-16529341D01*
X8512920Y-16529341D02*
X8512920Y-16491246D01*
X8512920Y-16491246D02*
X8522444Y-16443627D01*
X8522444Y-16443627D02*
X8531968Y-16415055D01*
X8531968Y-16415055D02*
X8541491Y-16396008D01*
X8541491Y-16396008D02*
X8560539Y-16367436D01*
X8560539Y-16367436D02*
X8570063Y-16357912D01*
X8674825Y-16472198D02*
X8655777Y-16462674D01*
X8655777Y-16462674D02*
X8646253Y-16453150D01*
X8646253Y-16453150D02*
X8636730Y-16434103D01*
X8636730Y-16434103D02*
X8636730Y-16424579D01*
X8636730Y-16424579D02*
X8646253Y-16405531D01*
X8646253Y-16405531D02*
X8655777Y-16396008D01*
X8655777Y-16396008D02*
X8674825Y-16386484D01*
X8674825Y-16386484D02*
X8712920Y-16386484D01*
X8712920Y-16386484D02*
X8731968Y-16396008D01*
X8731968Y-16396008D02*
X8741491Y-16405531D01*
X8741491Y-16405531D02*
X8751015Y-16424579D01*
X8751015Y-16424579D02*
X8751015Y-16434103D01*
X8751015Y-16434103D02*
X8741491Y-16453150D01*
X8741491Y-16453150D02*
X8731968Y-16462674D01*
X8731968Y-16462674D02*
X8712920Y-16472198D01*
X8712920Y-16472198D02*
X8674825Y-16472198D01*
X8674825Y-16472198D02*
X8655777Y-16481722D01*
X8655777Y-16481722D02*
X8646253Y-16491246D01*
X8646253Y-16491246D02*
X8636730Y-16510293D01*
X8636730Y-16510293D02*
X8636730Y-16548388D01*
X8636730Y-16548388D02*
X8646253Y-16567436D01*
X8646253Y-16567436D02*
X8655777Y-16576960D01*
X8655777Y-16576960D02*
X8674825Y-16586484D01*
X8674825Y-16586484D02*
X8712920Y-16586484D01*
X8712920Y-16586484D02*
X8731968Y-16576960D01*
X8731968Y-16576960D02*
X8741491Y-16567436D01*
X8741491Y-16567436D02*
X8751015Y-16548388D01*
X8751015Y-16548388D02*
X8751015Y-16510293D01*
X8751015Y-16510293D02*
X8741491Y-16491246D01*
X8741491Y-16491246D02*
X8731968Y-16481722D01*
X8731968Y-16481722D02*
X8712920Y-16472198D01*
X8989111Y-16586484D02*
X8989111Y-16386484D01*
X9074825Y-16586484D02*
X9074825Y-16481722D01*
X9074825Y-16481722D02*
X9065301Y-16462674D01*
X9065301Y-16462674D02*
X9046253Y-16453150D01*
X9046253Y-16453150D02*
X9017682Y-16453150D01*
X9017682Y-16453150D02*
X8998634Y-16462674D01*
X8998634Y-16462674D02*
X8989111Y-16472198D01*
X9198634Y-16586484D02*
X9179587Y-16576960D01*
X9179587Y-16576960D02*
X9170063Y-16567436D01*
X9170063Y-16567436D02*
X9160539Y-16548388D01*
X9160539Y-16548388D02*
X9160539Y-16491246D01*
X9160539Y-16491246D02*
X9170063Y-16472198D01*
X9170063Y-16472198D02*
X9179587Y-16462674D01*
X9179587Y-16462674D02*
X9198634Y-16453150D01*
X9198634Y-16453150D02*
X9227206Y-16453150D01*
X9227206Y-16453150D02*
X9246253Y-16462674D01*
X9246253Y-16462674D02*
X9255777Y-16472198D01*
X9255777Y-16472198D02*
X9265301Y-16491246D01*
X9265301Y-16491246D02*
X9265301Y-16548388D01*
X9265301Y-16548388D02*
X9255777Y-16567436D01*
X9255777Y-16567436D02*
X9246253Y-16576960D01*
X9246253Y-16576960D02*
X9227206Y-16586484D01*
X9227206Y-16586484D02*
X9198634Y-16586484D01*
X9379587Y-16586484D02*
X9360539Y-16576960D01*
X9360539Y-16576960D02*
X9351015Y-16557912D01*
X9351015Y-16557912D02*
X9351015Y-16386484D01*
X9531968Y-16576960D02*
X9512920Y-16586484D01*
X9512920Y-16586484D02*
X9474825Y-16586484D01*
X9474825Y-16586484D02*
X9455777Y-16576960D01*
X9455777Y-16576960D02*
X9446253Y-16557912D01*
X9446253Y-16557912D02*
X9446253Y-16481722D01*
X9446253Y-16481722D02*
X9455777Y-16462674D01*
X9455777Y-16462674D02*
X9474825Y-16453150D01*
X9474825Y-16453150D02*
X9512920Y-16453150D01*
X9512920Y-16453150D02*
X9531968Y-16462674D01*
X9531968Y-16462674D02*
X9541492Y-16481722D01*
X9541492Y-16481722D02*
X9541492Y-16500769D01*
X9541492Y-16500769D02*
X9446253Y-16519817D01*
X9617682Y-16576960D02*
X9636730Y-16586484D01*
X9636730Y-16586484D02*
X9674825Y-16586484D01*
X9674825Y-16586484D02*
X9693873Y-16576960D01*
X9693873Y-16576960D02*
X9703396Y-16557912D01*
X9703396Y-16557912D02*
X9703396Y-16548388D01*
X9703396Y-16548388D02*
X9693873Y-16529341D01*
X9693873Y-16529341D02*
X9674825Y-16519817D01*
X9674825Y-16519817D02*
X9646253Y-16519817D01*
X9646253Y-16519817D02*
X9627206Y-16510293D01*
X9627206Y-16510293D02*
X9617682Y-16491246D01*
X9617682Y-16491246D02*
X9617682Y-16481722D01*
X9617682Y-16481722D02*
X9627206Y-16462674D01*
X9627206Y-16462674D02*
X9646253Y-16453150D01*
X9646253Y-16453150D02*
X9674825Y-16453150D01*
X9674825Y-16453150D02*
X9693873Y-16462674D01*
X9770063Y-16662674D02*
X9779587Y-16653150D01*
X9779587Y-16653150D02*
X9798634Y-16624579D01*
X9798634Y-16624579D02*
X9808158Y-16605531D01*
X9808158Y-16605531D02*
X9817682Y-16576960D01*
X9817682Y-16576960D02*
X9827206Y-16529341D01*
X9827206Y-16529341D02*
X9827206Y-16491246D01*
X9827206Y-16491246D02*
X9817682Y-16443627D01*
X9817682Y-16443627D02*
X9808158Y-16415055D01*
X9808158Y-16415055D02*
X9798634Y-16396008D01*
X9798634Y-16396008D02*
X9779587Y-16367436D01*
X9779587Y-16367436D02*
X9770063Y-16357912D01*
X4995000Y-16815000D02*
G75*
G02*
X4795000Y-16815000I-100000J0D01*
G01*
X4795000Y-16815000D02*
G75*
G02*
X4995000Y-16815000I100000J0D01*
G01*
X5236729Y-16706484D02*
X5360539Y-16706484D01*
X5360539Y-16706484D02*
X5293872Y-16782674D01*
X5293872Y-16782674D02*
X5322444Y-16782674D01*
X5322444Y-16782674D02*
X5341491Y-16792198D01*
X5341491Y-16792198D02*
X5351015Y-16801722D01*
X5351015Y-16801722D02*
X5360539Y-16820770D01*
X5360539Y-16820770D02*
X5360539Y-16868389D01*
X5360539Y-16868389D02*
X5351015Y-16887436D01*
X5351015Y-16887436D02*
X5341491Y-16896960D01*
X5341491Y-16896960D02*
X5322444Y-16906484D01*
X5322444Y-16906484D02*
X5265301Y-16906484D01*
X5265301Y-16906484D02*
X5246253Y-16896960D01*
X5246253Y-16896960D02*
X5236729Y-16887436D01*
X5446253Y-16887436D02*
X5455777Y-16896960D01*
X5455777Y-16896960D02*
X5446253Y-16906484D01*
X5446253Y-16906484D02*
X5436729Y-16896960D01*
X5436729Y-16896960D02*
X5446253Y-16887436D01*
X5446253Y-16887436D02*
X5446253Y-16906484D01*
X5531967Y-16725531D02*
X5541491Y-16716008D01*
X5541491Y-16716008D02*
X5560539Y-16706484D01*
X5560539Y-16706484D02*
X5608158Y-16706484D01*
X5608158Y-16706484D02*
X5627205Y-16716008D01*
X5627205Y-16716008D02*
X5636729Y-16725531D01*
X5636729Y-16725531D02*
X5646253Y-16744579D01*
X5646253Y-16744579D02*
X5646253Y-16763627D01*
X5646253Y-16763627D02*
X5636729Y-16792198D01*
X5636729Y-16792198D02*
X5522444Y-16906484D01*
X5522444Y-16906484D02*
X5646253Y-16906484D01*
X5770062Y-16706484D02*
X5789110Y-16706484D01*
X5789110Y-16706484D02*
X5808158Y-16716008D01*
X5808158Y-16716008D02*
X5817682Y-16725531D01*
X5817682Y-16725531D02*
X5827205Y-16744579D01*
X5827205Y-16744579D02*
X5836729Y-16782674D01*
X5836729Y-16782674D02*
X5836729Y-16830293D01*
X5836729Y-16830293D02*
X5827205Y-16868389D01*
X5827205Y-16868389D02*
X5817682Y-16887436D01*
X5817682Y-16887436D02*
X5808158Y-16896960D01*
X5808158Y-16896960D02*
X5789110Y-16906484D01*
X5789110Y-16906484D02*
X5770062Y-16906484D01*
X5770062Y-16906484D02*
X5751015Y-16896960D01*
X5751015Y-16896960D02*
X5741491Y-16887436D01*
X5741491Y-16887436D02*
X5731967Y-16868389D01*
X5731967Y-16868389D02*
X5722443Y-16830293D01*
X5722443Y-16830293D02*
X5722443Y-16782674D01*
X5722443Y-16782674D02*
X5731967Y-16744579D01*
X5731967Y-16744579D02*
X5741491Y-16725531D01*
X5741491Y-16725531D02*
X5751015Y-16716008D01*
X5751015Y-16716008D02*
X5770062Y-16706484D01*
X5960539Y-16706484D02*
X5979586Y-16706484D01*
X5979586Y-16706484D02*
X5998634Y-16716008D01*
X5998634Y-16716008D02*
X6008158Y-16725531D01*
X6008158Y-16725531D02*
X6017682Y-16744579D01*
X6017682Y-16744579D02*
X6027205Y-16782674D01*
X6027205Y-16782674D02*
X6027205Y-16830293D01*
X6027205Y-16830293D02*
X6017682Y-16868389D01*
X6017682Y-16868389D02*
X6008158Y-16887436D01*
X6008158Y-16887436D02*
X5998634Y-16896960D01*
X5998634Y-16896960D02*
X5979586Y-16906484D01*
X5979586Y-16906484D02*
X5960539Y-16906484D01*
X5960539Y-16906484D02*
X5941491Y-16896960D01*
X5941491Y-16896960D02*
X5931967Y-16887436D01*
X5931967Y-16887436D02*
X5922443Y-16868389D01*
X5922443Y-16868389D02*
X5912920Y-16830293D01*
X5912920Y-16830293D02*
X5912920Y-16782674D01*
X5912920Y-16782674D02*
X5922443Y-16744579D01*
X5922443Y-16744579D02*
X5931967Y-16725531D01*
X5931967Y-16725531D02*
X5941491Y-16716008D01*
X5941491Y-16716008D02*
X5960539Y-16706484D01*
X6112920Y-16906484D02*
X6112920Y-16773150D01*
X6112920Y-16792198D02*
X6122443Y-16782674D01*
X6122443Y-16782674D02*
X6141491Y-16773150D01*
X6141491Y-16773150D02*
X6170063Y-16773150D01*
X6170063Y-16773150D02*
X6189110Y-16782674D01*
X6189110Y-16782674D02*
X6198634Y-16801722D01*
X6198634Y-16801722D02*
X6198634Y-16906484D01*
X6198634Y-16801722D02*
X6208158Y-16782674D01*
X6208158Y-16782674D02*
X6227205Y-16773150D01*
X6227205Y-16773150D02*
X6255777Y-16773150D01*
X6255777Y-16773150D02*
X6274824Y-16782674D01*
X6274824Y-16782674D02*
X6284348Y-16801722D01*
X6284348Y-16801722D02*
X6284348Y-16906484D01*
X6379586Y-16906484D02*
X6379586Y-16773150D01*
X6379586Y-16792198D02*
X6389110Y-16782674D01*
X6389110Y-16782674D02*
X6408158Y-16773150D01*
X6408158Y-16773150D02*
X6436729Y-16773150D01*
X6436729Y-16773150D02*
X6455777Y-16782674D01*
X6455777Y-16782674D02*
X6465301Y-16801722D01*
X6465301Y-16801722D02*
X6465301Y-16906484D01*
X6465301Y-16801722D02*
X6474824Y-16782674D01*
X6474824Y-16782674D02*
X6493872Y-16773150D01*
X6493872Y-16773150D02*
X6522443Y-16773150D01*
X6522443Y-16773150D02*
X6541491Y-16782674D01*
X6541491Y-16782674D02*
X6551015Y-16801722D01*
X6551015Y-16801722D02*
X6551015Y-16906484D01*
X6941491Y-16696960D02*
X6770063Y-16954103D01*
X7198634Y-16706484D02*
X7217682Y-16706484D01*
X7217682Y-16706484D02*
X7236729Y-16716008D01*
X7236729Y-16716008D02*
X7246253Y-16725531D01*
X7246253Y-16725531D02*
X7255777Y-16744579D01*
X7255777Y-16744579D02*
X7265301Y-16782674D01*
X7265301Y-16782674D02*
X7265301Y-16830293D01*
X7265301Y-16830293D02*
X7255777Y-16868389D01*
X7255777Y-16868389D02*
X7246253Y-16887436D01*
X7246253Y-16887436D02*
X7236729Y-16896960D01*
X7236729Y-16896960D02*
X7217682Y-16906484D01*
X7217682Y-16906484D02*
X7198634Y-16906484D01*
X7198634Y-16906484D02*
X7179586Y-16896960D01*
X7179586Y-16896960D02*
X7170063Y-16887436D01*
X7170063Y-16887436D02*
X7160539Y-16868389D01*
X7160539Y-16868389D02*
X7151015Y-16830293D01*
X7151015Y-16830293D02*
X7151015Y-16782674D01*
X7151015Y-16782674D02*
X7160539Y-16744579D01*
X7160539Y-16744579D02*
X7170063Y-16725531D01*
X7170063Y-16725531D02*
X7179586Y-16716008D01*
X7179586Y-16716008D02*
X7198634Y-16706484D01*
X7351015Y-16887436D02*
X7360539Y-16896960D01*
X7360539Y-16896960D02*
X7351015Y-16906484D01*
X7351015Y-16906484D02*
X7341491Y-16896960D01*
X7341491Y-16896960D02*
X7351015Y-16887436D01*
X7351015Y-16887436D02*
X7351015Y-16906484D01*
X7551015Y-16906484D02*
X7436729Y-16906484D01*
X7493872Y-16906484D02*
X7493872Y-16706484D01*
X7493872Y-16706484D02*
X7474825Y-16735055D01*
X7474825Y-16735055D02*
X7455777Y-16754103D01*
X7455777Y-16754103D02*
X7436729Y-16763627D01*
X7627206Y-16725531D02*
X7636729Y-16716008D01*
X7636729Y-16716008D02*
X7655777Y-16706484D01*
X7655777Y-16706484D02*
X7703396Y-16706484D01*
X7703396Y-16706484D02*
X7722444Y-16716008D01*
X7722444Y-16716008D02*
X7731967Y-16725531D01*
X7731967Y-16725531D02*
X7741491Y-16744579D01*
X7741491Y-16744579D02*
X7741491Y-16763627D01*
X7741491Y-16763627D02*
X7731967Y-16792198D01*
X7731967Y-16792198D02*
X7617682Y-16906484D01*
X7617682Y-16906484D02*
X7741491Y-16906484D01*
X7912920Y-16706484D02*
X7874825Y-16706484D01*
X7874825Y-16706484D02*
X7855777Y-16716008D01*
X7855777Y-16716008D02*
X7846253Y-16725531D01*
X7846253Y-16725531D02*
X7827206Y-16754103D01*
X7827206Y-16754103D02*
X7817682Y-16792198D01*
X7817682Y-16792198D02*
X7817682Y-16868389D01*
X7817682Y-16868389D02*
X7827206Y-16887436D01*
X7827206Y-16887436D02*
X7836729Y-16896960D01*
X7836729Y-16896960D02*
X7855777Y-16906484D01*
X7855777Y-16906484D02*
X7893872Y-16906484D01*
X7893872Y-16906484D02*
X7912920Y-16896960D01*
X7912920Y-16896960D02*
X7922444Y-16887436D01*
X7922444Y-16887436D02*
X7931967Y-16868389D01*
X7931967Y-16868389D02*
X7931967Y-16820770D01*
X7931967Y-16820770D02*
X7922444Y-16801722D01*
X7922444Y-16801722D02*
X7912920Y-16792198D01*
X7912920Y-16792198D02*
X7893872Y-16782674D01*
X7893872Y-16782674D02*
X7855777Y-16782674D01*
X7855777Y-16782674D02*
X7836729Y-16792198D01*
X7836729Y-16792198D02*
X7827206Y-16801722D01*
X7827206Y-16801722D02*
X7817682Y-16820770D01*
X8055777Y-16706484D02*
X8074825Y-16706484D01*
X8074825Y-16706484D02*
X8093872Y-16716008D01*
X8093872Y-16716008D02*
X8103396Y-16725531D01*
X8103396Y-16725531D02*
X8112920Y-16744579D01*
X8112920Y-16744579D02*
X8122444Y-16782674D01*
X8122444Y-16782674D02*
X8122444Y-16830293D01*
X8122444Y-16830293D02*
X8112920Y-16868389D01*
X8112920Y-16868389D02*
X8103396Y-16887436D01*
X8103396Y-16887436D02*
X8093872Y-16896960D01*
X8093872Y-16896960D02*
X8074825Y-16906484D01*
X8074825Y-16906484D02*
X8055777Y-16906484D01*
X8055777Y-16906484D02*
X8036729Y-16896960D01*
X8036729Y-16896960D02*
X8027206Y-16887436D01*
X8027206Y-16887436D02*
X8017682Y-16868389D01*
X8017682Y-16868389D02*
X8008158Y-16830293D01*
X8008158Y-16830293D02*
X8008158Y-16782674D01*
X8008158Y-16782674D02*
X8017682Y-16744579D01*
X8017682Y-16744579D02*
X8027206Y-16725531D01*
X8027206Y-16725531D02*
X8036729Y-16716008D01*
X8036729Y-16716008D02*
X8055777Y-16706484D01*
X8198634Y-16706484D02*
X8198634Y-16744579D01*
X8274825Y-16706484D02*
X8274825Y-16744579D01*
X8570063Y-16982674D02*
X8560539Y-16973150D01*
X8560539Y-16973150D02*
X8541491Y-16944579D01*
X8541491Y-16944579D02*
X8531968Y-16925531D01*
X8531968Y-16925531D02*
X8522444Y-16896960D01*
X8522444Y-16896960D02*
X8512920Y-16849341D01*
X8512920Y-16849341D02*
X8512920Y-16811246D01*
X8512920Y-16811246D02*
X8522444Y-16763627D01*
X8522444Y-16763627D02*
X8531968Y-16735055D01*
X8531968Y-16735055D02*
X8541491Y-16716008D01*
X8541491Y-16716008D02*
X8560539Y-16687436D01*
X8560539Y-16687436D02*
X8570063Y-16677912D01*
X8684349Y-16706484D02*
X8703396Y-16706484D01*
X8703396Y-16706484D02*
X8722444Y-16716008D01*
X8722444Y-16716008D02*
X8731968Y-16725531D01*
X8731968Y-16725531D02*
X8741491Y-16744579D01*
X8741491Y-16744579D02*
X8751015Y-16782674D01*
X8751015Y-16782674D02*
X8751015Y-16830293D01*
X8751015Y-16830293D02*
X8741491Y-16868389D01*
X8741491Y-16868389D02*
X8731968Y-16887436D01*
X8731968Y-16887436D02*
X8722444Y-16896960D01*
X8722444Y-16896960D02*
X8703396Y-16906484D01*
X8703396Y-16906484D02*
X8684349Y-16906484D01*
X8684349Y-16906484D02*
X8665301Y-16896960D01*
X8665301Y-16896960D02*
X8655777Y-16887436D01*
X8655777Y-16887436D02*
X8646253Y-16868389D01*
X8646253Y-16868389D02*
X8636730Y-16830293D01*
X8636730Y-16830293D02*
X8636730Y-16782674D01*
X8636730Y-16782674D02*
X8646253Y-16744579D01*
X8646253Y-16744579D02*
X8655777Y-16725531D01*
X8655777Y-16725531D02*
X8665301Y-16716008D01*
X8665301Y-16716008D02*
X8684349Y-16706484D01*
X8989111Y-16906484D02*
X8989111Y-16706484D01*
X9074825Y-16906484D02*
X9074825Y-16801722D01*
X9074825Y-16801722D02*
X9065301Y-16782674D01*
X9065301Y-16782674D02*
X9046253Y-16773150D01*
X9046253Y-16773150D02*
X9017682Y-16773150D01*
X9017682Y-16773150D02*
X8998634Y-16782674D01*
X8998634Y-16782674D02*
X8989111Y-16792198D01*
X9198634Y-16906484D02*
X9179587Y-16896960D01*
X9179587Y-16896960D02*
X9170063Y-16887436D01*
X9170063Y-16887436D02*
X9160539Y-16868389D01*
X9160539Y-16868389D02*
X9160539Y-16811246D01*
X9160539Y-16811246D02*
X9170063Y-16792198D01*
X9170063Y-16792198D02*
X9179587Y-16782674D01*
X9179587Y-16782674D02*
X9198634Y-16773150D01*
X9198634Y-16773150D02*
X9227206Y-16773150D01*
X9227206Y-16773150D02*
X9246253Y-16782674D01*
X9246253Y-16782674D02*
X9255777Y-16792198D01*
X9255777Y-16792198D02*
X9265301Y-16811246D01*
X9265301Y-16811246D02*
X9265301Y-16868389D01*
X9265301Y-16868389D02*
X9255777Y-16887436D01*
X9255777Y-16887436D02*
X9246253Y-16896960D01*
X9246253Y-16896960D02*
X9227206Y-16906484D01*
X9227206Y-16906484D02*
X9198634Y-16906484D01*
X9379587Y-16906484D02*
X9360539Y-16896960D01*
X9360539Y-16896960D02*
X9351015Y-16877912D01*
X9351015Y-16877912D02*
X9351015Y-16706484D01*
X9531968Y-16896960D02*
X9512920Y-16906484D01*
X9512920Y-16906484D02*
X9474825Y-16906484D01*
X9474825Y-16906484D02*
X9455777Y-16896960D01*
X9455777Y-16896960D02*
X9446253Y-16877912D01*
X9446253Y-16877912D02*
X9446253Y-16801722D01*
X9446253Y-16801722D02*
X9455777Y-16782674D01*
X9455777Y-16782674D02*
X9474825Y-16773150D01*
X9474825Y-16773150D02*
X9512920Y-16773150D01*
X9512920Y-16773150D02*
X9531968Y-16782674D01*
X9531968Y-16782674D02*
X9541492Y-16801722D01*
X9541492Y-16801722D02*
X9541492Y-16820770D01*
X9541492Y-16820770D02*
X9446253Y-16839817D01*
X9617682Y-16896960D02*
X9636730Y-16906484D01*
X9636730Y-16906484D02*
X9674825Y-16906484D01*
X9674825Y-16906484D02*
X9693873Y-16896960D01*
X9693873Y-16896960D02*
X9703396Y-16877912D01*
X9703396Y-16877912D02*
X9703396Y-16868389D01*
X9703396Y-16868389D02*
X9693873Y-16849341D01*
X9693873Y-16849341D02*
X9674825Y-16839817D01*
X9674825Y-16839817D02*
X9646253Y-16839817D01*
X9646253Y-16839817D02*
X9627206Y-16830293D01*
X9627206Y-16830293D02*
X9617682Y-16811246D01*
X9617682Y-16811246D02*
X9617682Y-16801722D01*
X9617682Y-16801722D02*
X9627206Y-16782674D01*
X9627206Y-16782674D02*
X9646253Y-16773150D01*
X9646253Y-16773150D02*
X9674825Y-16773150D01*
X9674825Y-16773150D02*
X9693873Y-16782674D01*
X9941492Y-16830293D02*
X10093873Y-16830293D01*
X10017682Y-16906484D02*
X10017682Y-16754103D01*
X10427206Y-16773150D02*
X10427206Y-16906484D01*
X10379587Y-16696960D02*
X10331968Y-16839817D01*
X10331968Y-16839817D02*
X10455777Y-16839817D01*
X10674825Y-16896960D02*
X10693873Y-16906484D01*
X10693873Y-16906484D02*
X10731968Y-16906484D01*
X10731968Y-16906484D02*
X10751016Y-16896960D01*
X10751016Y-16896960D02*
X10760539Y-16877912D01*
X10760539Y-16877912D02*
X10760539Y-16868389D01*
X10760539Y-16868389D02*
X10751016Y-16849341D01*
X10751016Y-16849341D02*
X10731968Y-16839817D01*
X10731968Y-16839817D02*
X10703396Y-16839817D01*
X10703396Y-16839817D02*
X10684349Y-16830293D01*
X10684349Y-16830293D02*
X10674825Y-16811246D01*
X10674825Y-16811246D02*
X10674825Y-16801722D01*
X10674825Y-16801722D02*
X10684349Y-16782674D01*
X10684349Y-16782674D02*
X10703396Y-16773150D01*
X10703396Y-16773150D02*
X10731968Y-16773150D01*
X10731968Y-16773150D02*
X10751016Y-16782674D01*
X10874825Y-16906484D02*
X10855777Y-16896960D01*
X10855777Y-16896960D02*
X10846254Y-16877912D01*
X10846254Y-16877912D02*
X10846254Y-16706484D01*
X10979587Y-16906484D02*
X10960539Y-16896960D01*
X10960539Y-16896960D02*
X10951016Y-16887436D01*
X10951016Y-16887436D02*
X10941492Y-16868389D01*
X10941492Y-16868389D02*
X10941492Y-16811246D01*
X10941492Y-16811246D02*
X10951016Y-16792198D01*
X10951016Y-16792198D02*
X10960539Y-16782674D01*
X10960539Y-16782674D02*
X10979587Y-16773150D01*
X10979587Y-16773150D02*
X11008158Y-16773150D01*
X11008158Y-16773150D02*
X11027206Y-16782674D01*
X11027206Y-16782674D02*
X11036730Y-16792198D01*
X11036730Y-16792198D02*
X11046254Y-16811246D01*
X11046254Y-16811246D02*
X11046254Y-16868389D01*
X11046254Y-16868389D02*
X11036730Y-16887436D01*
X11036730Y-16887436D02*
X11027206Y-16896960D01*
X11027206Y-16896960D02*
X11008158Y-16906484D01*
X11008158Y-16906484D02*
X10979587Y-16906484D01*
X11103397Y-16773150D02*
X11179587Y-16773150D01*
X11131968Y-16706484D02*
X11131968Y-16877912D01*
X11131968Y-16877912D02*
X11141492Y-16896960D01*
X11141492Y-16896960D02*
X11160539Y-16906484D01*
X11160539Y-16906484D02*
X11179587Y-16906484D01*
X11236730Y-16896960D02*
X11255777Y-16906484D01*
X11255777Y-16906484D02*
X11293873Y-16906484D01*
X11293873Y-16906484D02*
X11312920Y-16896960D01*
X11312920Y-16896960D02*
X11322444Y-16877912D01*
X11322444Y-16877912D02*
X11322444Y-16868389D01*
X11322444Y-16868389D02*
X11312920Y-16849341D01*
X11312920Y-16849341D02*
X11293873Y-16839817D01*
X11293873Y-16839817D02*
X11265301Y-16839817D01*
X11265301Y-16839817D02*
X11246254Y-16830293D01*
X11246254Y-16830293D02*
X11236730Y-16811246D01*
X11236730Y-16811246D02*
X11236730Y-16801722D01*
X11236730Y-16801722D02*
X11246254Y-16782674D01*
X11246254Y-16782674D02*
X11265301Y-16773150D01*
X11265301Y-16773150D02*
X11293873Y-16773150D01*
X11293873Y-16773150D02*
X11312920Y-16782674D01*
X11389111Y-16982674D02*
X11398635Y-16973150D01*
X11398635Y-16973150D02*
X11417682Y-16944579D01*
X11417682Y-16944579D02*
X11427206Y-16925531D01*
X11427206Y-16925531D02*
X11436730Y-16896960D01*
X11436730Y-16896960D02*
X11446254Y-16849341D01*
X11446254Y-16849341D02*
X11446254Y-16811246D01*
X11446254Y-16811246D02*
X11436730Y-16763627D01*
X11436730Y-16763627D02*
X11427206Y-16735055D01*
X11427206Y-16735055D02*
X11417682Y-16716008D01*
X11417682Y-16716008D02*
X11398635Y-16687436D01*
X11398635Y-16687436D02*
X11389111Y-16677912D01*
X4895000Y-17035000D02*
X4895000Y-17235000D01*
X4795000Y-17135000D02*
X4995000Y-17135000D01*
X5341491Y-17026484D02*
X5303396Y-17026484D01*
X5303396Y-17026484D02*
X5284348Y-17036008D01*
X5284348Y-17036008D02*
X5274824Y-17045531D01*
X5274824Y-17045531D02*
X5255777Y-17074103D01*
X5255777Y-17074103D02*
X5246253Y-17112198D01*
X5246253Y-17112198D02*
X5246253Y-17188389D01*
X5246253Y-17188389D02*
X5255777Y-17207436D01*
X5255777Y-17207436D02*
X5265301Y-17216960D01*
X5265301Y-17216960D02*
X5284348Y-17226484D01*
X5284348Y-17226484D02*
X5322444Y-17226484D01*
X5322444Y-17226484D02*
X5341491Y-17216960D01*
X5341491Y-17216960D02*
X5351015Y-17207436D01*
X5351015Y-17207436D02*
X5360539Y-17188389D01*
X5360539Y-17188389D02*
X5360539Y-17140770D01*
X5360539Y-17140770D02*
X5351015Y-17121722D01*
X5351015Y-17121722D02*
X5341491Y-17112198D01*
X5341491Y-17112198D02*
X5322444Y-17102674D01*
X5322444Y-17102674D02*
X5284348Y-17102674D01*
X5284348Y-17102674D02*
X5265301Y-17112198D01*
X5265301Y-17112198D02*
X5255777Y-17121722D01*
X5255777Y-17121722D02*
X5246253Y-17140770D01*
X5446253Y-17207436D02*
X5455777Y-17216960D01*
X5455777Y-17216960D02*
X5446253Y-17226484D01*
X5446253Y-17226484D02*
X5436729Y-17216960D01*
X5436729Y-17216960D02*
X5446253Y-17207436D01*
X5446253Y-17207436D02*
X5446253Y-17226484D01*
X5579586Y-17026484D02*
X5598634Y-17026484D01*
X5598634Y-17026484D02*
X5617682Y-17036008D01*
X5617682Y-17036008D02*
X5627205Y-17045531D01*
X5627205Y-17045531D02*
X5636729Y-17064579D01*
X5636729Y-17064579D02*
X5646253Y-17102674D01*
X5646253Y-17102674D02*
X5646253Y-17150293D01*
X5646253Y-17150293D02*
X5636729Y-17188389D01*
X5636729Y-17188389D02*
X5627205Y-17207436D01*
X5627205Y-17207436D02*
X5617682Y-17216960D01*
X5617682Y-17216960D02*
X5598634Y-17226484D01*
X5598634Y-17226484D02*
X5579586Y-17226484D01*
X5579586Y-17226484D02*
X5560539Y-17216960D01*
X5560539Y-17216960D02*
X5551015Y-17207436D01*
X5551015Y-17207436D02*
X5541491Y-17188389D01*
X5541491Y-17188389D02*
X5531967Y-17150293D01*
X5531967Y-17150293D02*
X5531967Y-17102674D01*
X5531967Y-17102674D02*
X5541491Y-17064579D01*
X5541491Y-17064579D02*
X5551015Y-17045531D01*
X5551015Y-17045531D02*
X5560539Y-17036008D01*
X5560539Y-17036008D02*
X5579586Y-17026484D01*
X5770062Y-17026484D02*
X5789110Y-17026484D01*
X5789110Y-17026484D02*
X5808158Y-17036008D01*
X5808158Y-17036008D02*
X5817682Y-17045531D01*
X5817682Y-17045531D02*
X5827205Y-17064579D01*
X5827205Y-17064579D02*
X5836729Y-17102674D01*
X5836729Y-17102674D02*
X5836729Y-17150293D01*
X5836729Y-17150293D02*
X5827205Y-17188389D01*
X5827205Y-17188389D02*
X5817682Y-17207436D01*
X5817682Y-17207436D02*
X5808158Y-17216960D01*
X5808158Y-17216960D02*
X5789110Y-17226484D01*
X5789110Y-17226484D02*
X5770062Y-17226484D01*
X5770062Y-17226484D02*
X5751015Y-17216960D01*
X5751015Y-17216960D02*
X5741491Y-17207436D01*
X5741491Y-17207436D02*
X5731967Y-17188389D01*
X5731967Y-17188389D02*
X5722443Y-17150293D01*
X5722443Y-17150293D02*
X5722443Y-17102674D01*
X5722443Y-17102674D02*
X5731967Y-17064579D01*
X5731967Y-17064579D02*
X5741491Y-17045531D01*
X5741491Y-17045531D02*
X5751015Y-17036008D01*
X5751015Y-17036008D02*
X5770062Y-17026484D01*
X5960539Y-17026484D02*
X5979586Y-17026484D01*
X5979586Y-17026484D02*
X5998634Y-17036008D01*
X5998634Y-17036008D02*
X6008158Y-17045531D01*
X6008158Y-17045531D02*
X6017682Y-17064579D01*
X6017682Y-17064579D02*
X6027205Y-17102674D01*
X6027205Y-17102674D02*
X6027205Y-17150293D01*
X6027205Y-17150293D02*
X6017682Y-17188389D01*
X6017682Y-17188389D02*
X6008158Y-17207436D01*
X6008158Y-17207436D02*
X5998634Y-17216960D01*
X5998634Y-17216960D02*
X5979586Y-17226484D01*
X5979586Y-17226484D02*
X5960539Y-17226484D01*
X5960539Y-17226484D02*
X5941491Y-17216960D01*
X5941491Y-17216960D02*
X5931967Y-17207436D01*
X5931967Y-17207436D02*
X5922443Y-17188389D01*
X5922443Y-17188389D02*
X5912920Y-17150293D01*
X5912920Y-17150293D02*
X5912920Y-17102674D01*
X5912920Y-17102674D02*
X5922443Y-17064579D01*
X5922443Y-17064579D02*
X5931967Y-17045531D01*
X5931967Y-17045531D02*
X5941491Y-17036008D01*
X5941491Y-17036008D02*
X5960539Y-17026484D01*
X6112920Y-17226484D02*
X6112920Y-17093150D01*
X6112920Y-17112198D02*
X6122443Y-17102674D01*
X6122443Y-17102674D02*
X6141491Y-17093150D01*
X6141491Y-17093150D02*
X6170063Y-17093150D01*
X6170063Y-17093150D02*
X6189110Y-17102674D01*
X6189110Y-17102674D02*
X6198634Y-17121722D01*
X6198634Y-17121722D02*
X6198634Y-17226484D01*
X6198634Y-17121722D02*
X6208158Y-17102674D01*
X6208158Y-17102674D02*
X6227205Y-17093150D01*
X6227205Y-17093150D02*
X6255777Y-17093150D01*
X6255777Y-17093150D02*
X6274824Y-17102674D01*
X6274824Y-17102674D02*
X6284348Y-17121722D01*
X6284348Y-17121722D02*
X6284348Y-17226484D01*
X6379586Y-17226484D02*
X6379586Y-17093150D01*
X6379586Y-17112198D02*
X6389110Y-17102674D01*
X6389110Y-17102674D02*
X6408158Y-17093150D01*
X6408158Y-17093150D02*
X6436729Y-17093150D01*
X6436729Y-17093150D02*
X6455777Y-17102674D01*
X6455777Y-17102674D02*
X6465301Y-17121722D01*
X6465301Y-17121722D02*
X6465301Y-17226484D01*
X6465301Y-17121722D02*
X6474824Y-17102674D01*
X6474824Y-17102674D02*
X6493872Y-17093150D01*
X6493872Y-17093150D02*
X6522443Y-17093150D01*
X6522443Y-17093150D02*
X6541491Y-17102674D01*
X6541491Y-17102674D02*
X6551015Y-17121722D01*
X6551015Y-17121722D02*
X6551015Y-17226484D01*
X6941491Y-17016960D02*
X6770063Y-17274103D01*
X7198634Y-17026484D02*
X7217682Y-17026484D01*
X7217682Y-17026484D02*
X7236729Y-17036008D01*
X7236729Y-17036008D02*
X7246253Y-17045531D01*
X7246253Y-17045531D02*
X7255777Y-17064579D01*
X7255777Y-17064579D02*
X7265301Y-17102674D01*
X7265301Y-17102674D02*
X7265301Y-17150293D01*
X7265301Y-17150293D02*
X7255777Y-17188389D01*
X7255777Y-17188389D02*
X7246253Y-17207436D01*
X7246253Y-17207436D02*
X7236729Y-17216960D01*
X7236729Y-17216960D02*
X7217682Y-17226484D01*
X7217682Y-17226484D02*
X7198634Y-17226484D01*
X7198634Y-17226484D02*
X7179586Y-17216960D01*
X7179586Y-17216960D02*
X7170063Y-17207436D01*
X7170063Y-17207436D02*
X7160539Y-17188389D01*
X7160539Y-17188389D02*
X7151015Y-17150293D01*
X7151015Y-17150293D02*
X7151015Y-17102674D01*
X7151015Y-17102674D02*
X7160539Y-17064579D01*
X7160539Y-17064579D02*
X7170063Y-17045531D01*
X7170063Y-17045531D02*
X7179586Y-17036008D01*
X7179586Y-17036008D02*
X7198634Y-17026484D01*
X7351015Y-17207436D02*
X7360539Y-17216960D01*
X7360539Y-17216960D02*
X7351015Y-17226484D01*
X7351015Y-17226484D02*
X7341491Y-17216960D01*
X7341491Y-17216960D02*
X7351015Y-17207436D01*
X7351015Y-17207436D02*
X7351015Y-17226484D01*
X7436729Y-17045531D02*
X7446253Y-17036008D01*
X7446253Y-17036008D02*
X7465301Y-17026484D01*
X7465301Y-17026484D02*
X7512920Y-17026484D01*
X7512920Y-17026484D02*
X7531967Y-17036008D01*
X7531967Y-17036008D02*
X7541491Y-17045531D01*
X7541491Y-17045531D02*
X7551015Y-17064579D01*
X7551015Y-17064579D02*
X7551015Y-17083627D01*
X7551015Y-17083627D02*
X7541491Y-17112198D01*
X7541491Y-17112198D02*
X7427206Y-17226484D01*
X7427206Y-17226484D02*
X7551015Y-17226484D01*
X7617682Y-17026484D02*
X7741491Y-17026484D01*
X7741491Y-17026484D02*
X7674825Y-17102674D01*
X7674825Y-17102674D02*
X7703396Y-17102674D01*
X7703396Y-17102674D02*
X7722444Y-17112198D01*
X7722444Y-17112198D02*
X7731967Y-17121722D01*
X7731967Y-17121722D02*
X7741491Y-17140770D01*
X7741491Y-17140770D02*
X7741491Y-17188389D01*
X7741491Y-17188389D02*
X7731967Y-17207436D01*
X7731967Y-17207436D02*
X7722444Y-17216960D01*
X7722444Y-17216960D02*
X7703396Y-17226484D01*
X7703396Y-17226484D02*
X7646253Y-17226484D01*
X7646253Y-17226484D02*
X7627206Y-17216960D01*
X7627206Y-17216960D02*
X7617682Y-17207436D01*
X7912920Y-17026484D02*
X7874825Y-17026484D01*
X7874825Y-17026484D02*
X7855777Y-17036008D01*
X7855777Y-17036008D02*
X7846253Y-17045531D01*
X7846253Y-17045531D02*
X7827206Y-17074103D01*
X7827206Y-17074103D02*
X7817682Y-17112198D01*
X7817682Y-17112198D02*
X7817682Y-17188389D01*
X7817682Y-17188389D02*
X7827206Y-17207436D01*
X7827206Y-17207436D02*
X7836729Y-17216960D01*
X7836729Y-17216960D02*
X7855777Y-17226484D01*
X7855777Y-17226484D02*
X7893872Y-17226484D01*
X7893872Y-17226484D02*
X7912920Y-17216960D01*
X7912920Y-17216960D02*
X7922444Y-17207436D01*
X7922444Y-17207436D02*
X7931967Y-17188389D01*
X7931967Y-17188389D02*
X7931967Y-17140770D01*
X7931967Y-17140770D02*
X7922444Y-17121722D01*
X7922444Y-17121722D02*
X7912920Y-17112198D01*
X7912920Y-17112198D02*
X7893872Y-17102674D01*
X7893872Y-17102674D02*
X7855777Y-17102674D01*
X7855777Y-17102674D02*
X7836729Y-17112198D01*
X7836729Y-17112198D02*
X7827206Y-17121722D01*
X7827206Y-17121722D02*
X7817682Y-17140770D01*
X8008158Y-17045531D02*
X8017682Y-17036008D01*
X8017682Y-17036008D02*
X8036729Y-17026484D01*
X8036729Y-17026484D02*
X8084348Y-17026484D01*
X8084348Y-17026484D02*
X8103396Y-17036008D01*
X8103396Y-17036008D02*
X8112920Y-17045531D01*
X8112920Y-17045531D02*
X8122444Y-17064579D01*
X8122444Y-17064579D02*
X8122444Y-17083627D01*
X8122444Y-17083627D02*
X8112920Y-17112198D01*
X8112920Y-17112198D02*
X7998634Y-17226484D01*
X7998634Y-17226484D02*
X8122444Y-17226484D01*
X8198634Y-17026484D02*
X8198634Y-17064579D01*
X8274825Y-17026484D02*
X8274825Y-17064579D01*
X8570063Y-17302674D02*
X8560539Y-17293150D01*
X8560539Y-17293150D02*
X8541491Y-17264579D01*
X8541491Y-17264579D02*
X8531968Y-17245531D01*
X8531968Y-17245531D02*
X8522444Y-17216960D01*
X8522444Y-17216960D02*
X8512920Y-17169341D01*
X8512920Y-17169341D02*
X8512920Y-17131246D01*
X8512920Y-17131246D02*
X8522444Y-17083627D01*
X8522444Y-17083627D02*
X8531968Y-17055055D01*
X8531968Y-17055055D02*
X8541491Y-17036008D01*
X8541491Y-17036008D02*
X8560539Y-17007436D01*
X8560539Y-17007436D02*
X8570063Y-16997912D01*
X8674825Y-17112198D02*
X8655777Y-17102674D01*
X8655777Y-17102674D02*
X8646253Y-17093150D01*
X8646253Y-17093150D02*
X8636730Y-17074103D01*
X8636730Y-17074103D02*
X8636730Y-17064579D01*
X8636730Y-17064579D02*
X8646253Y-17045531D01*
X8646253Y-17045531D02*
X8655777Y-17036008D01*
X8655777Y-17036008D02*
X8674825Y-17026484D01*
X8674825Y-17026484D02*
X8712920Y-17026484D01*
X8712920Y-17026484D02*
X8731968Y-17036008D01*
X8731968Y-17036008D02*
X8741491Y-17045531D01*
X8741491Y-17045531D02*
X8751015Y-17064579D01*
X8751015Y-17064579D02*
X8751015Y-17074103D01*
X8751015Y-17074103D02*
X8741491Y-17093150D01*
X8741491Y-17093150D02*
X8731968Y-17102674D01*
X8731968Y-17102674D02*
X8712920Y-17112198D01*
X8712920Y-17112198D02*
X8674825Y-17112198D01*
X8674825Y-17112198D02*
X8655777Y-17121722D01*
X8655777Y-17121722D02*
X8646253Y-17131246D01*
X8646253Y-17131246D02*
X8636730Y-17150293D01*
X8636730Y-17150293D02*
X8636730Y-17188389D01*
X8636730Y-17188389D02*
X8646253Y-17207436D01*
X8646253Y-17207436D02*
X8655777Y-17216960D01*
X8655777Y-17216960D02*
X8674825Y-17226484D01*
X8674825Y-17226484D02*
X8712920Y-17226484D01*
X8712920Y-17226484D02*
X8731968Y-17216960D01*
X8731968Y-17216960D02*
X8741491Y-17207436D01*
X8741491Y-17207436D02*
X8751015Y-17188389D01*
X8751015Y-17188389D02*
X8751015Y-17150293D01*
X8751015Y-17150293D02*
X8741491Y-17131246D01*
X8741491Y-17131246D02*
X8731968Y-17121722D01*
X8731968Y-17121722D02*
X8712920Y-17112198D01*
X8989111Y-17226484D02*
X8989111Y-17026484D01*
X9074825Y-17226484D02*
X9074825Y-17121722D01*
X9074825Y-17121722D02*
X9065301Y-17102674D01*
X9065301Y-17102674D02*
X9046253Y-17093150D01*
X9046253Y-17093150D02*
X9017682Y-17093150D01*
X9017682Y-17093150D02*
X8998634Y-17102674D01*
X8998634Y-17102674D02*
X8989111Y-17112198D01*
X9198634Y-17226484D02*
X9179587Y-17216960D01*
X9179587Y-17216960D02*
X9170063Y-17207436D01*
X9170063Y-17207436D02*
X9160539Y-17188389D01*
X9160539Y-17188389D02*
X9160539Y-17131246D01*
X9160539Y-17131246D02*
X9170063Y-17112198D01*
X9170063Y-17112198D02*
X9179587Y-17102674D01*
X9179587Y-17102674D02*
X9198634Y-17093150D01*
X9198634Y-17093150D02*
X9227206Y-17093150D01*
X9227206Y-17093150D02*
X9246253Y-17102674D01*
X9246253Y-17102674D02*
X9255777Y-17112198D01*
X9255777Y-17112198D02*
X9265301Y-17131246D01*
X9265301Y-17131246D02*
X9265301Y-17188389D01*
X9265301Y-17188389D02*
X9255777Y-17207436D01*
X9255777Y-17207436D02*
X9246253Y-17216960D01*
X9246253Y-17216960D02*
X9227206Y-17226484D01*
X9227206Y-17226484D02*
X9198634Y-17226484D01*
X9379587Y-17226484D02*
X9360539Y-17216960D01*
X9360539Y-17216960D02*
X9351015Y-17197912D01*
X9351015Y-17197912D02*
X9351015Y-17026484D01*
X9531968Y-17216960D02*
X9512920Y-17226484D01*
X9512920Y-17226484D02*
X9474825Y-17226484D01*
X9474825Y-17226484D02*
X9455777Y-17216960D01*
X9455777Y-17216960D02*
X9446253Y-17197912D01*
X9446253Y-17197912D02*
X9446253Y-17121722D01*
X9446253Y-17121722D02*
X9455777Y-17102674D01*
X9455777Y-17102674D02*
X9474825Y-17093150D01*
X9474825Y-17093150D02*
X9512920Y-17093150D01*
X9512920Y-17093150D02*
X9531968Y-17102674D01*
X9531968Y-17102674D02*
X9541492Y-17121722D01*
X9541492Y-17121722D02*
X9541492Y-17140770D01*
X9541492Y-17140770D02*
X9446253Y-17159817D01*
X9617682Y-17216960D02*
X9636730Y-17226484D01*
X9636730Y-17226484D02*
X9674825Y-17226484D01*
X9674825Y-17226484D02*
X9693873Y-17216960D01*
X9693873Y-17216960D02*
X9703396Y-17197912D01*
X9703396Y-17197912D02*
X9703396Y-17188389D01*
X9703396Y-17188389D02*
X9693873Y-17169341D01*
X9693873Y-17169341D02*
X9674825Y-17159817D01*
X9674825Y-17159817D02*
X9646253Y-17159817D01*
X9646253Y-17159817D02*
X9627206Y-17150293D01*
X9627206Y-17150293D02*
X9617682Y-17131246D01*
X9617682Y-17131246D02*
X9617682Y-17121722D01*
X9617682Y-17121722D02*
X9627206Y-17102674D01*
X9627206Y-17102674D02*
X9646253Y-17093150D01*
X9646253Y-17093150D02*
X9674825Y-17093150D01*
X9674825Y-17093150D02*
X9693873Y-17102674D01*
X9770063Y-17302674D02*
X9779587Y-17293150D01*
X9779587Y-17293150D02*
X9798634Y-17264579D01*
X9798634Y-17264579D02*
X9808158Y-17245531D01*
X9808158Y-17245531D02*
X9817682Y-17216960D01*
X9817682Y-17216960D02*
X9827206Y-17169341D01*
X9827206Y-17169341D02*
X9827206Y-17131246D01*
X9827206Y-17131246D02*
X9817682Y-17083627D01*
X9817682Y-17083627D02*
X9808158Y-17055055D01*
X9808158Y-17055055D02*
X9798634Y-17036008D01*
X9798634Y-17036008D02*
X9779587Y-17007436D01*
X9779587Y-17007436D02*
X9770063Y-16997912D01*
X4965711Y-17525711D02*
X4965711Y-17384289D01*
X4824289Y-17384289D01*
X4824289Y-17525711D01*
X4965711Y-17525711D01*
X5265301Y-17546484D02*
X5303396Y-17546484D01*
X5303396Y-17546484D02*
X5322444Y-17536960D01*
X5322444Y-17536960D02*
X5331967Y-17527436D01*
X5331967Y-17527436D02*
X5351015Y-17498865D01*
X5351015Y-17498865D02*
X5360539Y-17460770D01*
X5360539Y-17460770D02*
X5360539Y-17384579D01*
X5360539Y-17384579D02*
X5351015Y-17365531D01*
X5351015Y-17365531D02*
X5341491Y-17356008D01*
X5341491Y-17356008D02*
X5322444Y-17346484D01*
X5322444Y-17346484D02*
X5284348Y-17346484D01*
X5284348Y-17346484D02*
X5265301Y-17356008D01*
X5265301Y-17356008D02*
X5255777Y-17365531D01*
X5255777Y-17365531D02*
X5246253Y-17384579D01*
X5246253Y-17384579D02*
X5246253Y-17432198D01*
X5246253Y-17432198D02*
X5255777Y-17451246D01*
X5255777Y-17451246D02*
X5265301Y-17460770D01*
X5265301Y-17460770D02*
X5284348Y-17470293D01*
X5284348Y-17470293D02*
X5322444Y-17470293D01*
X5322444Y-17470293D02*
X5341491Y-17460770D01*
X5341491Y-17460770D02*
X5351015Y-17451246D01*
X5351015Y-17451246D02*
X5360539Y-17432198D01*
X5446253Y-17527436D02*
X5455777Y-17536960D01*
X5455777Y-17536960D02*
X5446253Y-17546484D01*
X5446253Y-17546484D02*
X5436729Y-17536960D01*
X5436729Y-17536960D02*
X5446253Y-17527436D01*
X5446253Y-17527436D02*
X5446253Y-17546484D01*
X5579586Y-17346484D02*
X5598634Y-17346484D01*
X5598634Y-17346484D02*
X5617682Y-17356008D01*
X5617682Y-17356008D02*
X5627205Y-17365531D01*
X5627205Y-17365531D02*
X5636729Y-17384579D01*
X5636729Y-17384579D02*
X5646253Y-17422674D01*
X5646253Y-17422674D02*
X5646253Y-17470293D01*
X5646253Y-17470293D02*
X5636729Y-17508389D01*
X5636729Y-17508389D02*
X5627205Y-17527436D01*
X5627205Y-17527436D02*
X5617682Y-17536960D01*
X5617682Y-17536960D02*
X5598634Y-17546484D01*
X5598634Y-17546484D02*
X5579586Y-17546484D01*
X5579586Y-17546484D02*
X5560539Y-17536960D01*
X5560539Y-17536960D02*
X5551015Y-17527436D01*
X5551015Y-17527436D02*
X5541491Y-17508389D01*
X5541491Y-17508389D02*
X5531967Y-17470293D01*
X5531967Y-17470293D02*
X5531967Y-17422674D01*
X5531967Y-17422674D02*
X5541491Y-17384579D01*
X5541491Y-17384579D02*
X5551015Y-17365531D01*
X5551015Y-17365531D02*
X5560539Y-17356008D01*
X5560539Y-17356008D02*
X5579586Y-17346484D01*
X5770062Y-17346484D02*
X5789110Y-17346484D01*
X5789110Y-17346484D02*
X5808158Y-17356008D01*
X5808158Y-17356008D02*
X5817682Y-17365531D01*
X5817682Y-17365531D02*
X5827205Y-17384579D01*
X5827205Y-17384579D02*
X5836729Y-17422674D01*
X5836729Y-17422674D02*
X5836729Y-17470293D01*
X5836729Y-17470293D02*
X5827205Y-17508389D01*
X5827205Y-17508389D02*
X5817682Y-17527436D01*
X5817682Y-17527436D02*
X5808158Y-17536960D01*
X5808158Y-17536960D02*
X5789110Y-17546484D01*
X5789110Y-17546484D02*
X5770062Y-17546484D01*
X5770062Y-17546484D02*
X5751015Y-17536960D01*
X5751015Y-17536960D02*
X5741491Y-17527436D01*
X5741491Y-17527436D02*
X5731967Y-17508389D01*
X5731967Y-17508389D02*
X5722443Y-17470293D01*
X5722443Y-17470293D02*
X5722443Y-17422674D01*
X5722443Y-17422674D02*
X5731967Y-17384579D01*
X5731967Y-17384579D02*
X5741491Y-17365531D01*
X5741491Y-17365531D02*
X5751015Y-17356008D01*
X5751015Y-17356008D02*
X5770062Y-17346484D01*
X5960539Y-17346484D02*
X5979586Y-17346484D01*
X5979586Y-17346484D02*
X5998634Y-17356008D01*
X5998634Y-17356008D02*
X6008158Y-17365531D01*
X6008158Y-17365531D02*
X6017682Y-17384579D01*
X6017682Y-17384579D02*
X6027205Y-17422674D01*
X6027205Y-17422674D02*
X6027205Y-17470293D01*
X6027205Y-17470293D02*
X6017682Y-17508389D01*
X6017682Y-17508389D02*
X6008158Y-17527436D01*
X6008158Y-17527436D02*
X5998634Y-17536960D01*
X5998634Y-17536960D02*
X5979586Y-17546484D01*
X5979586Y-17546484D02*
X5960539Y-17546484D01*
X5960539Y-17546484D02*
X5941491Y-17536960D01*
X5941491Y-17536960D02*
X5931967Y-17527436D01*
X5931967Y-17527436D02*
X5922443Y-17508389D01*
X5922443Y-17508389D02*
X5912920Y-17470293D01*
X5912920Y-17470293D02*
X5912920Y-17422674D01*
X5912920Y-17422674D02*
X5922443Y-17384579D01*
X5922443Y-17384579D02*
X5931967Y-17365531D01*
X5931967Y-17365531D02*
X5941491Y-17356008D01*
X5941491Y-17356008D02*
X5960539Y-17346484D01*
X6112920Y-17546484D02*
X6112920Y-17413150D01*
X6112920Y-17432198D02*
X6122443Y-17422674D01*
X6122443Y-17422674D02*
X6141491Y-17413150D01*
X6141491Y-17413150D02*
X6170063Y-17413150D01*
X6170063Y-17413150D02*
X6189110Y-17422674D01*
X6189110Y-17422674D02*
X6198634Y-17441722D01*
X6198634Y-17441722D02*
X6198634Y-17546484D01*
X6198634Y-17441722D02*
X6208158Y-17422674D01*
X6208158Y-17422674D02*
X6227205Y-17413150D01*
X6227205Y-17413150D02*
X6255777Y-17413150D01*
X6255777Y-17413150D02*
X6274824Y-17422674D01*
X6274824Y-17422674D02*
X6284348Y-17441722D01*
X6284348Y-17441722D02*
X6284348Y-17546484D01*
X6379586Y-17546484D02*
X6379586Y-17413150D01*
X6379586Y-17432198D02*
X6389110Y-17422674D01*
X6389110Y-17422674D02*
X6408158Y-17413150D01*
X6408158Y-17413150D02*
X6436729Y-17413150D01*
X6436729Y-17413150D02*
X6455777Y-17422674D01*
X6455777Y-17422674D02*
X6465301Y-17441722D01*
X6465301Y-17441722D02*
X6465301Y-17546484D01*
X6465301Y-17441722D02*
X6474824Y-17422674D01*
X6474824Y-17422674D02*
X6493872Y-17413150D01*
X6493872Y-17413150D02*
X6522443Y-17413150D01*
X6522443Y-17413150D02*
X6541491Y-17422674D01*
X6541491Y-17422674D02*
X6551015Y-17441722D01*
X6551015Y-17441722D02*
X6551015Y-17546484D01*
X6941491Y-17336960D02*
X6770063Y-17594103D01*
X7198634Y-17346484D02*
X7217682Y-17346484D01*
X7217682Y-17346484D02*
X7236729Y-17356008D01*
X7236729Y-17356008D02*
X7246253Y-17365531D01*
X7246253Y-17365531D02*
X7255777Y-17384579D01*
X7255777Y-17384579D02*
X7265301Y-17422674D01*
X7265301Y-17422674D02*
X7265301Y-17470293D01*
X7265301Y-17470293D02*
X7255777Y-17508389D01*
X7255777Y-17508389D02*
X7246253Y-17527436D01*
X7246253Y-17527436D02*
X7236729Y-17536960D01*
X7236729Y-17536960D02*
X7217682Y-17546484D01*
X7217682Y-17546484D02*
X7198634Y-17546484D01*
X7198634Y-17546484D02*
X7179586Y-17536960D01*
X7179586Y-17536960D02*
X7170063Y-17527436D01*
X7170063Y-17527436D02*
X7160539Y-17508389D01*
X7160539Y-17508389D02*
X7151015Y-17470293D01*
X7151015Y-17470293D02*
X7151015Y-17422674D01*
X7151015Y-17422674D02*
X7160539Y-17384579D01*
X7160539Y-17384579D02*
X7170063Y-17365531D01*
X7170063Y-17365531D02*
X7179586Y-17356008D01*
X7179586Y-17356008D02*
X7198634Y-17346484D01*
X7351015Y-17527436D02*
X7360539Y-17536960D01*
X7360539Y-17536960D02*
X7351015Y-17546484D01*
X7351015Y-17546484D02*
X7341491Y-17536960D01*
X7341491Y-17536960D02*
X7351015Y-17527436D01*
X7351015Y-17527436D02*
X7351015Y-17546484D01*
X7427206Y-17346484D02*
X7551015Y-17346484D01*
X7551015Y-17346484D02*
X7484348Y-17422674D01*
X7484348Y-17422674D02*
X7512920Y-17422674D01*
X7512920Y-17422674D02*
X7531967Y-17432198D01*
X7531967Y-17432198D02*
X7541491Y-17441722D01*
X7541491Y-17441722D02*
X7551015Y-17460770D01*
X7551015Y-17460770D02*
X7551015Y-17508389D01*
X7551015Y-17508389D02*
X7541491Y-17527436D01*
X7541491Y-17527436D02*
X7531967Y-17536960D01*
X7531967Y-17536960D02*
X7512920Y-17546484D01*
X7512920Y-17546484D02*
X7455777Y-17546484D01*
X7455777Y-17546484D02*
X7436729Y-17536960D01*
X7436729Y-17536960D02*
X7427206Y-17527436D01*
X7731967Y-17346484D02*
X7636729Y-17346484D01*
X7636729Y-17346484D02*
X7627206Y-17441722D01*
X7627206Y-17441722D02*
X7636729Y-17432198D01*
X7636729Y-17432198D02*
X7655777Y-17422674D01*
X7655777Y-17422674D02*
X7703396Y-17422674D01*
X7703396Y-17422674D02*
X7722444Y-17432198D01*
X7722444Y-17432198D02*
X7731967Y-17441722D01*
X7731967Y-17441722D02*
X7741491Y-17460770D01*
X7741491Y-17460770D02*
X7741491Y-17508389D01*
X7741491Y-17508389D02*
X7731967Y-17527436D01*
X7731967Y-17527436D02*
X7722444Y-17536960D01*
X7722444Y-17536960D02*
X7703396Y-17546484D01*
X7703396Y-17546484D02*
X7655777Y-17546484D01*
X7655777Y-17546484D02*
X7636729Y-17536960D01*
X7636729Y-17536960D02*
X7627206Y-17527436D01*
X7912920Y-17413150D02*
X7912920Y-17546484D01*
X7865301Y-17336960D02*
X7817682Y-17479817D01*
X7817682Y-17479817D02*
X7941491Y-17479817D01*
X7998634Y-17346484D02*
X8122444Y-17346484D01*
X8122444Y-17346484D02*
X8055777Y-17422674D01*
X8055777Y-17422674D02*
X8084348Y-17422674D01*
X8084348Y-17422674D02*
X8103396Y-17432198D01*
X8103396Y-17432198D02*
X8112920Y-17441722D01*
X8112920Y-17441722D02*
X8122444Y-17460770D01*
X8122444Y-17460770D02*
X8122444Y-17508389D01*
X8122444Y-17508389D02*
X8112920Y-17527436D01*
X8112920Y-17527436D02*
X8103396Y-17536960D01*
X8103396Y-17536960D02*
X8084348Y-17546484D01*
X8084348Y-17546484D02*
X8027206Y-17546484D01*
X8027206Y-17546484D02*
X8008158Y-17536960D01*
X8008158Y-17536960D02*
X7998634Y-17527436D01*
X8198634Y-17346484D02*
X8198634Y-17384579D01*
X8274825Y-17346484D02*
X8274825Y-17384579D01*
X8570063Y-17622674D02*
X8560539Y-17613150D01*
X8560539Y-17613150D02*
X8541491Y-17584579D01*
X8541491Y-17584579D02*
X8531968Y-17565531D01*
X8531968Y-17565531D02*
X8522444Y-17536960D01*
X8522444Y-17536960D02*
X8512920Y-17489341D01*
X8512920Y-17489341D02*
X8512920Y-17451246D01*
X8512920Y-17451246D02*
X8522444Y-17403627D01*
X8522444Y-17403627D02*
X8531968Y-17375055D01*
X8531968Y-17375055D02*
X8541491Y-17356008D01*
X8541491Y-17356008D02*
X8560539Y-17327436D01*
X8560539Y-17327436D02*
X8570063Y-17317912D01*
X8751015Y-17546484D02*
X8636730Y-17546484D01*
X8693872Y-17546484D02*
X8693872Y-17346484D01*
X8693872Y-17346484D02*
X8674825Y-17375055D01*
X8674825Y-17375055D02*
X8655777Y-17394103D01*
X8655777Y-17394103D02*
X8636730Y-17403627D01*
X8989111Y-17546484D02*
X8989111Y-17346484D01*
X9074825Y-17546484D02*
X9074825Y-17441722D01*
X9074825Y-17441722D02*
X9065301Y-17422674D01*
X9065301Y-17422674D02*
X9046253Y-17413150D01*
X9046253Y-17413150D02*
X9017682Y-17413150D01*
X9017682Y-17413150D02*
X8998634Y-17422674D01*
X8998634Y-17422674D02*
X8989111Y-17432198D01*
X9198634Y-17546484D02*
X9179587Y-17536960D01*
X9179587Y-17536960D02*
X9170063Y-17527436D01*
X9170063Y-17527436D02*
X9160539Y-17508389D01*
X9160539Y-17508389D02*
X9160539Y-17451246D01*
X9160539Y-17451246D02*
X9170063Y-17432198D01*
X9170063Y-17432198D02*
X9179587Y-17422674D01*
X9179587Y-17422674D02*
X9198634Y-17413150D01*
X9198634Y-17413150D02*
X9227206Y-17413150D01*
X9227206Y-17413150D02*
X9246253Y-17422674D01*
X9246253Y-17422674D02*
X9255777Y-17432198D01*
X9255777Y-17432198D02*
X9265301Y-17451246D01*
X9265301Y-17451246D02*
X9265301Y-17508389D01*
X9265301Y-17508389D02*
X9255777Y-17527436D01*
X9255777Y-17527436D02*
X9246253Y-17536960D01*
X9246253Y-17536960D02*
X9227206Y-17546484D01*
X9227206Y-17546484D02*
X9198634Y-17546484D01*
X9379587Y-17546484D02*
X9360539Y-17536960D01*
X9360539Y-17536960D02*
X9351015Y-17517912D01*
X9351015Y-17517912D02*
X9351015Y-17346484D01*
X9531968Y-17536960D02*
X9512920Y-17546484D01*
X9512920Y-17546484D02*
X9474825Y-17546484D01*
X9474825Y-17546484D02*
X9455777Y-17536960D01*
X9455777Y-17536960D02*
X9446253Y-17517912D01*
X9446253Y-17517912D02*
X9446253Y-17441722D01*
X9446253Y-17441722D02*
X9455777Y-17422674D01*
X9455777Y-17422674D02*
X9474825Y-17413150D01*
X9474825Y-17413150D02*
X9512920Y-17413150D01*
X9512920Y-17413150D02*
X9531968Y-17422674D01*
X9531968Y-17422674D02*
X9541492Y-17441722D01*
X9541492Y-17441722D02*
X9541492Y-17460770D01*
X9541492Y-17460770D02*
X9446253Y-17479817D01*
X9608158Y-17622674D02*
X9617682Y-17613150D01*
X9617682Y-17613150D02*
X9636730Y-17584579D01*
X9636730Y-17584579D02*
X9646253Y-17565531D01*
X9646253Y-17565531D02*
X9655777Y-17536960D01*
X9655777Y-17536960D02*
X9665301Y-17489341D01*
X9665301Y-17489341D02*
X9665301Y-17451246D01*
X9665301Y-17451246D02*
X9655777Y-17403627D01*
X9655777Y-17403627D02*
X9646253Y-17375055D01*
X9646253Y-17375055D02*
X9636730Y-17356008D01*
X9636730Y-17356008D02*
X9617682Y-17327436D01*
X9617682Y-17327436D02*
X9608158Y-17317912D01*
M02*
