%TF.GenerationSoftware,KiCad,Pcbnew,8.0.4+1*%
%TF.CreationDate,2024-09-11T08:07:52+08:00*%
%TF.ProjectId,MiniSeq - Panel,4d696e69-5365-4712-902d-2050616e656c,v0.1*%
%TF.SameCoordinates,Original*%
%TF.FileFunction,Copper,L2,Bot*%
%TF.FilePolarity,Positive*%
%FSLAX46Y46*%
G04 Gerber Fmt 4.6, Leading zero omitted, Abs format (unit mm)*
G04 Created by KiCad (PCBNEW 8.0.4+1) date 2024-09-11 08:07:52*
%MOMM*%
%LPD*%
G01*
G04 APERTURE LIST*
%TA.AperFunction,WasherPad*%
%ADD10C,8.000000*%
%TD*%
%TA.AperFunction,ComponentPad*%
%ADD11O,7.000000X4.200000*%
%TD*%
%TA.AperFunction,WasherPad*%
%ADD12C,7.000000*%
%TD*%
%TA.AperFunction,ViaPad*%
%ADD13C,6.200000*%
%TD*%
%TA.AperFunction,ViaPad*%
%ADD14C,3.200000*%
%TD*%
%TA.AperFunction,ViaPad*%
%ADD15C,9.200000*%
%TD*%
G04 APERTURE END LIST*
D10*
%TO.P,REF\u002A\u002A,*%
%TO.N,*%
X100000000Y-85000000D03*
%TD*%
%TO.P,REF\u002A\u002A,*%
%TO.N,*%
X100000000Y-55942500D03*
%TD*%
%TO.P,REF\u002A\u002A,*%
%TO.N,*%
X80000000Y-85000000D03*
%TD*%
%TO.P,REF\u002A\u002A,*%
%TO.N,*%
X60000000Y-55942500D03*
%TD*%
D11*
%TO.P,REF\u002A\u002A,*%
%TO.N,*%
X57500000Y-33000000D03*
X57500000Y-155500000D03*
X122500000Y-33000000D03*
X122500000Y-155500000D03*
%TD*%
D12*
%TO.P,REF\u002A\u002A,*%
%TO.N,*%
X123000000Y-142500000D03*
%TD*%
D10*
%TO.P,REF\u002A\u002A,*%
%TO.N,*%
X80000000Y-55942500D03*
%TD*%
D12*
%TO.P,REF\u002A\u002A,*%
%TO.N,*%
X61500000Y-142720000D03*
%TD*%
D10*
%TO.P,REF\u002A\u002A,*%
%TO.N,*%
X120000000Y-85057500D03*
%TD*%
%TO.P,REF\u002A\u002A,*%
%TO.N,*%
X60000000Y-85000000D03*
%TD*%
D12*
%TO.P,REF\u002A\u002A,*%
%TO.N,*%
X80000000Y-142720000D03*
%TD*%
D10*
%TO.P,REF\u002A\u002A,*%
%TO.N,*%
X120000000Y-55942500D03*
%TD*%
D12*
%TO.P,REF\u002A\u002A,*%
%TO.N,*%
X123000000Y-124470000D03*
%TD*%
D13*
%TO.N,*%
X60000000Y-43500000D03*
X120000000Y-43500000D03*
D14*
X80000000Y-73000000D03*
X80000000Y-68000000D03*
X100000000Y-73000000D03*
D13*
X120000000Y-97500000D03*
X80000000Y-43500000D03*
D14*
X120000000Y-73000000D03*
X60000000Y-73000000D03*
X120000000Y-68000000D03*
D13*
X60000000Y-97500000D03*
X100000000Y-97500000D03*
X80000000Y-97500000D03*
D14*
X60000000Y-68000000D03*
X100000000Y-68000000D03*
D13*
X100000000Y-43500000D03*
D15*
X104000000Y-120000000D03*
%TD*%
%TA.AperFunction,NonConductor*%
G36*
X54826693Y-30520185D02*
G01*
X54872448Y-30572989D01*
X54882392Y-30642147D01*
X54853367Y-30705703D01*
X54825626Y-30729494D01*
X54592795Y-30875791D01*
X54364435Y-31057901D01*
X54157901Y-31264435D01*
X53975791Y-31492795D01*
X53820393Y-31740109D01*
X53693665Y-32003261D01*
X53597197Y-32278953D01*
X53597196Y-32278955D01*
X53532202Y-32563714D01*
X53532199Y-32563728D01*
X53499500Y-32853952D01*
X53499500Y-33146047D01*
X53532199Y-33436271D01*
X53532202Y-33436285D01*
X53597196Y-33721044D01*
X53597197Y-33721046D01*
X53693665Y-33996738D01*
X53820393Y-34259890D01*
X53820395Y-34259893D01*
X53975792Y-34507206D01*
X54157902Y-34735565D01*
X54364435Y-34942098D01*
X54592794Y-35124208D01*
X54840107Y-35279605D01*
X55103263Y-35406335D01*
X55378955Y-35502803D01*
X55663714Y-35567798D01*
X55663723Y-35567799D01*
X55663728Y-35567800D01*
X55857210Y-35589599D01*
X55953953Y-35600499D01*
X55953956Y-35600500D01*
X55953959Y-35600500D01*
X59046044Y-35600500D01*
X59046045Y-35600499D01*
X59194371Y-35583787D01*
X59336271Y-35567800D01*
X59336274Y-35567799D01*
X59336286Y-35567798D01*
X59621045Y-35502803D01*
X59896737Y-35406335D01*
X60159893Y-35279605D01*
X60407206Y-35124208D01*
X60635565Y-34942098D01*
X60842098Y-34735565D01*
X61024208Y-34507206D01*
X61179605Y-34259893D01*
X61306335Y-33996737D01*
X61402803Y-33721045D01*
X61467798Y-33436286D01*
X61500500Y-33146041D01*
X61500500Y-32853959D01*
X61467798Y-32563714D01*
X61402803Y-32278955D01*
X61306335Y-32003263D01*
X61179605Y-31740107D01*
X61024208Y-31492794D01*
X60842098Y-31264435D01*
X60635565Y-31057902D01*
X60407206Y-30875792D01*
X60174374Y-30729494D01*
X60128083Y-30677159D01*
X60117435Y-30608106D01*
X60145810Y-30544257D01*
X60204199Y-30505885D01*
X60240346Y-30500500D01*
X119759654Y-30500500D01*
X119826693Y-30520185D01*
X119872448Y-30572989D01*
X119882392Y-30642147D01*
X119853367Y-30705703D01*
X119825626Y-30729494D01*
X119592795Y-30875791D01*
X119364435Y-31057901D01*
X119157901Y-31264435D01*
X118975791Y-31492795D01*
X118820393Y-31740109D01*
X118693665Y-32003261D01*
X118597197Y-32278953D01*
X118597196Y-32278955D01*
X118532202Y-32563714D01*
X118532199Y-32563728D01*
X118499500Y-32853952D01*
X118499500Y-33146047D01*
X118532199Y-33436271D01*
X118532202Y-33436285D01*
X118597196Y-33721044D01*
X118597197Y-33721046D01*
X118693665Y-33996738D01*
X118820393Y-34259890D01*
X118820395Y-34259893D01*
X118975792Y-34507206D01*
X119157902Y-34735565D01*
X119364435Y-34942098D01*
X119592794Y-35124208D01*
X119840107Y-35279605D01*
X120103263Y-35406335D01*
X120378955Y-35502803D01*
X120663714Y-35567798D01*
X120663723Y-35567799D01*
X120663728Y-35567800D01*
X120857210Y-35589599D01*
X120953953Y-35600499D01*
X120953956Y-35600500D01*
X120953959Y-35600500D01*
X124046044Y-35600500D01*
X124046045Y-35600499D01*
X124194371Y-35583787D01*
X124336271Y-35567800D01*
X124336274Y-35567799D01*
X124336286Y-35567798D01*
X124621045Y-35502803D01*
X124896737Y-35406335D01*
X125159893Y-35279605D01*
X125407206Y-35124208D01*
X125635565Y-34942098D01*
X125842098Y-34735565D01*
X126024208Y-34507206D01*
X126179605Y-34259893D01*
X126306335Y-33996737D01*
X126402803Y-33721045D01*
X126467798Y-33436286D01*
X126500500Y-33146041D01*
X126500500Y-32853959D01*
X126467798Y-32563714D01*
X126402803Y-32278955D01*
X126306335Y-32003263D01*
X126179605Y-31740107D01*
X126024208Y-31492794D01*
X125842098Y-31264435D01*
X125635565Y-31057902D01*
X125407206Y-30875792D01*
X125174374Y-30729494D01*
X125128083Y-30677159D01*
X125117435Y-30608106D01*
X125145810Y-30544257D01*
X125204199Y-30505885D01*
X125240346Y-30500500D01*
X129375500Y-30500500D01*
X129442539Y-30520185D01*
X129488294Y-30572989D01*
X129499500Y-30624500D01*
X129499500Y-157875500D01*
X129479815Y-157942539D01*
X129427011Y-157988294D01*
X129375500Y-157999500D01*
X125240346Y-157999500D01*
X125173307Y-157979815D01*
X125127552Y-157927011D01*
X125117608Y-157857853D01*
X125146633Y-157794297D01*
X125174374Y-157770506D01*
X125176577Y-157769121D01*
X125407206Y-157624208D01*
X125635565Y-157442098D01*
X125842098Y-157235565D01*
X126024208Y-157007206D01*
X126179605Y-156759893D01*
X126306335Y-156496737D01*
X126402803Y-156221045D01*
X126467798Y-155936286D01*
X126500500Y-155646041D01*
X126500500Y-155353959D01*
X126467798Y-155063714D01*
X126402803Y-154778955D01*
X126306335Y-154503263D01*
X126179605Y-154240107D01*
X126024208Y-153992794D01*
X125842098Y-153764435D01*
X125635565Y-153557902D01*
X125407206Y-153375792D01*
X125159893Y-153220395D01*
X125159890Y-153220393D01*
X124896738Y-153093665D01*
X124621046Y-152997197D01*
X124621044Y-152997196D01*
X124401280Y-152947036D01*
X124336286Y-152932202D01*
X124336283Y-152932201D01*
X124336271Y-152932199D01*
X124046047Y-152899500D01*
X124046041Y-152899500D01*
X120953959Y-152899500D01*
X120953952Y-152899500D01*
X120663728Y-152932199D01*
X120663714Y-152932202D01*
X120378955Y-152997196D01*
X120378953Y-152997197D01*
X120103261Y-153093665D01*
X119840109Y-153220393D01*
X119592795Y-153375791D01*
X119364435Y-153557901D01*
X119157901Y-153764435D01*
X118975791Y-153992795D01*
X118820393Y-154240109D01*
X118693665Y-154503261D01*
X118597197Y-154778953D01*
X118597196Y-154778955D01*
X118532202Y-155063714D01*
X118532199Y-155063728D01*
X118499500Y-155353952D01*
X118499500Y-155646047D01*
X118532199Y-155936271D01*
X118532202Y-155936285D01*
X118597196Y-156221044D01*
X118597197Y-156221046D01*
X118693665Y-156496738D01*
X118820393Y-156759890D01*
X118820395Y-156759893D01*
X118975792Y-157007206D01*
X119157902Y-157235565D01*
X119364435Y-157442098D01*
X119592794Y-157624208D01*
X119821259Y-157767762D01*
X119825626Y-157770506D01*
X119871917Y-157822841D01*
X119882565Y-157891894D01*
X119854190Y-157955743D01*
X119795801Y-157994115D01*
X119759654Y-157999500D01*
X60240346Y-157999500D01*
X60173307Y-157979815D01*
X60127552Y-157927011D01*
X60117608Y-157857853D01*
X60146633Y-157794297D01*
X60174374Y-157770506D01*
X60176577Y-157769121D01*
X60407206Y-157624208D01*
X60635565Y-157442098D01*
X60842098Y-157235565D01*
X61024208Y-157007206D01*
X61179605Y-156759893D01*
X61306335Y-156496737D01*
X61402803Y-156221045D01*
X61467798Y-155936286D01*
X61500500Y-155646041D01*
X61500500Y-155353959D01*
X61467798Y-155063714D01*
X61402803Y-154778955D01*
X61306335Y-154503263D01*
X61179605Y-154240107D01*
X61024208Y-153992794D01*
X60842098Y-153764435D01*
X60635565Y-153557902D01*
X60407206Y-153375792D01*
X60159893Y-153220395D01*
X60159890Y-153220393D01*
X59896738Y-153093665D01*
X59621046Y-152997197D01*
X59621044Y-152997196D01*
X59401280Y-152947036D01*
X59336286Y-152932202D01*
X59336283Y-152932201D01*
X59336271Y-152932199D01*
X59046047Y-152899500D01*
X59046041Y-152899500D01*
X55953959Y-152899500D01*
X55953952Y-152899500D01*
X55663728Y-152932199D01*
X55663714Y-152932202D01*
X55378955Y-152997196D01*
X55378953Y-152997197D01*
X55103261Y-153093665D01*
X54840109Y-153220393D01*
X54592795Y-153375791D01*
X54364435Y-153557901D01*
X54157901Y-153764435D01*
X53975791Y-153992795D01*
X53820393Y-154240109D01*
X53693665Y-154503261D01*
X53597197Y-154778953D01*
X53597196Y-154778955D01*
X53532202Y-155063714D01*
X53532199Y-155063728D01*
X53499500Y-155353952D01*
X53499500Y-155646047D01*
X53532199Y-155936271D01*
X53532202Y-155936285D01*
X53597196Y-156221044D01*
X53597197Y-156221046D01*
X53693665Y-156496738D01*
X53820393Y-156759890D01*
X53820395Y-156759893D01*
X53975792Y-157007206D01*
X54157902Y-157235565D01*
X54364435Y-157442098D01*
X54592794Y-157624208D01*
X54821259Y-157767762D01*
X54825626Y-157770506D01*
X54871917Y-157822841D01*
X54882565Y-157891894D01*
X54854190Y-157955743D01*
X54795801Y-157994115D01*
X54759654Y-157999500D01*
X50624500Y-157999500D01*
X50557461Y-157979815D01*
X50511706Y-157927011D01*
X50500500Y-157875500D01*
X50500500Y-142720000D01*
X57494675Y-142720000D01*
X57513962Y-143112591D01*
X57513962Y-143112597D01*
X57513963Y-143112599D01*
X57571637Y-143501406D01*
X57667143Y-143882684D01*
X57799561Y-144252770D01*
X57799562Y-144252772D01*
X57967620Y-144608100D01*
X58169692Y-144945236D01*
X58403846Y-145260956D01*
X58667807Y-145552192D01*
X58959043Y-145816153D01*
X58959049Y-145816158D01*
X59274761Y-146050306D01*
X59274763Y-146050307D01*
X59611899Y-146252379D01*
X59611902Y-146252380D01*
X59611903Y-146252381D01*
X59967228Y-146420438D01*
X60337316Y-146552857D01*
X60718600Y-146648364D01*
X61107409Y-146706038D01*
X61500000Y-146725325D01*
X61892591Y-146706038D01*
X62281400Y-146648364D01*
X62662684Y-146552857D01*
X63032772Y-146420438D01*
X63388097Y-146252381D01*
X63725239Y-146050306D01*
X64040951Y-145816158D01*
X64332192Y-145552192D01*
X64596158Y-145260951D01*
X64830306Y-144945239D01*
X65032381Y-144608097D01*
X65200438Y-144252772D01*
X65332857Y-143882684D01*
X65428364Y-143501400D01*
X65486038Y-143112591D01*
X65505325Y-142720000D01*
X75994675Y-142720000D01*
X76013962Y-143112591D01*
X76013962Y-143112597D01*
X76013963Y-143112599D01*
X76071637Y-143501406D01*
X76167143Y-143882684D01*
X76299561Y-144252770D01*
X76299562Y-144252772D01*
X76467620Y-144608100D01*
X76669692Y-144945236D01*
X76903846Y-145260956D01*
X77167807Y-145552192D01*
X77459043Y-145816153D01*
X77459049Y-145816158D01*
X77774761Y-146050306D01*
X77774763Y-146050307D01*
X78111899Y-146252379D01*
X78111902Y-146252380D01*
X78111903Y-146252381D01*
X78467228Y-146420438D01*
X78837316Y-146552857D01*
X79218600Y-146648364D01*
X79607409Y-146706038D01*
X80000000Y-146725325D01*
X80392591Y-146706038D01*
X80781400Y-146648364D01*
X81162684Y-146552857D01*
X81532772Y-146420438D01*
X81888097Y-146252381D01*
X82225239Y-146050306D01*
X82540951Y-145816158D01*
X82832192Y-145552192D01*
X83096158Y-145260951D01*
X83330306Y-144945239D01*
X83532381Y-144608097D01*
X83700438Y-144252772D01*
X83832857Y-143882684D01*
X83928364Y-143501400D01*
X83986038Y-143112591D01*
X84005325Y-142720000D01*
X83994517Y-142500000D01*
X118994675Y-142500000D01*
X119013962Y-142892591D01*
X119013962Y-142892597D01*
X119013963Y-142892599D01*
X119071637Y-143281406D01*
X119167143Y-143662684D01*
X119299561Y-144032770D01*
X119299562Y-144032772D01*
X119467620Y-144388100D01*
X119669692Y-144725236D01*
X119903846Y-145040956D01*
X120167807Y-145332192D01*
X120410540Y-145552192D01*
X120459049Y-145596158D01*
X120774761Y-145830306D01*
X120774763Y-145830307D01*
X121111899Y-146032379D01*
X121111902Y-146032380D01*
X121111903Y-146032381D01*
X121467228Y-146200438D01*
X121837316Y-146332857D01*
X122218600Y-146428364D01*
X122607409Y-146486038D01*
X123000000Y-146505325D01*
X123392591Y-146486038D01*
X123781400Y-146428364D01*
X124162684Y-146332857D01*
X124532772Y-146200438D01*
X124888097Y-146032381D01*
X125225239Y-145830306D01*
X125540951Y-145596158D01*
X125832192Y-145332192D01*
X126096158Y-145040951D01*
X126330306Y-144725239D01*
X126532381Y-144388097D01*
X126700438Y-144032772D01*
X126832857Y-143662684D01*
X126928364Y-143281400D01*
X126986038Y-142892591D01*
X127005325Y-142500000D01*
X126986038Y-142107409D01*
X126928364Y-141718600D01*
X126832857Y-141337316D01*
X126700438Y-140967228D01*
X126532381Y-140611903D01*
X126330306Y-140274761D01*
X126096158Y-139959049D01*
X126031588Y-139887807D01*
X125832192Y-139667807D01*
X125540956Y-139403846D01*
X125521874Y-139389694D01*
X125225239Y-139169694D01*
X125225236Y-139169692D01*
X124888100Y-138967620D01*
X124532772Y-138799562D01*
X124532770Y-138799561D01*
X124162684Y-138667143D01*
X123781406Y-138571637D01*
X123781401Y-138571636D01*
X123781400Y-138571636D01*
X123637256Y-138550254D01*
X123392599Y-138513963D01*
X123392597Y-138513962D01*
X123392591Y-138513962D01*
X123000000Y-138494675D01*
X122607409Y-138513962D01*
X122607403Y-138513962D01*
X122607400Y-138513963D01*
X122218593Y-138571637D01*
X121837315Y-138667143D01*
X121467229Y-138799561D01*
X121467227Y-138799562D01*
X121111899Y-138967620D01*
X120774763Y-139169692D01*
X120459043Y-139403846D01*
X120167807Y-139667807D01*
X119903846Y-139959043D01*
X119669692Y-140274763D01*
X119467620Y-140611899D01*
X119299562Y-140967227D01*
X119299561Y-140967229D01*
X119167143Y-141337315D01*
X119071637Y-141718593D01*
X119071636Y-141718600D01*
X119013962Y-142107409D01*
X118994675Y-142500000D01*
X83994517Y-142500000D01*
X83986038Y-142327409D01*
X83928364Y-141938600D01*
X83832857Y-141557316D01*
X83700438Y-141187228D01*
X83532381Y-140831903D01*
X83330306Y-140494761D01*
X83096158Y-140179049D01*
X83096153Y-140179043D01*
X82832192Y-139887807D01*
X82540956Y-139623846D01*
X82244320Y-139403846D01*
X82225239Y-139389694D01*
X82225236Y-139389692D01*
X81888100Y-139187620D01*
X81532772Y-139019562D01*
X81532770Y-139019561D01*
X81162684Y-138887143D01*
X80781406Y-138791637D01*
X80781401Y-138791636D01*
X80781400Y-138791636D01*
X80637256Y-138770254D01*
X80392599Y-138733963D01*
X80392597Y-138733962D01*
X80392591Y-138733962D01*
X80000000Y-138714675D01*
X79607409Y-138733962D01*
X79607403Y-138733962D01*
X79607400Y-138733963D01*
X79218593Y-138791637D01*
X78837315Y-138887143D01*
X78467229Y-139019561D01*
X78467227Y-139019562D01*
X78111899Y-139187620D01*
X77774763Y-139389692D01*
X77459043Y-139623846D01*
X77167807Y-139887807D01*
X76903846Y-140179043D01*
X76669692Y-140494763D01*
X76467620Y-140831899D01*
X76299562Y-141187227D01*
X76299561Y-141187229D01*
X76167143Y-141557315D01*
X76071637Y-141938593D01*
X76071636Y-141938600D01*
X76013962Y-142327409D01*
X75994675Y-142720000D01*
X65505325Y-142720000D01*
X65486038Y-142327409D01*
X65428364Y-141938600D01*
X65332857Y-141557316D01*
X65200438Y-141187228D01*
X65032381Y-140831903D01*
X64830306Y-140494761D01*
X64596158Y-140179049D01*
X64596153Y-140179043D01*
X64332192Y-139887807D01*
X64040956Y-139623846D01*
X63744320Y-139403846D01*
X63725239Y-139389694D01*
X63725236Y-139389692D01*
X63388100Y-139187620D01*
X63032772Y-139019562D01*
X63032770Y-139019561D01*
X62662684Y-138887143D01*
X62281406Y-138791637D01*
X62281401Y-138791636D01*
X62281400Y-138791636D01*
X62137256Y-138770254D01*
X61892599Y-138733963D01*
X61892597Y-138733962D01*
X61892591Y-138733962D01*
X61500000Y-138714675D01*
X61107409Y-138733962D01*
X61107403Y-138733962D01*
X61107400Y-138733963D01*
X60718593Y-138791637D01*
X60337315Y-138887143D01*
X59967229Y-139019561D01*
X59967227Y-139019562D01*
X59611899Y-139187620D01*
X59274763Y-139389692D01*
X58959043Y-139623846D01*
X58667807Y-139887807D01*
X58403846Y-140179043D01*
X58169692Y-140494763D01*
X57967620Y-140831899D01*
X57799562Y-141187227D01*
X57799561Y-141187229D01*
X57667143Y-141557315D01*
X57571637Y-141938593D01*
X57571636Y-141938600D01*
X57513962Y-142327409D01*
X57494675Y-142720000D01*
X50500500Y-142720000D01*
X50500500Y-114434108D01*
X50999500Y-114434108D01*
X50999500Y-133565891D01*
X51033608Y-133693187D01*
X51066554Y-133750250D01*
X51099500Y-133807314D01*
X51192686Y-133900500D01*
X51306814Y-133966392D01*
X51434108Y-134000500D01*
X51434110Y-134000500D01*
X91065890Y-134000500D01*
X91065892Y-134000500D01*
X91193186Y-133966392D01*
X91307314Y-133900500D01*
X91400500Y-133807314D01*
X91466392Y-133693186D01*
X91500500Y-133565892D01*
X91500500Y-120000000D01*
X98894641Y-120000000D01*
X98914067Y-120444959D01*
X98972201Y-120886523D01*
X98972202Y-120886532D01*
X99068603Y-121321369D01*
X99202533Y-121746139D01*
X99202538Y-121746152D01*
X99372974Y-122157622D01*
X99578623Y-122552670D01*
X99817937Y-122928318D01*
X100089062Y-123281655D01*
X100089066Y-123281660D01*
X100389965Y-123610033D01*
X100389966Y-123610034D01*
X100718339Y-123910933D01*
X100718344Y-123910937D01*
X101071681Y-124182062D01*
X101071686Y-124182065D01*
X101447320Y-124421371D01*
X101447330Y-124421376D01*
X101447329Y-124421376D01*
X101842377Y-124627025D01*
X101842382Y-124627027D01*
X102253864Y-124797468D01*
X102678636Y-124931398D01*
X103113464Y-125027797D01*
X103555039Y-125085932D01*
X104000000Y-125105359D01*
X104444961Y-125085932D01*
X104886536Y-125027797D01*
X105321364Y-124931398D01*
X105746136Y-124797468D01*
X106157618Y-124627027D01*
X106459264Y-124470000D01*
X118994675Y-124470000D01*
X119013962Y-124862591D01*
X119013962Y-124862597D01*
X119013963Y-124862599D01*
X119071637Y-125251406D01*
X119167143Y-125632684D01*
X119299561Y-126002770D01*
X119299562Y-126002772D01*
X119467620Y-126358100D01*
X119669692Y-126695236D01*
X119903846Y-127010956D01*
X120167807Y-127302192D01*
X120459043Y-127566153D01*
X120459049Y-127566158D01*
X120774761Y-127800306D01*
X120774763Y-127800307D01*
X121111899Y-128002379D01*
X121111902Y-128002380D01*
X121111903Y-128002381D01*
X121467228Y-128170438D01*
X121837316Y-128302857D01*
X122218600Y-128398364D01*
X122607409Y-128456038D01*
X123000000Y-128475325D01*
X123392591Y-128456038D01*
X123781400Y-128398364D01*
X124162684Y-128302857D01*
X124532772Y-128170438D01*
X124888097Y-128002381D01*
X125225239Y-127800306D01*
X125540951Y-127566158D01*
X125832192Y-127302192D01*
X126096158Y-127010951D01*
X126330306Y-126695239D01*
X126532381Y-126358097D01*
X126700438Y-126002772D01*
X126832857Y-125632684D01*
X126928364Y-125251400D01*
X126986038Y-124862591D01*
X127005325Y-124470000D01*
X126986038Y-124077409D01*
X126928364Y-123688600D01*
X126832857Y-123307316D01*
X126700438Y-122937228D01*
X126532381Y-122581903D01*
X126514865Y-122552680D01*
X126330307Y-122244763D01*
X126265676Y-122157618D01*
X126096158Y-121929049D01*
X126096153Y-121929043D01*
X125832192Y-121637807D01*
X125540956Y-121373846D01*
X125470192Y-121321364D01*
X125225239Y-121139694D01*
X125225236Y-121139692D01*
X124888100Y-120937620D01*
X124532772Y-120769562D01*
X124532770Y-120769561D01*
X124162684Y-120637143D01*
X123781406Y-120541637D01*
X123781401Y-120541636D01*
X123781400Y-120541636D01*
X123637256Y-120520254D01*
X123392599Y-120483963D01*
X123392597Y-120483962D01*
X123392591Y-120483962D01*
X123000000Y-120464675D01*
X122607409Y-120483962D01*
X122607403Y-120483962D01*
X122607400Y-120483963D01*
X122218593Y-120541637D01*
X121837315Y-120637143D01*
X121467229Y-120769561D01*
X121467227Y-120769562D01*
X121111899Y-120937620D01*
X120774763Y-121139692D01*
X120459043Y-121373846D01*
X120167807Y-121637807D01*
X119903846Y-121929043D01*
X119669692Y-122244763D01*
X119467620Y-122581899D01*
X119299562Y-122937227D01*
X119299561Y-122937229D01*
X119167143Y-123307315D01*
X119071637Y-123688593D01*
X119038656Y-123910937D01*
X119013962Y-124077409D01*
X118994675Y-124470000D01*
X106459264Y-124470000D01*
X106552680Y-124421371D01*
X106928314Y-124182065D01*
X107281662Y-123910932D01*
X107610034Y-123610034D01*
X107910932Y-123281662D01*
X108182065Y-122928314D01*
X108421371Y-122552680D01*
X108627027Y-122157618D01*
X108797468Y-121746136D01*
X108931398Y-121321364D01*
X109027797Y-120886536D01*
X109085932Y-120444961D01*
X109105359Y-120000000D01*
X109085932Y-119555039D01*
X109027797Y-119113464D01*
X108931398Y-118678636D01*
X108797468Y-118253864D01*
X108627027Y-117842382D01*
X108627025Y-117842377D01*
X108421376Y-117447330D01*
X108421374Y-117447327D01*
X108421371Y-117447321D01*
X108182065Y-117071686D01*
X108182062Y-117071681D01*
X107910937Y-116718344D01*
X107910933Y-116718339D01*
X107610034Y-116389966D01*
X107610033Y-116389965D01*
X107281660Y-116089066D01*
X107281655Y-116089062D01*
X106928318Y-115817937D01*
X106795957Y-115733614D01*
X106552680Y-115578629D01*
X106552671Y-115578624D01*
X106552669Y-115578623D01*
X106552670Y-115578623D01*
X106157622Y-115372974D01*
X105746152Y-115202538D01*
X105746139Y-115202533D01*
X105321369Y-115068603D01*
X104886532Y-114972202D01*
X104886523Y-114972201D01*
X104444959Y-114914067D01*
X104000000Y-114894641D01*
X103555040Y-114914067D01*
X103113476Y-114972201D01*
X103113467Y-114972202D01*
X102678630Y-115068603D01*
X102253860Y-115202533D01*
X102253847Y-115202538D01*
X101842377Y-115372974D01*
X101447330Y-115578623D01*
X101071681Y-115817937D01*
X100718344Y-116089062D01*
X100718339Y-116089066D01*
X100389966Y-116389965D01*
X100389965Y-116389966D01*
X100089066Y-116718339D01*
X100089062Y-116718344D01*
X99817937Y-117071681D01*
X99578623Y-117447330D01*
X99372974Y-117842377D01*
X99202538Y-118253847D01*
X99202533Y-118253860D01*
X99068603Y-118678630D01*
X98972202Y-119113467D01*
X98972201Y-119113476D01*
X98914067Y-119555040D01*
X98894641Y-120000000D01*
X91500500Y-120000000D01*
X91500500Y-114434108D01*
X91466392Y-114306814D01*
X91400500Y-114192686D01*
X91307314Y-114099500D01*
X91250250Y-114066554D01*
X91193187Y-114033608D01*
X91129539Y-114016554D01*
X91065892Y-113999500D01*
X51565892Y-113999500D01*
X51434108Y-113999500D01*
X51306812Y-114033608D01*
X51192686Y-114099500D01*
X51192683Y-114099502D01*
X51099502Y-114192683D01*
X51099500Y-114192686D01*
X51033608Y-114306812D01*
X50999500Y-114434108D01*
X50500500Y-114434108D01*
X50500500Y-97499999D01*
X56394559Y-97499999D01*
X56394559Y-97500000D01*
X56414310Y-97876872D01*
X56473346Y-98249607D01*
X56473347Y-98249614D01*
X56571023Y-98614147D01*
X56706267Y-98966468D01*
X56877599Y-99302725D01*
X57083135Y-99619223D01*
X57083137Y-99619225D01*
X57320635Y-99912511D01*
X57587489Y-100179365D01*
X57587493Y-100179368D01*
X57880776Y-100416864D01*
X58197274Y-100622400D01*
X58197279Y-100622403D01*
X58533535Y-100793734D01*
X58885857Y-100928978D01*
X59250387Y-101026653D01*
X59623129Y-101085690D01*
X59979155Y-101104348D01*
X59999999Y-101105441D01*
X60000000Y-101105441D01*
X60000001Y-101105441D01*
X60019752Y-101104405D01*
X60376871Y-101085690D01*
X60749613Y-101026653D01*
X61114143Y-100928978D01*
X61466465Y-100793734D01*
X61802721Y-100622403D01*
X62119225Y-100416863D01*
X62412511Y-100179365D01*
X62679365Y-99912511D01*
X62916863Y-99619225D01*
X63122403Y-99302721D01*
X63293734Y-98966465D01*
X63428978Y-98614143D01*
X63526653Y-98249613D01*
X63585690Y-97876871D01*
X63605441Y-97500000D01*
X63605441Y-97499999D01*
X76394559Y-97499999D01*
X76394559Y-97500000D01*
X76414310Y-97876872D01*
X76473346Y-98249607D01*
X76473347Y-98249614D01*
X76571023Y-98614147D01*
X76706267Y-98966468D01*
X76877599Y-99302725D01*
X77083135Y-99619223D01*
X77083137Y-99619225D01*
X77320635Y-99912511D01*
X77587489Y-100179365D01*
X77587493Y-100179368D01*
X77880776Y-100416864D01*
X78197274Y-100622400D01*
X78197279Y-100622403D01*
X78533535Y-100793734D01*
X78885857Y-100928978D01*
X79250387Y-101026653D01*
X79623129Y-101085690D01*
X79979155Y-101104348D01*
X79999999Y-101105441D01*
X80000000Y-101105441D01*
X80000001Y-101105441D01*
X80019752Y-101104405D01*
X80376871Y-101085690D01*
X80749613Y-101026653D01*
X81114143Y-100928978D01*
X81466465Y-100793734D01*
X81802721Y-100622403D01*
X82119225Y-100416863D01*
X82412511Y-100179365D01*
X82679365Y-99912511D01*
X82916863Y-99619225D01*
X83122403Y-99302721D01*
X83293734Y-98966465D01*
X83428978Y-98614143D01*
X83526653Y-98249613D01*
X83585690Y-97876871D01*
X83605441Y-97500000D01*
X83605441Y-97499999D01*
X96394559Y-97499999D01*
X96394559Y-97500000D01*
X96414310Y-97876872D01*
X96473346Y-98249607D01*
X96473347Y-98249614D01*
X96571023Y-98614147D01*
X96706267Y-98966468D01*
X96877599Y-99302725D01*
X97083135Y-99619223D01*
X97083137Y-99619225D01*
X97320635Y-99912511D01*
X97587489Y-100179365D01*
X97587493Y-100179368D01*
X97880776Y-100416864D01*
X98197274Y-100622400D01*
X98197279Y-100622403D01*
X98533535Y-100793734D01*
X98885857Y-100928978D01*
X99250387Y-101026653D01*
X99623129Y-101085690D01*
X99979155Y-101104348D01*
X99999999Y-101105441D01*
X100000000Y-101105441D01*
X100000001Y-101105441D01*
X100019752Y-101104405D01*
X100376871Y-101085690D01*
X100749613Y-101026653D01*
X101114143Y-100928978D01*
X101466465Y-100793734D01*
X101802721Y-100622403D01*
X102119225Y-100416863D01*
X102412511Y-100179365D01*
X102679365Y-99912511D01*
X102916863Y-99619225D01*
X103122403Y-99302721D01*
X103293734Y-98966465D01*
X103428978Y-98614143D01*
X103526653Y-98249613D01*
X103585690Y-97876871D01*
X103605441Y-97500000D01*
X103605441Y-97499999D01*
X116394559Y-97499999D01*
X116394559Y-97500000D01*
X116414310Y-97876872D01*
X116473346Y-98249607D01*
X116473347Y-98249614D01*
X116571023Y-98614147D01*
X116706267Y-98966468D01*
X116877599Y-99302725D01*
X117083135Y-99619223D01*
X117083137Y-99619225D01*
X117320635Y-99912511D01*
X117587489Y-100179365D01*
X117587493Y-100179368D01*
X117880776Y-100416864D01*
X118197274Y-100622400D01*
X118197279Y-100622403D01*
X118533535Y-100793734D01*
X118885857Y-100928978D01*
X119250387Y-101026653D01*
X119623129Y-101085690D01*
X119979155Y-101104348D01*
X119999999Y-101105441D01*
X120000000Y-101105441D01*
X120000001Y-101105441D01*
X120019752Y-101104405D01*
X120376871Y-101085690D01*
X120749613Y-101026653D01*
X121114143Y-100928978D01*
X121466465Y-100793734D01*
X121802721Y-100622403D01*
X122119225Y-100416863D01*
X122412511Y-100179365D01*
X122679365Y-99912511D01*
X122916863Y-99619225D01*
X123122403Y-99302721D01*
X123293734Y-98966465D01*
X123428978Y-98614143D01*
X123526653Y-98249613D01*
X123585690Y-97876871D01*
X123605441Y-97500000D01*
X123585690Y-97123129D01*
X123526653Y-96750387D01*
X123428978Y-96385857D01*
X123293734Y-96033535D01*
X123122403Y-95697280D01*
X122916863Y-95380775D01*
X122679365Y-95087489D01*
X122412511Y-94820635D01*
X122119225Y-94583137D01*
X122119223Y-94583135D01*
X121802725Y-94377599D01*
X121466468Y-94206267D01*
X121114147Y-94071023D01*
X120749614Y-93973347D01*
X120749607Y-93973346D01*
X120376872Y-93914310D01*
X120000001Y-93894559D01*
X119999999Y-93894559D01*
X119623127Y-93914310D01*
X119250392Y-93973346D01*
X119250385Y-93973347D01*
X118885852Y-94071023D01*
X118533531Y-94206267D01*
X118197275Y-94377599D01*
X117880776Y-94583135D01*
X117587493Y-94820631D01*
X117587485Y-94820638D01*
X117320638Y-95087485D01*
X117320631Y-95087493D01*
X117083135Y-95380776D01*
X116877599Y-95697275D01*
X116706267Y-96033531D01*
X116571023Y-96385852D01*
X116473347Y-96750385D01*
X116473346Y-96750392D01*
X116414310Y-97123127D01*
X116394559Y-97499999D01*
X103605441Y-97499999D01*
X103585690Y-97123129D01*
X103526653Y-96750387D01*
X103428978Y-96385857D01*
X103293734Y-96033535D01*
X103122403Y-95697280D01*
X102916863Y-95380775D01*
X102679365Y-95087489D01*
X102412511Y-94820635D01*
X102119225Y-94583137D01*
X102119223Y-94583135D01*
X101802725Y-94377599D01*
X101466468Y-94206267D01*
X101114147Y-94071023D01*
X100749614Y-93973347D01*
X100749607Y-93973346D01*
X100376872Y-93914310D01*
X100000001Y-93894559D01*
X99999999Y-93894559D01*
X99623127Y-93914310D01*
X99250392Y-93973346D01*
X99250385Y-93973347D01*
X98885852Y-94071023D01*
X98533531Y-94206267D01*
X98197275Y-94377599D01*
X97880776Y-94583135D01*
X97587493Y-94820631D01*
X97587485Y-94820638D01*
X97320638Y-95087485D01*
X97320631Y-95087493D01*
X97083135Y-95380776D01*
X96877599Y-95697275D01*
X96706267Y-96033531D01*
X96571023Y-96385852D01*
X96473347Y-96750385D01*
X96473346Y-96750392D01*
X96414310Y-97123127D01*
X96394559Y-97499999D01*
X83605441Y-97499999D01*
X83585690Y-97123129D01*
X83526653Y-96750387D01*
X83428978Y-96385857D01*
X83293734Y-96033535D01*
X83122403Y-95697280D01*
X82916863Y-95380775D01*
X82679365Y-95087489D01*
X82412511Y-94820635D01*
X82119225Y-94583137D01*
X82119223Y-94583135D01*
X81802725Y-94377599D01*
X81466468Y-94206267D01*
X81114147Y-94071023D01*
X80749614Y-93973347D01*
X80749607Y-93973346D01*
X80376872Y-93914310D01*
X80000001Y-93894559D01*
X79999999Y-93894559D01*
X79623127Y-93914310D01*
X79250392Y-93973346D01*
X79250385Y-93973347D01*
X78885852Y-94071023D01*
X78533531Y-94206267D01*
X78197275Y-94377599D01*
X77880776Y-94583135D01*
X77587493Y-94820631D01*
X77587485Y-94820638D01*
X77320638Y-95087485D01*
X77320631Y-95087493D01*
X77083135Y-95380776D01*
X76877599Y-95697275D01*
X76706267Y-96033531D01*
X76571023Y-96385852D01*
X76473347Y-96750385D01*
X76473346Y-96750392D01*
X76414310Y-97123127D01*
X76394559Y-97499999D01*
X63605441Y-97499999D01*
X63585690Y-97123129D01*
X63526653Y-96750387D01*
X63428978Y-96385857D01*
X63293734Y-96033535D01*
X63122403Y-95697280D01*
X62916863Y-95380775D01*
X62679365Y-95087489D01*
X62412511Y-94820635D01*
X62119225Y-94583137D01*
X62119223Y-94583135D01*
X61802725Y-94377599D01*
X61466468Y-94206267D01*
X61114147Y-94071023D01*
X60749614Y-93973347D01*
X60749607Y-93973346D01*
X60376872Y-93914310D01*
X60000001Y-93894559D01*
X59999999Y-93894559D01*
X59623127Y-93914310D01*
X59250392Y-93973346D01*
X59250385Y-93973347D01*
X58885852Y-94071023D01*
X58533531Y-94206267D01*
X58197275Y-94377599D01*
X57880776Y-94583135D01*
X57587493Y-94820631D01*
X57587485Y-94820638D01*
X57320638Y-95087485D01*
X57320631Y-95087493D01*
X57083135Y-95380776D01*
X56877599Y-95697275D01*
X56706267Y-96033531D01*
X56571023Y-96385852D01*
X56473347Y-96750385D01*
X56473346Y-96750392D01*
X56414310Y-97123127D01*
X56394559Y-97499999D01*
X50500500Y-97499999D01*
X50500500Y-85000000D01*
X55494693Y-85000000D01*
X55513912Y-85415697D01*
X55513912Y-85415702D01*
X55513913Y-85415707D01*
X55571403Y-85827845D01*
X55571405Y-85827853D01*
X55666679Y-86232933D01*
X55798929Y-86627514D01*
X55967010Y-87008177D01*
X55967020Y-87008198D01*
X56169506Y-87371731D01*
X56169509Y-87371735D01*
X56169511Y-87371739D01*
X56404687Y-87715054D01*
X56404689Y-87715056D01*
X56404696Y-87715066D01*
X56452444Y-87772566D01*
X56670538Y-88035206D01*
X56964794Y-88329462D01*
X56964805Y-88329471D01*
X57284933Y-88595303D01*
X57284939Y-88595307D01*
X57284946Y-88595313D01*
X57628261Y-88830489D01*
X57628267Y-88830492D01*
X57628268Y-88830493D01*
X57731493Y-88887989D01*
X57991812Y-89032985D01*
X58182153Y-89117029D01*
X58372485Y-89201070D01*
X58372488Y-89201071D01*
X58372495Y-89201074D01*
X58767064Y-89333320D01*
X59172152Y-89428596D01*
X59584303Y-89486088D01*
X60000000Y-89505307D01*
X60415697Y-89486088D01*
X60827848Y-89428596D01*
X61232936Y-89333320D01*
X61627505Y-89201074D01*
X62008188Y-89032985D01*
X62371739Y-88830489D01*
X62715054Y-88595313D01*
X63035206Y-88329462D01*
X63329462Y-88035206D01*
X63595313Y-87715054D01*
X63830489Y-87371739D01*
X64032985Y-87008188D01*
X64201074Y-86627505D01*
X64333320Y-86232936D01*
X64428596Y-85827848D01*
X64486088Y-85415697D01*
X64505307Y-85000000D01*
X75494693Y-85000000D01*
X75513912Y-85415697D01*
X75513912Y-85415702D01*
X75513913Y-85415707D01*
X75571403Y-85827845D01*
X75571405Y-85827853D01*
X75666679Y-86232933D01*
X75798929Y-86627514D01*
X75967010Y-87008177D01*
X75967020Y-87008198D01*
X76169506Y-87371731D01*
X76169509Y-87371735D01*
X76169511Y-87371739D01*
X76404687Y-87715054D01*
X76404689Y-87715056D01*
X76404696Y-87715066D01*
X76452444Y-87772566D01*
X76670538Y-88035206D01*
X76964794Y-88329462D01*
X76964805Y-88329471D01*
X77284933Y-88595303D01*
X77284939Y-88595307D01*
X77284946Y-88595313D01*
X77628261Y-88830489D01*
X77628267Y-88830492D01*
X77628268Y-88830493D01*
X77731493Y-88887989D01*
X77991812Y-89032985D01*
X78182153Y-89117029D01*
X78372485Y-89201070D01*
X78372488Y-89201071D01*
X78372495Y-89201074D01*
X78767064Y-89333320D01*
X79172152Y-89428596D01*
X79584303Y-89486088D01*
X80000000Y-89505307D01*
X80415697Y-89486088D01*
X80827848Y-89428596D01*
X81232936Y-89333320D01*
X81627505Y-89201074D01*
X82008188Y-89032985D01*
X82371739Y-88830489D01*
X82715054Y-88595313D01*
X83035206Y-88329462D01*
X83329462Y-88035206D01*
X83595313Y-87715054D01*
X83830489Y-87371739D01*
X84032985Y-87008188D01*
X84201074Y-86627505D01*
X84333320Y-86232936D01*
X84428596Y-85827848D01*
X84486088Y-85415697D01*
X84505307Y-85000000D01*
X95494693Y-85000000D01*
X95513912Y-85415697D01*
X95513912Y-85415702D01*
X95513913Y-85415707D01*
X95571403Y-85827845D01*
X95571405Y-85827853D01*
X95666679Y-86232933D01*
X95798929Y-86627514D01*
X95967010Y-87008177D01*
X95967020Y-87008198D01*
X96169506Y-87371731D01*
X96169509Y-87371735D01*
X96169511Y-87371739D01*
X96404687Y-87715054D01*
X96404689Y-87715056D01*
X96404696Y-87715066D01*
X96452444Y-87772566D01*
X96670538Y-88035206D01*
X96964794Y-88329462D01*
X96964805Y-88329471D01*
X97284933Y-88595303D01*
X97284939Y-88595307D01*
X97284946Y-88595313D01*
X97628261Y-88830489D01*
X97628267Y-88830492D01*
X97628268Y-88830493D01*
X97731493Y-88887989D01*
X97991812Y-89032985D01*
X98182153Y-89117029D01*
X98372485Y-89201070D01*
X98372488Y-89201071D01*
X98372495Y-89201074D01*
X98767064Y-89333320D01*
X99172152Y-89428596D01*
X99584303Y-89486088D01*
X100000000Y-89505307D01*
X100415697Y-89486088D01*
X100827848Y-89428596D01*
X101232936Y-89333320D01*
X101627505Y-89201074D01*
X102008188Y-89032985D01*
X102371739Y-88830489D01*
X102715054Y-88595313D01*
X103035206Y-88329462D01*
X103329462Y-88035206D01*
X103595313Y-87715054D01*
X103830489Y-87371739D01*
X104032985Y-87008188D01*
X104201074Y-86627505D01*
X104333320Y-86232936D01*
X104428596Y-85827848D01*
X104486088Y-85415697D01*
X104502649Y-85057500D01*
X115494693Y-85057500D01*
X115513912Y-85473197D01*
X115513912Y-85473202D01*
X115513913Y-85473207D01*
X115571403Y-85885345D01*
X115571405Y-85885353D01*
X115666679Y-86290433D01*
X115798929Y-86685014D01*
X115967010Y-87065677D01*
X115967020Y-87065698D01*
X116169506Y-87429231D01*
X116169509Y-87429235D01*
X116169511Y-87429239D01*
X116404687Y-87772554D01*
X116404689Y-87772556D01*
X116404696Y-87772566D01*
X116622797Y-88035214D01*
X116670538Y-88092706D01*
X116964794Y-88386962D01*
X116964805Y-88386971D01*
X117284933Y-88652803D01*
X117284939Y-88652807D01*
X117284946Y-88652813D01*
X117628261Y-88887989D01*
X117628267Y-88887992D01*
X117628268Y-88887993D01*
X117888586Y-89032989D01*
X117991812Y-89090485D01*
X118182153Y-89174529D01*
X118372485Y-89258570D01*
X118372488Y-89258571D01*
X118372495Y-89258574D01*
X118767064Y-89390820D01*
X119172152Y-89486096D01*
X119584303Y-89543588D01*
X120000000Y-89562807D01*
X120415697Y-89543588D01*
X120827848Y-89486096D01*
X121232936Y-89390820D01*
X121627505Y-89258574D01*
X122008188Y-89090485D01*
X122371739Y-88887989D01*
X122715054Y-88652813D01*
X123035206Y-88386962D01*
X123329462Y-88092706D01*
X123595313Y-87772554D01*
X123830489Y-87429239D01*
X124032985Y-87065688D01*
X124201074Y-86685005D01*
X124333320Y-86290436D01*
X124428596Y-85885348D01*
X124486088Y-85473197D01*
X124505307Y-85057500D01*
X124486088Y-84641803D01*
X124428596Y-84229652D01*
X124333320Y-83824564D01*
X124201074Y-83429995D01*
X124032985Y-83049312D01*
X123830489Y-82685761D01*
X123595313Y-82342446D01*
X123595307Y-82342439D01*
X123595303Y-82342433D01*
X123329471Y-82022305D01*
X123329462Y-82022294D01*
X123035206Y-81728038D01*
X122965971Y-81670546D01*
X122715066Y-81462196D01*
X122715056Y-81462189D01*
X122715054Y-81462187D01*
X122371739Y-81227011D01*
X122371735Y-81227009D01*
X122371731Y-81227006D01*
X122008198Y-81024520D01*
X122008177Y-81024510D01*
X121627514Y-80856429D01*
X121232933Y-80724179D01*
X120827853Y-80628905D01*
X120827845Y-80628903D01*
X120415707Y-80571413D01*
X120415702Y-80571412D01*
X120415697Y-80571412D01*
X120000000Y-80552193D01*
X119584303Y-80571412D01*
X119584297Y-80571412D01*
X119584292Y-80571413D01*
X119172154Y-80628903D01*
X119172146Y-80628905D01*
X118767066Y-80724179D01*
X118372485Y-80856429D01*
X117991822Y-81024510D01*
X117991801Y-81024520D01*
X117628268Y-81227006D01*
X117628262Y-81227010D01*
X117284943Y-81462189D01*
X117284933Y-81462196D01*
X116964805Y-81728028D01*
X116964785Y-81728046D01*
X116670546Y-82022285D01*
X116670528Y-82022305D01*
X116404696Y-82342433D01*
X116404689Y-82342443D01*
X116169510Y-82685762D01*
X116169506Y-82685768D01*
X115967020Y-83049301D01*
X115967010Y-83049322D01*
X115798929Y-83429985D01*
X115666679Y-83824566D01*
X115571405Y-84229646D01*
X115571403Y-84229654D01*
X115513913Y-84641792D01*
X115513912Y-84641797D01*
X115513912Y-84641803D01*
X115494693Y-85057500D01*
X104502649Y-85057500D01*
X104505307Y-85000000D01*
X104486088Y-84584303D01*
X104428596Y-84172152D01*
X104333320Y-83767064D01*
X104201074Y-83372495D01*
X104032985Y-82991812D01*
X103830489Y-82628261D01*
X103595313Y-82284946D01*
X103595307Y-82284939D01*
X103595303Y-82284933D01*
X103329471Y-81964805D01*
X103329462Y-81964794D01*
X103035206Y-81670538D01*
X103035194Y-81670528D01*
X102715066Y-81404696D01*
X102715056Y-81404689D01*
X102715054Y-81404687D01*
X102371739Y-81169511D01*
X102371735Y-81169509D01*
X102371731Y-81169506D01*
X102008198Y-80967020D01*
X102008177Y-80967010D01*
X101627514Y-80798929D01*
X101232933Y-80666679D01*
X100827853Y-80571405D01*
X100827845Y-80571403D01*
X100415707Y-80513913D01*
X100415702Y-80513912D01*
X100415697Y-80513912D01*
X100000000Y-80494693D01*
X99584303Y-80513912D01*
X99584297Y-80513912D01*
X99584292Y-80513913D01*
X99172154Y-80571403D01*
X99172146Y-80571405D01*
X98767066Y-80666679D01*
X98372485Y-80798929D01*
X97991822Y-80967010D01*
X97991801Y-80967020D01*
X97628268Y-81169506D01*
X97628262Y-81169510D01*
X97284943Y-81404689D01*
X97284933Y-81404696D01*
X96964805Y-81670528D01*
X96964785Y-81670546D01*
X96670546Y-81964785D01*
X96670528Y-81964805D01*
X96404696Y-82284933D01*
X96404689Y-82284943D01*
X96169510Y-82628262D01*
X96169506Y-82628268D01*
X95967020Y-82991801D01*
X95967010Y-82991822D01*
X95798929Y-83372485D01*
X95666679Y-83767066D01*
X95571405Y-84172146D01*
X95571403Y-84172154D01*
X95513913Y-84584292D01*
X95513912Y-84584297D01*
X95513912Y-84584303D01*
X95494693Y-85000000D01*
X84505307Y-85000000D01*
X84486088Y-84584303D01*
X84428596Y-84172152D01*
X84333320Y-83767064D01*
X84201074Y-83372495D01*
X84032985Y-82991812D01*
X83830489Y-82628261D01*
X83595313Y-82284946D01*
X83595307Y-82284939D01*
X83595303Y-82284933D01*
X83329471Y-81964805D01*
X83329462Y-81964794D01*
X83035206Y-81670538D01*
X83035194Y-81670528D01*
X82715066Y-81404696D01*
X82715056Y-81404689D01*
X82715054Y-81404687D01*
X82371739Y-81169511D01*
X82371735Y-81169509D01*
X82371731Y-81169506D01*
X82008198Y-80967020D01*
X82008177Y-80967010D01*
X81627514Y-80798929D01*
X81232933Y-80666679D01*
X80827853Y-80571405D01*
X80827845Y-80571403D01*
X80415707Y-80513913D01*
X80415702Y-80513912D01*
X80415697Y-80513912D01*
X80000000Y-80494693D01*
X79584303Y-80513912D01*
X79584297Y-80513912D01*
X79584292Y-80513913D01*
X79172154Y-80571403D01*
X79172146Y-80571405D01*
X78767066Y-80666679D01*
X78372485Y-80798929D01*
X77991822Y-80967010D01*
X77991801Y-80967020D01*
X77628268Y-81169506D01*
X77628262Y-81169510D01*
X77284943Y-81404689D01*
X77284933Y-81404696D01*
X76964805Y-81670528D01*
X76964785Y-81670546D01*
X76670546Y-81964785D01*
X76670528Y-81964805D01*
X76404696Y-82284933D01*
X76404689Y-82284943D01*
X76169510Y-82628262D01*
X76169506Y-82628268D01*
X75967020Y-82991801D01*
X75967010Y-82991822D01*
X75798929Y-83372485D01*
X75666679Y-83767066D01*
X75571405Y-84172146D01*
X75571403Y-84172154D01*
X75513913Y-84584292D01*
X75513912Y-84584297D01*
X75513912Y-84584303D01*
X75494693Y-85000000D01*
X64505307Y-85000000D01*
X64486088Y-84584303D01*
X64428596Y-84172152D01*
X64333320Y-83767064D01*
X64201074Y-83372495D01*
X64032985Y-82991812D01*
X63830489Y-82628261D01*
X63595313Y-82284946D01*
X63595307Y-82284939D01*
X63595303Y-82284933D01*
X63329471Y-81964805D01*
X63329462Y-81964794D01*
X63035206Y-81670538D01*
X63035194Y-81670528D01*
X62715066Y-81404696D01*
X62715056Y-81404689D01*
X62715054Y-81404687D01*
X62371739Y-81169511D01*
X62371735Y-81169509D01*
X62371731Y-81169506D01*
X62008198Y-80967020D01*
X62008177Y-80967010D01*
X61627514Y-80798929D01*
X61232933Y-80666679D01*
X60827853Y-80571405D01*
X60827845Y-80571403D01*
X60415707Y-80513913D01*
X60415702Y-80513912D01*
X60415697Y-80513912D01*
X60000000Y-80494693D01*
X59584303Y-80513912D01*
X59584297Y-80513912D01*
X59584292Y-80513913D01*
X59172154Y-80571403D01*
X59172146Y-80571405D01*
X58767066Y-80666679D01*
X58372485Y-80798929D01*
X57991822Y-80967010D01*
X57991801Y-80967020D01*
X57628268Y-81169506D01*
X57628262Y-81169510D01*
X57284943Y-81404689D01*
X57284933Y-81404696D01*
X56964805Y-81670528D01*
X56964785Y-81670546D01*
X56670546Y-81964785D01*
X56670528Y-81964805D01*
X56404696Y-82284933D01*
X56404689Y-82284943D01*
X56169510Y-82628262D01*
X56169506Y-82628268D01*
X55967020Y-82991801D01*
X55967010Y-82991822D01*
X55798929Y-83372485D01*
X55666679Y-83767066D01*
X55571405Y-84172146D01*
X55571403Y-84172154D01*
X55513913Y-84584292D01*
X55513912Y-84584297D01*
X55513912Y-84584303D01*
X55494693Y-85000000D01*
X50500500Y-85000000D01*
X50500500Y-73000000D01*
X57894592Y-73000000D01*
X57914201Y-73286680D01*
X57972666Y-73568034D01*
X57972667Y-73568037D01*
X58068894Y-73838793D01*
X58068893Y-73838793D01*
X58201098Y-74093935D01*
X58366812Y-74328700D01*
X58451923Y-74419831D01*
X58562947Y-74538708D01*
X58785853Y-74720055D01*
X59031382Y-74869365D01*
X59218237Y-74950526D01*
X59294942Y-74983844D01*
X59571642Y-75061371D01*
X59821920Y-75095771D01*
X59856321Y-75100500D01*
X59856322Y-75100500D01*
X60143679Y-75100500D01*
X60174370Y-75096281D01*
X60428358Y-75061371D01*
X60705058Y-74983844D01*
X60818015Y-74934779D01*
X60968617Y-74869365D01*
X60968620Y-74869363D01*
X60968625Y-74869361D01*
X61214147Y-74720055D01*
X61437053Y-74538708D01*
X61633189Y-74328698D01*
X61798901Y-74093936D01*
X61931104Y-73838797D01*
X62027334Y-73568032D01*
X62085798Y-73286686D01*
X62105408Y-73000000D01*
X77894592Y-73000000D01*
X77914201Y-73286680D01*
X77972666Y-73568034D01*
X77972667Y-73568037D01*
X78068894Y-73838793D01*
X78068893Y-73838793D01*
X78201098Y-74093935D01*
X78366812Y-74328700D01*
X78451923Y-74419831D01*
X78562947Y-74538708D01*
X78785853Y-74720055D01*
X79031382Y-74869365D01*
X79218237Y-74950526D01*
X79294942Y-74983844D01*
X79571642Y-75061371D01*
X79821920Y-75095771D01*
X79856321Y-75100500D01*
X79856322Y-75100500D01*
X80143679Y-75100500D01*
X80174370Y-75096281D01*
X80428358Y-75061371D01*
X80705058Y-74983844D01*
X80818015Y-74934779D01*
X80968617Y-74869365D01*
X80968620Y-74869363D01*
X80968625Y-74869361D01*
X81214147Y-74720055D01*
X81437053Y-74538708D01*
X81633189Y-74328698D01*
X81798901Y-74093936D01*
X81931104Y-73838797D01*
X82027334Y-73568032D01*
X82085798Y-73286686D01*
X82105408Y-73000000D01*
X97894592Y-73000000D01*
X97914201Y-73286680D01*
X97972666Y-73568034D01*
X97972667Y-73568037D01*
X98068894Y-73838793D01*
X98068893Y-73838793D01*
X98201098Y-74093935D01*
X98366812Y-74328700D01*
X98451923Y-74419831D01*
X98562947Y-74538708D01*
X98785853Y-74720055D01*
X99031382Y-74869365D01*
X99218237Y-74950526D01*
X99294942Y-74983844D01*
X99571642Y-75061371D01*
X99821920Y-75095771D01*
X99856321Y-75100500D01*
X99856322Y-75100500D01*
X100143679Y-75100500D01*
X100174370Y-75096281D01*
X100428358Y-75061371D01*
X100705058Y-74983844D01*
X100818015Y-74934779D01*
X100968617Y-74869365D01*
X100968620Y-74869363D01*
X100968625Y-74869361D01*
X101214147Y-74720055D01*
X101437053Y-74538708D01*
X101633189Y-74328698D01*
X101798901Y-74093936D01*
X101931104Y-73838797D01*
X102027334Y-73568032D01*
X102085798Y-73286686D01*
X102105408Y-73000000D01*
X117894592Y-73000000D01*
X117914201Y-73286680D01*
X117972666Y-73568034D01*
X117972667Y-73568037D01*
X118068894Y-73838793D01*
X118068893Y-73838793D01*
X118201098Y-74093935D01*
X118366812Y-74328700D01*
X118451923Y-74419831D01*
X118562947Y-74538708D01*
X118785853Y-74720055D01*
X119031382Y-74869365D01*
X119218237Y-74950526D01*
X119294942Y-74983844D01*
X119571642Y-75061371D01*
X119821920Y-75095771D01*
X119856321Y-75100500D01*
X119856322Y-75100500D01*
X120143679Y-75100500D01*
X120174370Y-75096281D01*
X120428358Y-75061371D01*
X120705058Y-74983844D01*
X120818015Y-74934779D01*
X120968617Y-74869365D01*
X120968620Y-74869363D01*
X120968625Y-74869361D01*
X121214147Y-74720055D01*
X121437053Y-74538708D01*
X121633189Y-74328698D01*
X121798901Y-74093936D01*
X121931104Y-73838797D01*
X122027334Y-73568032D01*
X122085798Y-73286686D01*
X122105408Y-73000000D01*
X122085798Y-72713314D01*
X122027334Y-72431968D01*
X121931105Y-72161206D01*
X121931106Y-72161206D01*
X121798901Y-71906064D01*
X121633187Y-71671299D01*
X121554554Y-71587105D01*
X121437053Y-71461292D01*
X121214147Y-71279945D01*
X121214146Y-71279944D01*
X120968617Y-71130634D01*
X120705063Y-71016158D01*
X120705061Y-71016157D01*
X120705058Y-71016156D01*
X120575578Y-70979877D01*
X120428364Y-70938630D01*
X120428359Y-70938629D01*
X120428358Y-70938629D01*
X120286018Y-70919064D01*
X120143679Y-70899500D01*
X120143678Y-70899500D01*
X119856322Y-70899500D01*
X119856321Y-70899500D01*
X119571642Y-70938629D01*
X119571635Y-70938630D01*
X119363861Y-70996845D01*
X119294942Y-71016156D01*
X119294939Y-71016156D01*
X119294936Y-71016158D01*
X119294935Y-71016158D01*
X119031382Y-71130634D01*
X118785853Y-71279944D01*
X118562950Y-71461289D01*
X118366812Y-71671299D01*
X118201098Y-71906064D01*
X118068894Y-72161206D01*
X117972667Y-72431962D01*
X117972666Y-72431965D01*
X117914201Y-72713319D01*
X117894592Y-73000000D01*
X102105408Y-73000000D01*
X102085798Y-72713314D01*
X102027334Y-72431968D01*
X101931105Y-72161206D01*
X101931106Y-72161206D01*
X101798901Y-71906064D01*
X101633187Y-71671299D01*
X101554554Y-71587105D01*
X101437053Y-71461292D01*
X101214147Y-71279945D01*
X101214146Y-71279944D01*
X100968617Y-71130634D01*
X100705063Y-71016158D01*
X100705061Y-71016157D01*
X100705058Y-71016156D01*
X100575578Y-70979877D01*
X100428364Y-70938630D01*
X100428359Y-70938629D01*
X100428358Y-70938629D01*
X100286018Y-70919064D01*
X100143679Y-70899500D01*
X100143678Y-70899500D01*
X99856322Y-70899500D01*
X99856321Y-70899500D01*
X99571642Y-70938629D01*
X99571635Y-70938630D01*
X99363861Y-70996845D01*
X99294942Y-71016156D01*
X99294939Y-71016156D01*
X99294936Y-71016158D01*
X99294935Y-71016158D01*
X99031382Y-71130634D01*
X98785853Y-71279944D01*
X98562950Y-71461289D01*
X98366812Y-71671299D01*
X98201098Y-71906064D01*
X98068894Y-72161206D01*
X97972667Y-72431962D01*
X97972666Y-72431965D01*
X97914201Y-72713319D01*
X97894592Y-73000000D01*
X82105408Y-73000000D01*
X82085798Y-72713314D01*
X82027334Y-72431968D01*
X81931105Y-72161206D01*
X81931106Y-72161206D01*
X81798901Y-71906064D01*
X81633187Y-71671299D01*
X81554554Y-71587105D01*
X81437053Y-71461292D01*
X81214147Y-71279945D01*
X81214146Y-71279944D01*
X80968617Y-71130634D01*
X80705063Y-71016158D01*
X80705061Y-71016157D01*
X80705058Y-71016156D01*
X80575578Y-70979877D01*
X80428364Y-70938630D01*
X80428359Y-70938629D01*
X80428358Y-70938629D01*
X80286018Y-70919064D01*
X80143679Y-70899500D01*
X80143678Y-70899500D01*
X79856322Y-70899500D01*
X79856321Y-70899500D01*
X79571642Y-70938629D01*
X79571635Y-70938630D01*
X79363861Y-70996845D01*
X79294942Y-71016156D01*
X79294939Y-71016156D01*
X79294936Y-71016158D01*
X79294935Y-71016158D01*
X79031382Y-71130634D01*
X78785853Y-71279944D01*
X78562950Y-71461289D01*
X78366812Y-71671299D01*
X78201098Y-71906064D01*
X78068894Y-72161206D01*
X77972667Y-72431962D01*
X77972666Y-72431965D01*
X77914201Y-72713319D01*
X77894592Y-73000000D01*
X62105408Y-73000000D01*
X62085798Y-72713314D01*
X62027334Y-72431968D01*
X61931105Y-72161206D01*
X61931106Y-72161206D01*
X61798901Y-71906064D01*
X61633187Y-71671299D01*
X61554554Y-71587105D01*
X61437053Y-71461292D01*
X61214147Y-71279945D01*
X61214146Y-71279944D01*
X60968617Y-71130634D01*
X60705063Y-71016158D01*
X60705061Y-71016157D01*
X60705058Y-71016156D01*
X60575578Y-70979877D01*
X60428364Y-70938630D01*
X60428359Y-70938629D01*
X60428358Y-70938629D01*
X60286018Y-70919064D01*
X60143679Y-70899500D01*
X60143678Y-70899500D01*
X59856322Y-70899500D01*
X59856321Y-70899500D01*
X59571642Y-70938629D01*
X59571635Y-70938630D01*
X59363861Y-70996845D01*
X59294942Y-71016156D01*
X59294939Y-71016156D01*
X59294936Y-71016158D01*
X59294935Y-71016158D01*
X59031382Y-71130634D01*
X58785853Y-71279944D01*
X58562950Y-71461289D01*
X58366812Y-71671299D01*
X58201098Y-71906064D01*
X58068894Y-72161206D01*
X57972667Y-72431962D01*
X57972666Y-72431965D01*
X57914201Y-72713319D01*
X57894592Y-73000000D01*
X50500500Y-73000000D01*
X50500500Y-68000000D01*
X57894592Y-68000000D01*
X57914201Y-68286680D01*
X57972666Y-68568034D01*
X57972667Y-68568037D01*
X58068894Y-68838793D01*
X58068893Y-68838793D01*
X58201098Y-69093935D01*
X58366812Y-69328700D01*
X58451923Y-69419831D01*
X58562947Y-69538708D01*
X58785853Y-69720055D01*
X59031382Y-69869365D01*
X59218237Y-69950526D01*
X59294942Y-69983844D01*
X59571642Y-70061371D01*
X59821920Y-70095771D01*
X59856321Y-70100500D01*
X59856322Y-70100500D01*
X60143679Y-70100500D01*
X60174370Y-70096281D01*
X60428358Y-70061371D01*
X60705058Y-69983844D01*
X60818015Y-69934779D01*
X60968617Y-69869365D01*
X60968620Y-69869363D01*
X60968625Y-69869361D01*
X61214147Y-69720055D01*
X61437053Y-69538708D01*
X61633189Y-69328698D01*
X61798901Y-69093936D01*
X61931104Y-68838797D01*
X62027334Y-68568032D01*
X62085798Y-68286686D01*
X62105408Y-68000000D01*
X77894592Y-68000000D01*
X77914201Y-68286680D01*
X77972666Y-68568034D01*
X77972667Y-68568037D01*
X78068894Y-68838793D01*
X78068893Y-68838793D01*
X78201098Y-69093935D01*
X78366812Y-69328700D01*
X78451923Y-69419831D01*
X78562947Y-69538708D01*
X78785853Y-69720055D01*
X79031382Y-69869365D01*
X79218237Y-69950526D01*
X79294942Y-69983844D01*
X79571642Y-70061371D01*
X79821920Y-70095771D01*
X79856321Y-70100500D01*
X79856322Y-70100500D01*
X80143679Y-70100500D01*
X80174370Y-70096281D01*
X80428358Y-70061371D01*
X80705058Y-69983844D01*
X80818015Y-69934779D01*
X80968617Y-69869365D01*
X80968620Y-69869363D01*
X80968625Y-69869361D01*
X81214147Y-69720055D01*
X81437053Y-69538708D01*
X81633189Y-69328698D01*
X81798901Y-69093936D01*
X81931104Y-68838797D01*
X82027334Y-68568032D01*
X82085798Y-68286686D01*
X82105408Y-68000000D01*
X97894592Y-68000000D01*
X97914201Y-68286680D01*
X97972666Y-68568034D01*
X97972667Y-68568037D01*
X98068894Y-68838793D01*
X98068893Y-68838793D01*
X98201098Y-69093935D01*
X98366812Y-69328700D01*
X98451923Y-69419831D01*
X98562947Y-69538708D01*
X98785853Y-69720055D01*
X99031382Y-69869365D01*
X99218237Y-69950526D01*
X99294942Y-69983844D01*
X99571642Y-70061371D01*
X99821920Y-70095771D01*
X99856321Y-70100500D01*
X99856322Y-70100500D01*
X100143679Y-70100500D01*
X100174370Y-70096281D01*
X100428358Y-70061371D01*
X100705058Y-69983844D01*
X100818015Y-69934779D01*
X100968617Y-69869365D01*
X100968620Y-69869363D01*
X100968625Y-69869361D01*
X101214147Y-69720055D01*
X101437053Y-69538708D01*
X101633189Y-69328698D01*
X101798901Y-69093936D01*
X101931104Y-68838797D01*
X102027334Y-68568032D01*
X102085798Y-68286686D01*
X102105408Y-68000000D01*
X117894592Y-68000000D01*
X117914201Y-68286680D01*
X117972666Y-68568034D01*
X117972667Y-68568037D01*
X118068894Y-68838793D01*
X118068893Y-68838793D01*
X118201098Y-69093935D01*
X118366812Y-69328700D01*
X118451923Y-69419831D01*
X118562947Y-69538708D01*
X118785853Y-69720055D01*
X119031382Y-69869365D01*
X119218237Y-69950526D01*
X119294942Y-69983844D01*
X119571642Y-70061371D01*
X119821920Y-70095771D01*
X119856321Y-70100500D01*
X119856322Y-70100500D01*
X120143679Y-70100500D01*
X120174370Y-70096281D01*
X120428358Y-70061371D01*
X120705058Y-69983844D01*
X120818015Y-69934779D01*
X120968617Y-69869365D01*
X120968620Y-69869363D01*
X120968625Y-69869361D01*
X121214147Y-69720055D01*
X121437053Y-69538708D01*
X121633189Y-69328698D01*
X121798901Y-69093936D01*
X121931104Y-68838797D01*
X122027334Y-68568032D01*
X122085798Y-68286686D01*
X122105408Y-68000000D01*
X122085798Y-67713314D01*
X122027334Y-67431968D01*
X121931105Y-67161206D01*
X121931106Y-67161206D01*
X121798901Y-66906064D01*
X121633187Y-66671299D01*
X121554554Y-66587105D01*
X121437053Y-66461292D01*
X121214147Y-66279945D01*
X121214146Y-66279944D01*
X120968617Y-66130634D01*
X120705063Y-66016158D01*
X120705061Y-66016157D01*
X120705058Y-66016156D01*
X120575578Y-65979877D01*
X120428364Y-65938630D01*
X120428359Y-65938629D01*
X120428358Y-65938629D01*
X120286018Y-65919064D01*
X120143679Y-65899500D01*
X120143678Y-65899500D01*
X119856322Y-65899500D01*
X119856321Y-65899500D01*
X119571642Y-65938629D01*
X119571635Y-65938630D01*
X119363861Y-65996845D01*
X119294942Y-66016156D01*
X119294939Y-66016156D01*
X119294936Y-66016158D01*
X119294935Y-66016158D01*
X119031382Y-66130634D01*
X118785853Y-66279944D01*
X118562950Y-66461289D01*
X118366812Y-66671299D01*
X118201098Y-66906064D01*
X118068894Y-67161206D01*
X117972667Y-67431962D01*
X117972666Y-67431965D01*
X117914201Y-67713319D01*
X117894592Y-68000000D01*
X102105408Y-68000000D01*
X102085798Y-67713314D01*
X102027334Y-67431968D01*
X101931105Y-67161206D01*
X101931106Y-67161206D01*
X101798901Y-66906064D01*
X101633187Y-66671299D01*
X101554554Y-66587105D01*
X101437053Y-66461292D01*
X101214147Y-66279945D01*
X101214146Y-66279944D01*
X100968617Y-66130634D01*
X100705063Y-66016158D01*
X100705061Y-66016157D01*
X100705058Y-66016156D01*
X100575578Y-65979877D01*
X100428364Y-65938630D01*
X100428359Y-65938629D01*
X100428358Y-65938629D01*
X100286018Y-65919064D01*
X100143679Y-65899500D01*
X100143678Y-65899500D01*
X99856322Y-65899500D01*
X99856321Y-65899500D01*
X99571642Y-65938629D01*
X99571635Y-65938630D01*
X99363861Y-65996845D01*
X99294942Y-66016156D01*
X99294939Y-66016156D01*
X99294936Y-66016158D01*
X99294935Y-66016158D01*
X99031382Y-66130634D01*
X98785853Y-66279944D01*
X98562950Y-66461289D01*
X98366812Y-66671299D01*
X98201098Y-66906064D01*
X98068894Y-67161206D01*
X97972667Y-67431962D01*
X97972666Y-67431965D01*
X97914201Y-67713319D01*
X97894592Y-68000000D01*
X82105408Y-68000000D01*
X82085798Y-67713314D01*
X82027334Y-67431968D01*
X81931105Y-67161206D01*
X81931106Y-67161206D01*
X81798901Y-66906064D01*
X81633187Y-66671299D01*
X81554554Y-66587105D01*
X81437053Y-66461292D01*
X81214147Y-66279945D01*
X81214146Y-66279944D01*
X80968617Y-66130634D01*
X80705063Y-66016158D01*
X80705061Y-66016157D01*
X80705058Y-66016156D01*
X80575578Y-65979877D01*
X80428364Y-65938630D01*
X80428359Y-65938629D01*
X80428358Y-65938629D01*
X80286018Y-65919064D01*
X80143679Y-65899500D01*
X80143678Y-65899500D01*
X79856322Y-65899500D01*
X79856321Y-65899500D01*
X79571642Y-65938629D01*
X79571635Y-65938630D01*
X79363861Y-65996845D01*
X79294942Y-66016156D01*
X79294939Y-66016156D01*
X79294936Y-66016158D01*
X79294935Y-66016158D01*
X79031382Y-66130634D01*
X78785853Y-66279944D01*
X78562950Y-66461289D01*
X78366812Y-66671299D01*
X78201098Y-66906064D01*
X78068894Y-67161206D01*
X77972667Y-67431962D01*
X77972666Y-67431965D01*
X77914201Y-67713319D01*
X77894592Y-68000000D01*
X62105408Y-68000000D01*
X62085798Y-67713314D01*
X62027334Y-67431968D01*
X61931105Y-67161206D01*
X61931106Y-67161206D01*
X61798901Y-66906064D01*
X61633187Y-66671299D01*
X61554554Y-66587105D01*
X61437053Y-66461292D01*
X61214147Y-66279945D01*
X61214146Y-66279944D01*
X60968617Y-66130634D01*
X60705063Y-66016158D01*
X60705061Y-66016157D01*
X60705058Y-66016156D01*
X60575578Y-65979877D01*
X60428364Y-65938630D01*
X60428359Y-65938629D01*
X60428358Y-65938629D01*
X60286018Y-65919064D01*
X60143679Y-65899500D01*
X60143678Y-65899500D01*
X59856322Y-65899500D01*
X59856321Y-65899500D01*
X59571642Y-65938629D01*
X59571635Y-65938630D01*
X59363861Y-65996845D01*
X59294942Y-66016156D01*
X59294939Y-66016156D01*
X59294936Y-66016158D01*
X59294935Y-66016158D01*
X59031382Y-66130634D01*
X58785853Y-66279944D01*
X58562950Y-66461289D01*
X58366812Y-66671299D01*
X58201098Y-66906064D01*
X58068894Y-67161206D01*
X57972667Y-67431962D01*
X57972666Y-67431965D01*
X57914201Y-67713319D01*
X57894592Y-68000000D01*
X50500500Y-68000000D01*
X50500500Y-55942500D01*
X55494693Y-55942500D01*
X55513912Y-56358197D01*
X55513912Y-56358202D01*
X55513913Y-56358207D01*
X55571403Y-56770345D01*
X55571405Y-56770353D01*
X55666679Y-57175433D01*
X55798929Y-57570014D01*
X55967010Y-57950677D01*
X55967020Y-57950698D01*
X56169506Y-58314231D01*
X56169509Y-58314235D01*
X56169511Y-58314239D01*
X56404687Y-58657554D01*
X56404689Y-58657556D01*
X56404696Y-58657566D01*
X56670528Y-58977694D01*
X56670538Y-58977706D01*
X56964794Y-59271962D01*
X56964805Y-59271971D01*
X57284933Y-59537803D01*
X57284939Y-59537807D01*
X57284946Y-59537813D01*
X57628261Y-59772989D01*
X57991812Y-59975485D01*
X58182153Y-60059529D01*
X58372485Y-60143570D01*
X58372488Y-60143571D01*
X58372495Y-60143574D01*
X58767064Y-60275820D01*
X59172152Y-60371096D01*
X59584303Y-60428588D01*
X60000000Y-60447807D01*
X60415697Y-60428588D01*
X60827848Y-60371096D01*
X61232936Y-60275820D01*
X61627505Y-60143574D01*
X62008188Y-59975485D01*
X62371739Y-59772989D01*
X62715054Y-59537813D01*
X63035206Y-59271962D01*
X63329462Y-58977706D01*
X63595313Y-58657554D01*
X63830489Y-58314239D01*
X64032985Y-57950688D01*
X64201074Y-57570005D01*
X64333320Y-57175436D01*
X64428596Y-56770348D01*
X64486088Y-56358197D01*
X64505307Y-55942500D01*
X75494693Y-55942500D01*
X75513912Y-56358197D01*
X75513912Y-56358202D01*
X75513913Y-56358207D01*
X75571403Y-56770345D01*
X75571405Y-56770353D01*
X75666679Y-57175433D01*
X75798929Y-57570014D01*
X75967010Y-57950677D01*
X75967020Y-57950698D01*
X76169506Y-58314231D01*
X76169509Y-58314235D01*
X76169511Y-58314239D01*
X76404687Y-58657554D01*
X76404689Y-58657556D01*
X76404696Y-58657566D01*
X76670528Y-58977694D01*
X76670538Y-58977706D01*
X76964794Y-59271962D01*
X76964805Y-59271971D01*
X77284933Y-59537803D01*
X77284939Y-59537807D01*
X77284946Y-59537813D01*
X77628261Y-59772989D01*
X77991812Y-59975485D01*
X78182153Y-60059529D01*
X78372485Y-60143570D01*
X78372488Y-60143571D01*
X78372495Y-60143574D01*
X78767064Y-60275820D01*
X79172152Y-60371096D01*
X79584303Y-60428588D01*
X80000000Y-60447807D01*
X80415697Y-60428588D01*
X80827848Y-60371096D01*
X81232936Y-60275820D01*
X81627505Y-60143574D01*
X82008188Y-59975485D01*
X82371739Y-59772989D01*
X82715054Y-59537813D01*
X83035206Y-59271962D01*
X83329462Y-58977706D01*
X83595313Y-58657554D01*
X83830489Y-58314239D01*
X84032985Y-57950688D01*
X84201074Y-57570005D01*
X84333320Y-57175436D01*
X84428596Y-56770348D01*
X84486088Y-56358197D01*
X84505307Y-55942500D01*
X95494693Y-55942500D01*
X95513912Y-56358197D01*
X95513912Y-56358202D01*
X95513913Y-56358207D01*
X95571403Y-56770345D01*
X95571405Y-56770353D01*
X95666679Y-57175433D01*
X95798929Y-57570014D01*
X95967010Y-57950677D01*
X95967020Y-57950698D01*
X96169506Y-58314231D01*
X96169509Y-58314235D01*
X96169511Y-58314239D01*
X96404687Y-58657554D01*
X96404689Y-58657556D01*
X96404696Y-58657566D01*
X96670528Y-58977694D01*
X96670538Y-58977706D01*
X96964794Y-59271962D01*
X96964805Y-59271971D01*
X97284933Y-59537803D01*
X97284939Y-59537807D01*
X97284946Y-59537813D01*
X97628261Y-59772989D01*
X97991812Y-59975485D01*
X98182153Y-60059529D01*
X98372485Y-60143570D01*
X98372488Y-60143571D01*
X98372495Y-60143574D01*
X98767064Y-60275820D01*
X99172152Y-60371096D01*
X99584303Y-60428588D01*
X100000000Y-60447807D01*
X100415697Y-60428588D01*
X100827848Y-60371096D01*
X101232936Y-60275820D01*
X101627505Y-60143574D01*
X102008188Y-59975485D01*
X102371739Y-59772989D01*
X102715054Y-59537813D01*
X103035206Y-59271962D01*
X103329462Y-58977706D01*
X103595313Y-58657554D01*
X103830489Y-58314239D01*
X104032985Y-57950688D01*
X104201074Y-57570005D01*
X104333320Y-57175436D01*
X104428596Y-56770348D01*
X104486088Y-56358197D01*
X104505307Y-55942500D01*
X115494693Y-55942500D01*
X115513912Y-56358197D01*
X115513912Y-56358202D01*
X115513913Y-56358207D01*
X115571403Y-56770345D01*
X115571405Y-56770353D01*
X115666679Y-57175433D01*
X115798929Y-57570014D01*
X115967010Y-57950677D01*
X115967020Y-57950698D01*
X116169506Y-58314231D01*
X116169509Y-58314235D01*
X116169511Y-58314239D01*
X116404687Y-58657554D01*
X116404689Y-58657556D01*
X116404696Y-58657566D01*
X116670528Y-58977694D01*
X116670538Y-58977706D01*
X116964794Y-59271962D01*
X116964805Y-59271971D01*
X117284933Y-59537803D01*
X117284939Y-59537807D01*
X117284946Y-59537813D01*
X117628261Y-59772989D01*
X117991812Y-59975485D01*
X118182153Y-60059529D01*
X118372485Y-60143570D01*
X118372488Y-60143571D01*
X118372495Y-60143574D01*
X118767064Y-60275820D01*
X119172152Y-60371096D01*
X119584303Y-60428588D01*
X120000000Y-60447807D01*
X120415697Y-60428588D01*
X120827848Y-60371096D01*
X121232936Y-60275820D01*
X121627505Y-60143574D01*
X122008188Y-59975485D01*
X122371739Y-59772989D01*
X122715054Y-59537813D01*
X123035206Y-59271962D01*
X123329462Y-58977706D01*
X123595313Y-58657554D01*
X123830489Y-58314239D01*
X124032985Y-57950688D01*
X124201074Y-57570005D01*
X124333320Y-57175436D01*
X124428596Y-56770348D01*
X124486088Y-56358197D01*
X124505307Y-55942500D01*
X124486088Y-55526803D01*
X124428596Y-55114652D01*
X124333320Y-54709564D01*
X124201074Y-54314995D01*
X124032985Y-53934312D01*
X123830489Y-53570761D01*
X123595313Y-53227446D01*
X123595307Y-53227439D01*
X123595303Y-53227433D01*
X123329471Y-52907305D01*
X123329462Y-52907294D01*
X123035206Y-52613038D01*
X123035194Y-52613028D01*
X122715066Y-52347196D01*
X122715056Y-52347189D01*
X122715054Y-52347187D01*
X122371739Y-52112011D01*
X122371735Y-52112009D01*
X122371731Y-52112006D01*
X122008198Y-51909520D01*
X122008177Y-51909510D01*
X121627514Y-51741429D01*
X121232933Y-51609179D01*
X120827853Y-51513905D01*
X120827845Y-51513903D01*
X120415707Y-51456413D01*
X120415702Y-51456412D01*
X120415697Y-51456412D01*
X120000000Y-51437193D01*
X119584303Y-51456412D01*
X119584297Y-51456412D01*
X119584292Y-51456413D01*
X119172154Y-51513903D01*
X119172146Y-51513905D01*
X118767066Y-51609179D01*
X118372485Y-51741429D01*
X117991822Y-51909510D01*
X117991801Y-51909520D01*
X117628268Y-52112006D01*
X117628262Y-52112010D01*
X117284943Y-52347189D01*
X117284933Y-52347196D01*
X116964805Y-52613028D01*
X116964785Y-52613046D01*
X116670546Y-52907285D01*
X116670528Y-52907305D01*
X116404696Y-53227433D01*
X116404689Y-53227443D01*
X116169510Y-53570762D01*
X116169506Y-53570768D01*
X115967020Y-53934301D01*
X115967010Y-53934322D01*
X115798929Y-54314985D01*
X115666679Y-54709566D01*
X115571405Y-55114646D01*
X115571403Y-55114654D01*
X115513913Y-55526792D01*
X115513912Y-55526797D01*
X115513912Y-55526803D01*
X115494693Y-55942500D01*
X104505307Y-55942500D01*
X104486088Y-55526803D01*
X104428596Y-55114652D01*
X104333320Y-54709564D01*
X104201074Y-54314995D01*
X104032985Y-53934312D01*
X103830489Y-53570761D01*
X103595313Y-53227446D01*
X103595307Y-53227439D01*
X103595303Y-53227433D01*
X103329471Y-52907305D01*
X103329462Y-52907294D01*
X103035206Y-52613038D01*
X103035194Y-52613028D01*
X102715066Y-52347196D01*
X102715056Y-52347189D01*
X102715054Y-52347187D01*
X102371739Y-52112011D01*
X102371735Y-52112009D01*
X102371731Y-52112006D01*
X102008198Y-51909520D01*
X102008177Y-51909510D01*
X101627514Y-51741429D01*
X101232933Y-51609179D01*
X100827853Y-51513905D01*
X100827845Y-51513903D01*
X100415707Y-51456413D01*
X100415702Y-51456412D01*
X100415697Y-51456412D01*
X100000000Y-51437193D01*
X99584303Y-51456412D01*
X99584297Y-51456412D01*
X99584292Y-51456413D01*
X99172154Y-51513903D01*
X99172146Y-51513905D01*
X98767066Y-51609179D01*
X98372485Y-51741429D01*
X97991822Y-51909510D01*
X97991801Y-51909520D01*
X97628268Y-52112006D01*
X97628262Y-52112010D01*
X97284943Y-52347189D01*
X97284933Y-52347196D01*
X96964805Y-52613028D01*
X96964785Y-52613046D01*
X96670546Y-52907285D01*
X96670528Y-52907305D01*
X96404696Y-53227433D01*
X96404689Y-53227443D01*
X96169510Y-53570762D01*
X96169506Y-53570768D01*
X95967020Y-53934301D01*
X95967010Y-53934322D01*
X95798929Y-54314985D01*
X95666679Y-54709566D01*
X95571405Y-55114646D01*
X95571403Y-55114654D01*
X95513913Y-55526792D01*
X95513912Y-55526797D01*
X95513912Y-55526803D01*
X95494693Y-55942500D01*
X84505307Y-55942500D01*
X84486088Y-55526803D01*
X84428596Y-55114652D01*
X84333320Y-54709564D01*
X84201074Y-54314995D01*
X84032985Y-53934312D01*
X83830489Y-53570761D01*
X83595313Y-53227446D01*
X83595307Y-53227439D01*
X83595303Y-53227433D01*
X83329471Y-52907305D01*
X83329462Y-52907294D01*
X83035206Y-52613038D01*
X83035194Y-52613028D01*
X82715066Y-52347196D01*
X82715056Y-52347189D01*
X82715054Y-52347187D01*
X82371739Y-52112011D01*
X82371735Y-52112009D01*
X82371731Y-52112006D01*
X82008198Y-51909520D01*
X82008177Y-51909510D01*
X81627514Y-51741429D01*
X81232933Y-51609179D01*
X80827853Y-51513905D01*
X80827845Y-51513903D01*
X80415707Y-51456413D01*
X80415702Y-51456412D01*
X80415697Y-51456412D01*
X80000000Y-51437193D01*
X79584303Y-51456412D01*
X79584297Y-51456412D01*
X79584292Y-51456413D01*
X79172154Y-51513903D01*
X79172146Y-51513905D01*
X78767066Y-51609179D01*
X78372485Y-51741429D01*
X77991822Y-51909510D01*
X77991801Y-51909520D01*
X77628268Y-52112006D01*
X77628262Y-52112010D01*
X77284943Y-52347189D01*
X77284933Y-52347196D01*
X76964805Y-52613028D01*
X76964785Y-52613046D01*
X76670546Y-52907285D01*
X76670528Y-52907305D01*
X76404696Y-53227433D01*
X76404689Y-53227443D01*
X76169510Y-53570762D01*
X76169506Y-53570768D01*
X75967020Y-53934301D01*
X75967010Y-53934322D01*
X75798929Y-54314985D01*
X75666679Y-54709566D01*
X75571405Y-55114646D01*
X75571403Y-55114654D01*
X75513913Y-55526792D01*
X75513912Y-55526797D01*
X75513912Y-55526803D01*
X75494693Y-55942500D01*
X64505307Y-55942500D01*
X64486088Y-55526803D01*
X64428596Y-55114652D01*
X64333320Y-54709564D01*
X64201074Y-54314995D01*
X64032985Y-53934312D01*
X63830489Y-53570761D01*
X63595313Y-53227446D01*
X63595307Y-53227439D01*
X63595303Y-53227433D01*
X63329471Y-52907305D01*
X63329462Y-52907294D01*
X63035206Y-52613038D01*
X63035194Y-52613028D01*
X62715066Y-52347196D01*
X62715056Y-52347189D01*
X62715054Y-52347187D01*
X62371739Y-52112011D01*
X62371735Y-52112009D01*
X62371731Y-52112006D01*
X62008198Y-51909520D01*
X62008177Y-51909510D01*
X61627514Y-51741429D01*
X61232933Y-51609179D01*
X60827853Y-51513905D01*
X60827845Y-51513903D01*
X60415707Y-51456413D01*
X60415702Y-51456412D01*
X60415697Y-51456412D01*
X60000000Y-51437193D01*
X59584303Y-51456412D01*
X59584297Y-51456412D01*
X59584292Y-51456413D01*
X59172154Y-51513903D01*
X59172146Y-51513905D01*
X58767066Y-51609179D01*
X58372485Y-51741429D01*
X57991822Y-51909510D01*
X57991801Y-51909520D01*
X57628268Y-52112006D01*
X57628262Y-52112010D01*
X57284943Y-52347189D01*
X57284933Y-52347196D01*
X56964805Y-52613028D01*
X56964785Y-52613046D01*
X56670546Y-52907285D01*
X56670528Y-52907305D01*
X56404696Y-53227433D01*
X56404689Y-53227443D01*
X56169510Y-53570762D01*
X56169506Y-53570768D01*
X55967020Y-53934301D01*
X55967010Y-53934322D01*
X55798929Y-54314985D01*
X55666679Y-54709566D01*
X55571405Y-55114646D01*
X55571403Y-55114654D01*
X55513913Y-55526792D01*
X55513912Y-55526797D01*
X55513912Y-55526803D01*
X55494693Y-55942500D01*
X50500500Y-55942500D01*
X50500500Y-43499999D01*
X56394559Y-43499999D01*
X56394559Y-43500000D01*
X56414310Y-43876872D01*
X56473346Y-44249607D01*
X56473347Y-44249614D01*
X56571023Y-44614147D01*
X56706267Y-44966468D01*
X56877599Y-45302725D01*
X57083135Y-45619223D01*
X57083137Y-45619225D01*
X57320635Y-45912511D01*
X57587489Y-46179365D01*
X57587493Y-46179368D01*
X57880776Y-46416864D01*
X58197274Y-46622400D01*
X58197279Y-46622403D01*
X58533535Y-46793734D01*
X58885857Y-46928978D01*
X59250387Y-47026653D01*
X59623129Y-47085690D01*
X59979155Y-47104348D01*
X59999999Y-47105441D01*
X60000000Y-47105441D01*
X60000001Y-47105441D01*
X60019752Y-47104405D01*
X60376871Y-47085690D01*
X60749613Y-47026653D01*
X61114143Y-46928978D01*
X61466465Y-46793734D01*
X61802721Y-46622403D01*
X62119225Y-46416863D01*
X62412511Y-46179365D01*
X62679365Y-45912511D01*
X62916863Y-45619225D01*
X63122403Y-45302721D01*
X63293734Y-44966465D01*
X63428978Y-44614143D01*
X63526653Y-44249613D01*
X63585690Y-43876871D01*
X63605441Y-43500000D01*
X63605441Y-43499999D01*
X76394559Y-43499999D01*
X76394559Y-43500000D01*
X76414310Y-43876872D01*
X76473346Y-44249607D01*
X76473347Y-44249614D01*
X76571023Y-44614147D01*
X76706267Y-44966468D01*
X76877599Y-45302725D01*
X77083135Y-45619223D01*
X77083137Y-45619225D01*
X77320635Y-45912511D01*
X77587489Y-46179365D01*
X77587493Y-46179368D01*
X77880776Y-46416864D01*
X78197274Y-46622400D01*
X78197279Y-46622403D01*
X78533535Y-46793734D01*
X78885857Y-46928978D01*
X79250387Y-47026653D01*
X79623129Y-47085690D01*
X79979155Y-47104348D01*
X79999999Y-47105441D01*
X80000000Y-47105441D01*
X80000001Y-47105441D01*
X80019752Y-47104405D01*
X80376871Y-47085690D01*
X80749613Y-47026653D01*
X81114143Y-46928978D01*
X81466465Y-46793734D01*
X81802721Y-46622403D01*
X82119225Y-46416863D01*
X82412511Y-46179365D01*
X82679365Y-45912511D01*
X82916863Y-45619225D01*
X83122403Y-45302721D01*
X83293734Y-44966465D01*
X83428978Y-44614143D01*
X83526653Y-44249613D01*
X83585690Y-43876871D01*
X83605441Y-43500000D01*
X83605441Y-43499999D01*
X96394559Y-43499999D01*
X96394559Y-43500000D01*
X96414310Y-43876872D01*
X96473346Y-44249607D01*
X96473347Y-44249614D01*
X96571023Y-44614147D01*
X96706267Y-44966468D01*
X96877599Y-45302725D01*
X97083135Y-45619223D01*
X97083137Y-45619225D01*
X97320635Y-45912511D01*
X97587489Y-46179365D01*
X97587493Y-46179368D01*
X97880776Y-46416864D01*
X98197274Y-46622400D01*
X98197279Y-46622403D01*
X98533535Y-46793734D01*
X98885857Y-46928978D01*
X99250387Y-47026653D01*
X99623129Y-47085690D01*
X99979155Y-47104348D01*
X99999999Y-47105441D01*
X100000000Y-47105441D01*
X100000001Y-47105441D01*
X100019752Y-47104405D01*
X100376871Y-47085690D01*
X100749613Y-47026653D01*
X101114143Y-46928978D01*
X101466465Y-46793734D01*
X101802721Y-46622403D01*
X102119225Y-46416863D01*
X102412511Y-46179365D01*
X102679365Y-45912511D01*
X102916863Y-45619225D01*
X103122403Y-45302721D01*
X103293734Y-44966465D01*
X103428978Y-44614143D01*
X103526653Y-44249613D01*
X103585690Y-43876871D01*
X103605441Y-43500000D01*
X103605441Y-43499999D01*
X116394559Y-43499999D01*
X116394559Y-43500000D01*
X116414310Y-43876872D01*
X116473346Y-44249607D01*
X116473347Y-44249614D01*
X116571023Y-44614147D01*
X116706267Y-44966468D01*
X116877599Y-45302725D01*
X117083135Y-45619223D01*
X117083137Y-45619225D01*
X117320635Y-45912511D01*
X117587489Y-46179365D01*
X117587493Y-46179368D01*
X117880776Y-46416864D01*
X118197274Y-46622400D01*
X118197279Y-46622403D01*
X118533535Y-46793734D01*
X118885857Y-46928978D01*
X119250387Y-47026653D01*
X119623129Y-47085690D01*
X119979155Y-47104348D01*
X119999999Y-47105441D01*
X120000000Y-47105441D01*
X120000001Y-47105441D01*
X120019752Y-47104405D01*
X120376871Y-47085690D01*
X120749613Y-47026653D01*
X121114143Y-46928978D01*
X121466465Y-46793734D01*
X121802721Y-46622403D01*
X122119225Y-46416863D01*
X122412511Y-46179365D01*
X122679365Y-45912511D01*
X122916863Y-45619225D01*
X123122403Y-45302721D01*
X123293734Y-44966465D01*
X123428978Y-44614143D01*
X123526653Y-44249613D01*
X123585690Y-43876871D01*
X123605441Y-43500000D01*
X123585690Y-43123129D01*
X123526653Y-42750387D01*
X123428978Y-42385857D01*
X123293734Y-42033535D01*
X123122403Y-41697280D01*
X122916863Y-41380775D01*
X122679365Y-41087489D01*
X122412511Y-40820635D01*
X122119225Y-40583137D01*
X122119223Y-40583135D01*
X121802725Y-40377599D01*
X121466468Y-40206267D01*
X121114147Y-40071023D01*
X120749614Y-39973347D01*
X120749607Y-39973346D01*
X120376872Y-39914310D01*
X120000001Y-39894559D01*
X119999999Y-39894559D01*
X119623127Y-39914310D01*
X119250392Y-39973346D01*
X119250385Y-39973347D01*
X118885852Y-40071023D01*
X118533531Y-40206267D01*
X118197275Y-40377599D01*
X117880776Y-40583135D01*
X117587493Y-40820631D01*
X117587485Y-40820638D01*
X117320638Y-41087485D01*
X117320631Y-41087493D01*
X117083135Y-41380776D01*
X116877599Y-41697275D01*
X116706267Y-42033531D01*
X116571023Y-42385852D01*
X116473347Y-42750385D01*
X116473346Y-42750392D01*
X116414310Y-43123127D01*
X116394559Y-43499999D01*
X103605441Y-43499999D01*
X103585690Y-43123129D01*
X103526653Y-42750387D01*
X103428978Y-42385857D01*
X103293734Y-42033535D01*
X103122403Y-41697280D01*
X102916863Y-41380775D01*
X102679365Y-41087489D01*
X102412511Y-40820635D01*
X102119225Y-40583137D01*
X102119223Y-40583135D01*
X101802725Y-40377599D01*
X101466468Y-40206267D01*
X101114147Y-40071023D01*
X100749614Y-39973347D01*
X100749607Y-39973346D01*
X100376872Y-39914310D01*
X100000001Y-39894559D01*
X99999999Y-39894559D01*
X99623127Y-39914310D01*
X99250392Y-39973346D01*
X99250385Y-39973347D01*
X98885852Y-40071023D01*
X98533531Y-40206267D01*
X98197275Y-40377599D01*
X97880776Y-40583135D01*
X97587493Y-40820631D01*
X97587485Y-40820638D01*
X97320638Y-41087485D01*
X97320631Y-41087493D01*
X97083135Y-41380776D01*
X96877599Y-41697275D01*
X96706267Y-42033531D01*
X96571023Y-42385852D01*
X96473347Y-42750385D01*
X96473346Y-42750392D01*
X96414310Y-43123127D01*
X96394559Y-43499999D01*
X83605441Y-43499999D01*
X83585690Y-43123129D01*
X83526653Y-42750387D01*
X83428978Y-42385857D01*
X83293734Y-42033535D01*
X83122403Y-41697280D01*
X82916863Y-41380775D01*
X82679365Y-41087489D01*
X82412511Y-40820635D01*
X82119225Y-40583137D01*
X82119223Y-40583135D01*
X81802725Y-40377599D01*
X81466468Y-40206267D01*
X81114147Y-40071023D01*
X80749614Y-39973347D01*
X80749607Y-39973346D01*
X80376872Y-39914310D01*
X80000001Y-39894559D01*
X79999999Y-39894559D01*
X79623127Y-39914310D01*
X79250392Y-39973346D01*
X79250385Y-39973347D01*
X78885852Y-40071023D01*
X78533531Y-40206267D01*
X78197275Y-40377599D01*
X77880776Y-40583135D01*
X77587493Y-40820631D01*
X77587485Y-40820638D01*
X77320638Y-41087485D01*
X77320631Y-41087493D01*
X77083135Y-41380776D01*
X76877599Y-41697275D01*
X76706267Y-42033531D01*
X76571023Y-42385852D01*
X76473347Y-42750385D01*
X76473346Y-42750392D01*
X76414310Y-43123127D01*
X76394559Y-43499999D01*
X63605441Y-43499999D01*
X63585690Y-43123129D01*
X63526653Y-42750387D01*
X63428978Y-42385857D01*
X63293734Y-42033535D01*
X63122403Y-41697280D01*
X62916863Y-41380775D01*
X62679365Y-41087489D01*
X62412511Y-40820635D01*
X62119225Y-40583137D01*
X62119223Y-40583135D01*
X61802725Y-40377599D01*
X61466468Y-40206267D01*
X61114147Y-40071023D01*
X60749614Y-39973347D01*
X60749607Y-39973346D01*
X60376872Y-39914310D01*
X60000001Y-39894559D01*
X59999999Y-39894559D01*
X59623127Y-39914310D01*
X59250392Y-39973346D01*
X59250385Y-39973347D01*
X58885852Y-40071023D01*
X58533531Y-40206267D01*
X58197275Y-40377599D01*
X57880776Y-40583135D01*
X57587493Y-40820631D01*
X57587485Y-40820638D01*
X57320638Y-41087485D01*
X57320631Y-41087493D01*
X57083135Y-41380776D01*
X56877599Y-41697275D01*
X56706267Y-42033531D01*
X56571023Y-42385852D01*
X56473347Y-42750385D01*
X56473346Y-42750392D01*
X56414310Y-43123127D01*
X56394559Y-43499999D01*
X50500500Y-43499999D01*
X50500500Y-30624500D01*
X50520185Y-30557461D01*
X50572989Y-30511706D01*
X50624500Y-30500500D01*
X54759654Y-30500500D01*
X54826693Y-30520185D01*
G37*
%TD.AperFunction*%
M02*
