<?xml version="1.0" standalone="no"?>
 <!DOCTYPE svg PUBLIC "-//W3C//DTD SVG 1.1//EN" 
 "http://www.w3.org/Graphics/SVG/1.1/DTD/svg11.dtd"> 
<svg
  xmlns:svg="http://www.w3.org/2000/svg"
  xmlns="http://www.w3.org/2000/svg"
  xmlns:xlink="http://www.w3.org/1999/xlink"
  version="1.1"
  width="297.002200mm" height="210.007200mm" viewBox="0.000000 0.000000 297.002200 210.007200">
<title>SVG Image created as MiniSeq-F_Cu.svg date 2024/09/08 22:53:06 </title>
  <desc>Image generated by PCBNEW </desc>
<g style="fill:#000000; fill-opacity:1.000000;stroke:#000000; stroke-opacity:1.000000;
stroke-linecap:round; stroke-linejoin:round;"
 transform="translate(0 0) scale(1 1)">
<path style="fill:#000000; fill-opacity:1.000000; stroke:none;fill-rule:evenodd;"
d="M 150.400000,70.175000
148.600000,70.175000
148.600000,68.375000
150.400000,68.375000
Z" /> 
</g>
<g style="fill:#000000; fill-opacity:1.000000; stroke:none;">
<circle cx="149.500000" cy="66.735000" r="0.900000" /> 
</g>
<g style="fill:#000000; fill-opacity:1.000000; stroke:none;">
<circle cx="100.000000" cy="85.000000" r="4.000000" /> 
<path style="fill:#000000; fill-opacity:1.000000; stroke:none;fill-rule:evenodd;"
d="M 213.965000,117.055000
213.965000,118.885000
212.035000,118.885000
212.035000,117.055000
Z" /> 
</g>
<g style="fill:#000000; fill-opacity:1.000000; stroke:none;">
<circle cx="213.000000" cy="129.370000" r="1.065000" /> 
</g>
<g style="fill:#000000; fill-opacity:1.000000; stroke:none;">
<circle cx="213.000000" cy="121.070000" r="1.065000" /> 
</g>
<g style="fill:none; 
stroke:#000000; stroke-width:2.720000; stroke-opacity:1; 
stroke-linecap:round; stroke-linejoin:round;">
<path d="M185.200000 56.260000
L185.200000 55.740000
" />
<path d="M194.800000 56.260000
L194.800000 55.740000
" />
<path style="fill:#000000; fill-opacity:1.000000; stroke:none;fill-rule:evenodd;"
d="M 188.400000,62.600000
188.400000,64.400000
186.600000,64.400000
186.600000,62.600000
Z" /> 
</g>
<g style="fill:#000000; fill-opacity:1.000000; stroke:none;">
<circle cx="190.000000" cy="63.500000" r="0.900000" /> 
</g>
<g style="fill:#000000; fill-opacity:1.000000; stroke:none;">
<circle cx="192.500000" cy="63.500000" r="0.900000" /> 
</g>
<g style="fill:#000000; fill-opacity:1.000000; stroke:none;">
<circle cx="100.000000" cy="55.942500" r="4.000000" /> 
<path style="fill:#000000; fill-opacity:1.000000; stroke:none;fill-rule:evenodd;"
d="M 169.100000,70.825000
170.900000,70.825000
170.900000,72.625000
169.100000,72.625000
Z" /> 
</g>
<g style="fill:#000000; fill-opacity:1.000000; stroke:none;">
<circle cx="170.000000" cy="74.265000" r="0.900000" /> 
<path style="fill:#000000; fill-opacity:1.000000; stroke:none;fill-rule:evenodd;"
d="M 152.465000,135.185000
152.465000,137.015000
150.535000,137.015000
150.535000,135.185000
Z" /> 
</g>
<g style="fill:#000000; fill-opacity:1.000000; stroke:none;">
<circle cx="151.500000" cy="147.500000" r="1.065000" /> 
</g>
<g style="fill:#000000; fill-opacity:1.000000; stroke:none;">
<circle cx="151.500000" cy="139.200000" r="1.065000" /> 
<path style="fill:#000000; fill-opacity:1.000000; stroke:none;fill-rule:evenodd;"
d="M 210.900000,70.175000
209.100000,70.175000
209.100000,68.375000
210.900000,68.375000
Z" /> 
</g>
<g style="fill:#000000; fill-opacity:1.000000; stroke:none;">
<circle cx="210.000000" cy="66.735000" r="0.900000" /> 
<path style="fill:#000000; fill-opacity:1.000000; stroke:none;fill-rule:evenodd;"
d="M 209.500000,96.000000
209.500000,94.000000
211.500000,94.000000
211.500000,96.000000
Z" /> 
</g>
<g style="fill:#000000; fill-opacity:1.000000; stroke:none;">
<circle cx="210.500000" cy="97.500000" r="1.000000" /> 
<circle cx="210.500000" cy="100.000000" r="1.000000" /> 
<circle cx="173.540000" cy="118.920000" r="1.100000" /> 
</g>
<g style="fill:#000000; fill-opacity:1.000000; stroke:none;">
<circle cx="167.190000" cy="121.460000" r="1.100000" /> 
</g>
<g style="fill:none; 
stroke:#000000; stroke-width:2.720000; stroke-opacity:1; 
stroke-linecap:round; stroke-linejoin:round;">
<path d="M154.300000 84.740000
L154.300000 85.260000
" />
<path d="M144.700000 84.740000
L144.700000 85.260000
" />
<path style="fill:#000000; fill-opacity:1.000000; stroke:none;fill-rule:evenodd;"
d="M 151.100000,78.400000
151.100000,76.600000
152.900000,76.600000
152.900000,78.400000
Z" /> 
</g>
<g style="fill:#000000; fill-opacity:1.000000; stroke:none;">
<circle cx="149.500000" cy="77.500000" r="0.900000" /> 
</g>
<g style="fill:#000000; fill-opacity:1.000000; stroke:none;">
<circle cx="147.000000" cy="77.500000" r="0.900000" /> 
</g>
<g style="fill:#000000; fill-opacity:1.000000; stroke:none;">
<circle cx="80.000000" cy="85.000000" r="4.000000" /> 
</g>
<g style="fill:none; 
stroke:#000000; stroke-width:2.720000; stroke-opacity:1; 
stroke-linecap:round; stroke-linejoin:round;">
<path d="M194.800000 84.515000
L194.800000 85.035000
" />
<path d="M185.200000 84.515000
L185.200000 85.035000
" />
<path style="fill:#000000; fill-opacity:1.000000; stroke:none;fill-rule:evenodd;"
d="M 191.600000,78.175000
191.600000,76.375000
193.400000,76.375000
193.400000,78.175000
Z" /> 
</g>
<g style="fill:#000000; fill-opacity:1.000000; stroke:none;">
<circle cx="190.000000" cy="77.275000" r="0.900000" /> 
</g>
<g style="fill:#000000; fill-opacity:1.000000; stroke:none;">
<circle cx="187.500000" cy="77.275000" r="0.900000" /> 
</g>
<g style="fill:#000000; fill-opacity:1.000000; stroke:none;">
<circle cx="60.000000" cy="55.942500" r="4.000000" /> 
</g>
<g style="fill:#000000; fill-opacity:1.000000; stroke:none;">
<circle cx="197.061467" cy="112.608964" r="1.000000" /> 
<circle cx="201.391036" cy="116.938533" r="1.000000" /> 
<circle cx="201.391036" cy="123.061467" r="1.000000" /> 
<circle cx="197.061467" cy="127.391036" r="1.000000" /> 
<circle cx="190.938533" cy="127.391036" r="1.000000" /> 
<circle cx="186.608964" cy="123.061467" r="1.000000" /> 
<circle cx="186.608964" cy="116.938533" r="1.000000" /> 
<circle cx="190.938533" cy="112.608964" r="1.000000" /> 
<circle cx="196.650000" cy="120.000000" r="1.000000" /> 
</g>
<g style="fill:none; 
stroke:#000000; stroke-width:4.200000; stroke-opacity:1; 
stroke-linecap:round; stroke-linejoin:round;">
<path d="M56.100000 33.000000
L58.900000 33.000000
" />
<path d="M56.100000 155.500000
L58.900000 155.500000
" />
<path d="M121.100000 33.000000
L123.900000 33.000000
" />
<path d="M121.100000 155.500000
L123.900000 155.500000
" />
</g>
<g style="fill:none; 
stroke:#000000; stroke-width:2.720000; stroke-opacity:1; 
stroke-linecap:round; stroke-linejoin:round;">
<path d="M174.800000 84.740000
L174.800000 85.260000
" />
<path d="M165.200000 84.740000
L165.200000 85.260000
" />
<path style="fill:#000000; fill-opacity:1.000000; stroke:none;fill-rule:evenodd;"
d="M 171.600000,78.400000
171.600000,76.600000
173.400000,76.600000
173.400000,78.400000
Z" /> 
</g>
<g style="fill:#000000; fill-opacity:1.000000; stroke:none;">
<circle cx="170.000000" cy="77.500000" r="0.900000" /> 
</g>
<g style="fill:#000000; fill-opacity:1.000000; stroke:none;">
<circle cx="167.500000" cy="77.500000" r="0.900000" /> 
<path style="fill:#000000; fill-opacity:1.000000; stroke:none;fill-rule:evenodd;"
d="M 189.000000,42.000000
189.000000,40.000000
191.000000,40.000000
191.000000,42.000000
Z" /> 
</g>
<g style="fill:#000000; fill-opacity:1.000000; stroke:none;">
<circle cx="190.000000" cy="43.500000" r="1.000000" /> 
<circle cx="190.000000" cy="46.000000" r="1.000000" /> 
<path style="fill:#000000; fill-opacity:1.000000; stroke:none;fill-rule:evenodd;"
d="M 169.000000,42.000000
169.000000,40.000000
171.000000,40.000000
171.000000,42.000000
Z" /> 
<circle cx="170.000000" cy="43.500000" r="1.000000" /> 
<circle cx="170.000000" cy="46.000000" r="1.000000" /> 
<circle cx="123.000000" cy="142.500000" r="3.500000" /> 
<path style="fill:#000000; fill-opacity:1.000000; stroke:none;fill-rule:evenodd;"
d="M 171.965000,135.185000
171.965000,137.015000
170.035000,137.015000
170.035000,135.185000
Z" /> 
</g>
<g style="fill:#000000; fill-opacity:1.000000; stroke:none;">
<circle cx="171.000000" cy="147.500000" r="1.065000" /> 
</g>
<g style="fill:#000000; fill-opacity:1.000000; stroke:none;">
<circle cx="171.000000" cy="139.200000" r="1.065000" /> 
<path style="fill:#000000; fill-opacity:1.000000; stroke:none;fill-rule:evenodd;"
d="M 149.000000,42.000000
149.000000,40.000000
151.000000,40.000000
151.000000,42.000000
Z" /> 
</g>
<g style="fill:#000000; fill-opacity:1.000000; stroke:none;">
<circle cx="150.000000" cy="43.500000" r="1.000000" /> 
<circle cx="150.000000" cy="46.000000" r="1.000000" /> 
</g>
<g style="fill:none; 
stroke:#000000; stroke-width:2.720000; stroke-opacity:1; 
stroke-linecap:round; stroke-linejoin:round;">
<path d="M205.200000 56.260000
L205.200000 55.740000
" />
<path d="M214.800000 56.260000
L214.800000 55.740000
" />
<path style="fill:#000000; fill-opacity:1.000000; stroke:none;fill-rule:evenodd;"
d="M 208.400000,62.600000
208.400000,64.400000
206.600000,64.400000
206.600000,62.600000
Z" /> 
</g>
<g style="fill:#000000; fill-opacity:1.000000; stroke:none;">
<circle cx="210.000000" cy="63.500000" r="0.900000" /> 
</g>
<g style="fill:#000000; fill-opacity:1.000000; stroke:none;">
<circle cx="212.500000" cy="63.500000" r="0.900000" /> 
<path style="fill:#000000; fill-opacity:1.000000; stroke:none;fill-rule:evenodd;"
d="M 180.100000,141.650000
180.195671,141.669030
180.276777,141.723223
180.330970,141.804329
180.350000,141.900000
180.350000,143.100000
180.330970,143.195671
180.276777,143.276777
180.195671,143.330970
180.100000,143.350000
178.900000,143.350000
178.804329,143.330970
178.723223,143.276777
178.669030,143.195671
178.650000,143.100000
178.650000,141.900000
178.669030,141.804329
178.723223,141.723223
178.804329,141.669030
178.900000,141.650000
Z" /> 
</g>
<g style="fill:#000000; fill-opacity:1.000000; stroke:none;">
<circle cx="179.500000" cy="145.040000" r="0.850000" /> 
</g>
<g style="fill:#000000; fill-opacity:1.000000; stroke:none;">
<circle cx="182.040000" cy="142.500000" r="0.850000" /> 
</g>
<g style="fill:#000000; fill-opacity:1.000000; stroke:none;">
<circle cx="182.040000" cy="145.040000" r="0.850000" /> 
</g>
<g style="fill:#000000; fill-opacity:1.000000; stroke:none;">
<circle cx="184.580000" cy="142.500000" r="0.850000" /> 
</g>
<g style="fill:#000000; fill-opacity:1.000000; stroke:none;">
<circle cx="184.580000" cy="145.040000" r="0.850000" /> 
</g>
<g style="fill:#000000; fill-opacity:1.000000; stroke:none;">
<circle cx="187.120000" cy="142.500000" r="0.850000" /> 
</g>
<g style="fill:#000000; fill-opacity:1.000000; stroke:none;">
<circle cx="187.120000" cy="145.040000" r="0.850000" /> 
</g>
<g style="fill:#000000; fill-opacity:1.000000; stroke:none;">
<circle cx="189.660000" cy="142.500000" r="0.850000" /> 
</g>
<g style="fill:#000000; fill-opacity:1.000000; stroke:none;">
<circle cx="189.660000" cy="145.040000" r="0.850000" /> 
</g>
<g style="fill:#000000; fill-opacity:1.000000; stroke:none;">
<circle cx="80.000000" cy="55.942500" r="4.000000" /> 
</g>
<g style="fill:#000000; fill-opacity:1.000000; stroke:none;">
<circle cx="61.500000" cy="142.720000" r="3.500000" /> 
<path style="fill:#000000; fill-opacity:1.000000; stroke:none;fill-rule:evenodd;"
d="M 209.000000,42.000000
209.000000,40.000000
211.000000,40.000000
211.000000,42.000000
Z" /> 
</g>
<g style="fill:#000000; fill-opacity:1.000000; stroke:none;">
<circle cx="210.000000" cy="43.500000" r="1.000000" /> 
<circle cx="210.000000" cy="46.000000" r="1.000000" /> 
<circle cx="120.000000" cy="85.057500" r="4.000000" /> 
<path style="fill:#000000; fill-opacity:1.000000; stroke:none;fill-rule:evenodd;"
d="M 148.600000,70.825000
150.400000,70.825000
150.400000,72.625000
148.600000,72.625000
Z" /> 
</g>
<g style="fill:#000000; fill-opacity:1.000000; stroke:none;">
<circle cx="149.500000" cy="74.265000" r="0.900000" /> 
</g>
<g style="fill:#000000; fill-opacity:1.000000; stroke:none;">
<circle cx="60.000000" cy="85.000000" r="4.000000" /> 
</g>
<g style="fill:#000000; fill-opacity:1.000000; stroke:none;">
<circle cx="80.000000" cy="142.720000" r="3.500000" /> 
</g>
<g style="fill:#000000; fill-opacity:1.000000; stroke:none;">
<circle cx="120.000000" cy="55.942500" r="4.000000" /> 
<path style="fill:#000000; fill-opacity:1.000000; stroke:none;fill-rule:evenodd;"
d="M 169.000000,96.000000
169.000000,94.000000
171.000000,94.000000
171.000000,96.000000
Z" /> 
</g>
<g style="fill:#000000; fill-opacity:1.000000; stroke:none;">
<circle cx="170.000000" cy="97.500000" r="1.000000" /> 
<circle cx="170.000000" cy="100.000000" r="1.000000" /> 
</g>
<g style="fill:none; 
stroke:#000000; stroke-width:2.720000; stroke-opacity:1; 
stroke-linecap:round; stroke-linejoin:round;">
<path d="M214.800000 84.515000
L214.800000 85.035000
" />
<path d="M205.200000 84.515000
L205.200000 85.035000
" />
<path style="fill:#000000; fill-opacity:1.000000; stroke:none;fill-rule:evenodd;"
d="M 211.600000,78.175000
211.600000,76.375000
213.400000,76.375000
213.400000,78.175000
Z" /> 
</g>
<g style="fill:#000000; fill-opacity:1.000000; stroke:none;">
<circle cx="210.000000" cy="77.275000" r="0.900000" /> 
</g>
<g style="fill:#000000; fill-opacity:1.000000; stroke:none;">
<circle cx="207.500000" cy="77.275000" r="0.900000" /> 
</g>
<g style="fill:none; 
stroke:#000000; stroke-width:2.720000; stroke-opacity:1; 
stroke-linecap:round; stroke-linejoin:round;">
<path d="M144.700000 56.260000
L144.700000 55.740000
" />
<path d="M154.300000 56.260000
L154.300000 55.740000
" />
<path style="fill:#000000; fill-opacity:1.000000; stroke:none;fill-rule:evenodd;"
d="M 147.900000,62.600000
147.900000,64.400000
146.100000,64.400000
146.100000,62.600000
Z" /> 
</g>
<g style="fill:#000000; fill-opacity:1.000000; stroke:none;">
<circle cx="149.500000" cy="63.500000" r="0.900000" /> 
</g>
<g style="fill:#000000; fill-opacity:1.000000; stroke:none;">
<circle cx="152.000000" cy="63.500000" r="0.900000" /> 
</g>
<g style="fill:#000000; fill-opacity:1.000000; stroke:none;">
<circle cx="213.000000" cy="139.200000" r="1.065000" /> 
</g>
<g style="fill:#000000; fill-opacity:1.000000; stroke:none;">
<circle cx="213.000000" cy="147.500000" r="1.065000" /> 
<path style="fill:#000000; fill-opacity:1.000000; stroke:none;fill-rule:evenodd;"
d="M 213.965000,135.185000
213.965000,137.015000
212.035000,137.015000
212.035000,135.185000
Z" /> 
</g>
<g style="fill:#000000; fill-opacity:1.000000; stroke:none;">
<circle cx="123.000000" cy="124.470000" r="3.500000" /> 
<path style="fill:#000000; fill-opacity:1.000000; stroke:none;fill-rule:evenodd;"
d="M 148.000000,96.000000
148.000000,94.000000
150.000000,94.000000
150.000000,96.000000
Z" /> 
</g>
<g style="fill:#000000; fill-opacity:1.000000; stroke:none;">
<circle cx="149.000000" cy="97.500000" r="1.000000" /> 
<circle cx="149.000000" cy="100.000000" r="1.000000" /> 
</g>
<g style="fill:none; 
stroke:#000000; stroke-width:2.720000; stroke-opacity:1; 
stroke-linecap:round; stroke-linejoin:round;">
<path d="M165.200000 56.260000
L165.200000 55.740000
" />
<path d="M174.800000 56.260000
L174.800000 55.740000
" />
<path style="fill:#000000; fill-opacity:1.000000; stroke:none;fill-rule:evenodd;"
d="M 168.400000,62.600000
168.400000,64.400000
166.600000,64.400000
166.600000,62.600000
Z" /> 
</g>
<g style="fill:#000000; fill-opacity:1.000000; stroke:none;">
<circle cx="170.000000" cy="63.500000" r="0.900000" /> 
</g>
<g style="fill:#000000; fill-opacity:1.000000; stroke:none;">
<circle cx="172.500000" cy="63.500000" r="0.900000" /> 
<path style="fill:#000000; fill-opacity:1.000000; stroke:none;fill-rule:evenodd;"
d="M 190.900000,70.175000
189.100000,70.175000
189.100000,68.375000
190.900000,68.375000
Z" /> 
</g>
<g style="fill:#000000; fill-opacity:1.000000; stroke:none;">
<circle cx="190.000000" cy="66.735000" r="0.900000" /> 
<path style="fill:#000000; fill-opacity:1.000000; stroke:none;fill-rule:evenodd;"
d="M 189.100000,70.825000
190.900000,70.825000
190.900000,72.625000
189.100000,72.625000
Z" /> 
</g>
<g style="fill:#000000; fill-opacity:1.000000; stroke:none;">
<circle cx="190.000000" cy="74.265000" r="0.900000" /> 
</g>
<g style="fill:#000000; fill-opacity:1.000000; stroke:none;">
<circle cx="153.960000" cy="118.920000" r="1.100000" /> 
</g>
<g style="fill:#000000; fill-opacity:1.000000; stroke:none;">
<circle cx="147.610000" cy="121.460000" r="1.100000" /> 
<path style="fill:#000000; fill-opacity:1.000000; stroke:none;fill-rule:evenodd;"
d="M 209.100000,70.825000
210.900000,70.825000
210.900000,72.625000
209.100000,72.625000
Z" /> 
</g>
<g style="fill:#000000; fill-opacity:1.000000; stroke:none;">
<circle cx="210.000000" cy="74.265000" r="0.900000" /> 
<path style="fill:#000000; fill-opacity:1.000000; stroke:none;fill-rule:evenodd;"
d="M 170.900000,70.175000
169.100000,70.175000
169.100000,68.375000
170.900000,68.375000
Z" /> 
</g>
<g style="fill:#000000; fill-opacity:1.000000; stroke:none;">
<circle cx="170.000000" cy="66.735000" r="0.900000" /> 
<path style="fill:#000000; fill-opacity:1.000000; stroke:none;fill-rule:evenodd;"
d="M 189.000000,96.000000
189.000000,94.000000
191.000000,94.000000
191.000000,96.000000
Z" /> 
</g>
<g style="fill:#000000; fill-opacity:1.000000; stroke:none;">
<circle cx="190.000000" cy="97.500000" r="1.000000" /> 
<circle cx="190.000000" cy="100.000000" r="1.000000" /> 
<circle cx="104.000000" cy="120.000000" r="4.600000" /> 
</g>
<g style="fill:#000000; fill-opacity:1.000000; stroke:none;">
<circle cx="60.000000" cy="43.500000" r="3.100000" /> 
</g>
<g style="fill:#000000; fill-opacity:1.000000; stroke:none;">
<circle cx="120.000000" cy="43.500000" r="3.100000" /> 
</g>
<g style="fill:#000000; fill-opacity:1.000000; stroke:none;">
<circle cx="80.000000" cy="73.000000" r="1.600000" /> 
</g>
<g style="fill:#000000; fill-opacity:1.000000; stroke:none;">
<circle cx="80.000000" cy="68.000000" r="1.600000" /> 
</g>
<g style="fill:#000000; fill-opacity:1.000000; stroke:none;">
<circle cx="100.000000" cy="73.000000" r="1.600000" /> 
</g>
<g style="fill:#000000; fill-opacity:1.000000; stroke:none;">
<circle cx="120.000000" cy="97.500000" r="3.100000" /> 
</g>
<g style="fill:#000000; fill-opacity:1.000000; stroke:none;">
<circle cx="80.000000" cy="43.500000" r="3.100000" /> 
</g>
<g style="fill:#000000; fill-opacity:1.000000; stroke:none;">
<circle cx="120.000000" cy="73.000000" r="1.600000" /> 
</g>
<g style="fill:#000000; fill-opacity:1.000000; stroke:none;">
<circle cx="60.000000" cy="73.000000" r="1.600000" /> 
</g>
<g style="fill:#000000; fill-opacity:1.000000; stroke:none;">
<circle cx="120.000000" cy="68.000000" r="1.600000" /> 
</g>
<g style="fill:#000000; fill-opacity:1.000000; stroke:none;">
<circle cx="60.000000" cy="97.500000" r="3.100000" /> 
</g>
<g style="fill:#000000; fill-opacity:1.000000; stroke:none;">
<circle cx="100.000000" cy="97.500000" r="3.100000" /> 
</g>
<g style="fill:#000000; fill-opacity:1.000000; stroke:none;">
<circle cx="80.000000" cy="97.500000" r="3.100000" /> 
</g>
<g style="fill:#000000; fill-opacity:1.000000; stroke:none;">
<circle cx="60.000000" cy="68.000000" r="1.600000" /> 
</g>
<g style="fill:#000000; fill-opacity:1.000000; stroke:none;">
<circle cx="100.000000" cy="68.000000" r="1.600000" /> 
</g>
<g style="fill:#000000; fill-opacity:1.000000; stroke:none;">
<circle cx="100.000000" cy="43.500000" r="3.100000" /> 
</g> 
</svg>
