<?xml version="1.0" standalone="no"?>
 <!DOCTYPE svg PUBLIC "-//W3C//DTD SVG 1.1//EN" 
 "http://www.w3.org/Graphics/SVG/1.1/DTD/svg11.dtd"> 
<svg
  xmlns:svg="http://www.w3.org/2000/svg"
  xmlns="http://www.w3.org/2000/svg"
  xmlns:xlink="http://www.w3.org/1999/xlink"
  version="1.1"
  width="297.002200mm" height="210.007200mm" viewBox="0.000000 0.000000 297.002200 210.007200">
<title>SVG Image created as MiniSeq-B_Cu.svg date 2024/09/08 22:53:06 </title>
  <desc>Image generated by PCBNEW </desc>
<g style="fill:#000000; fill-opacity:1.000000;stroke:#000000; stroke-opacity:1.000000;
stroke-linecap:round; stroke-linejoin:round;"
 transform="translate(0 0) scale(1 1)">
<path style="fill:#000000; fill-opacity:1.000000; stroke:none;fill-rule:evenodd;"
d="M 248.825000,75.335000
248.842127,75.248896
248.890901,75.175901
248.963896,75.127127
249.050000,75.110000
249.500000,75.110000
249.586104,75.127127
249.659099,75.175901
249.707873,75.248896
249.725000,75.335000
249.725000,76.085000
249.707873,76.171104
249.659099,76.244099
249.586104,76.292873
249.500000,76.310000
249.050000,76.310000
248.963896,76.292873
248.890901,76.244099
248.842127,76.171104
248.825000,76.085000
Z" /> 
<path style="fill:#000000; fill-opacity:1.000000; stroke:none;fill-rule:evenodd;"
d="M 252.125000,75.335000
252.142127,75.248896
252.190901,75.175901
252.263896,75.127127
252.350000,75.110000
252.800000,75.110000
252.886104,75.127127
252.959099,75.175901
253.007873,75.248896
253.025000,75.335000
253.025000,76.085000
253.007873,76.171104
252.959099,76.244099
252.886104,76.292873
252.800000,76.310000
252.350000,76.310000
252.263896,76.292873
252.190901,76.244099
252.142127,76.171104
252.125000,76.085000
Z" /> 
<path style="fill:#000000; fill-opacity:1.000000; stroke:none;fill-rule:evenodd;"
d="M 150.400000,70.175000
148.600000,70.175000
148.600000,68.375000
150.400000,68.375000
Z" /> 
</g>
<g style="fill:#000000; fill-opacity:1.000000; stroke:none;">
<circle cx="149.500000" cy="66.735000" r="0.900000" /> 
<path style="fill:#000000; fill-opacity:1.000000; stroke:none;fill-rule:evenodd;"
d="M 266.405000,58.330000
266.387873,58.416104
266.339099,58.489099
266.266104,58.537873
266.180000,58.555000
265.730000,58.555000
265.643896,58.537873
265.570901,58.489099
265.522127,58.416104
265.505000,58.330000
265.505000,57.580000
265.522127,57.493896
265.570901,57.420901
265.643896,57.372127
265.730000,57.355000
266.180000,57.355000
266.266104,57.372127
266.339099,57.420901
266.387873,57.493896
266.405000,57.580000
Z" /> 
<path style="fill:#000000; fill-opacity:1.000000; stroke:none;fill-rule:evenodd;"
d="M 263.105000,58.330000
263.087873,58.416104
263.039099,58.489099
262.966104,58.537873
262.880000,58.555000
262.430000,58.555000
262.343896,58.537873
262.270901,58.489099
262.222127,58.416104
262.205000,58.330000
262.205000,57.580000
262.222127,57.493896
262.270901,57.420901
262.343896,57.372127
262.430000,57.355000
262.880000,57.355000
262.966104,57.372127
263.039099,57.420901
263.087873,57.493896
263.105000,57.580000
Z" /> 
<path style="fill:#000000; fill-opacity:1.000000; stroke:none;fill-rule:evenodd;"
d="M 245.000000,85.347500
244.981921,85.438387
244.930438,85.515438
244.853387,85.566921
244.762500,85.585000
244.262500,85.585000
244.171613,85.566921
244.094562,85.515438
244.043079,85.438387
244.025000,85.347500
244.025000,84.872500
244.043079,84.781613
244.094562,84.704562
244.171613,84.653079
244.262500,84.635000
244.762500,84.635000
244.853387,84.653079
244.930438,84.704562
244.981921,84.781613
245.000000,84.872500
Z" /> 
<path style="fill:#000000; fill-opacity:1.000000; stroke:none;fill-rule:evenodd;"
d="M 243.175000,85.347500
243.156921,85.438387
243.105438,85.515438
243.028387,85.566921
242.937500,85.585000
242.437500,85.585000
242.346613,85.566921
242.269562,85.515438
242.218079,85.438387
242.200000,85.347500
242.200000,84.872500
242.218079,84.781613
242.269562,84.704562
242.346613,84.653079
242.437500,84.635000
242.937500,84.635000
243.028387,84.653079
243.105438,84.704562
243.156921,84.781613
243.175000,84.872500
Z" /> 
<path style="fill:#000000; fill-opacity:1.000000; stroke:none;fill-rule:evenodd;"
d="M 242.965000,60.212500
242.946921,60.303387
242.895438,60.380438
242.818387,60.431921
242.727500,60.450000
242.227500,60.450000
242.136613,60.431921
242.059562,60.380438
242.008079,60.303387
241.990000,60.212500
241.990000,59.737500
242.008079,59.646613
242.059562,59.569562
242.136613,59.518079
242.227500,59.500000
242.727500,59.500000
242.818387,59.518079
242.895438,59.569562
242.946921,59.646613
242.965000,59.737500
Z" /> 
<path style="fill:#000000; fill-opacity:1.000000; stroke:none;fill-rule:evenodd;"
d="M 241.140000,60.212500
241.121921,60.303387
241.070438,60.380438
240.993387,60.431921
240.902500,60.450000
240.402500,60.450000
240.311613,60.431921
240.234562,60.380438
240.183079,60.303387
240.165000,60.212500
240.165000,59.737500
240.183079,59.646613
240.234562,59.569562
240.311613,59.518079
240.402500,59.500000
240.902500,59.500000
240.993387,59.518079
241.070438,59.569562
241.121921,59.646613
241.140000,59.737500
Z" /> 
<path style="fill:#000000; fill-opacity:1.000000; stroke:none;fill-rule:evenodd;"
d="M 240.162500,77.447500
240.253387,77.465579
240.330438,77.517062
240.381921,77.594113
240.400000,77.685000
240.400000,78.285000
240.381921,78.375887
240.330438,78.452938
240.253387,78.504421
240.162500,78.522500
239.687500,78.522500
239.596613,78.504421
239.519562,78.452938
239.468079,78.375887
239.450000,78.285000
239.450000,77.685000
239.468079,77.594113
239.519562,77.517062
239.596613,77.465579
239.687500,77.447500
Z" /> 
<path style="fill:#000000; fill-opacity:1.000000; stroke:none;fill-rule:evenodd;"
d="M 240.162500,79.172500
240.253387,79.190579
240.330438,79.242062
240.381921,79.319113
240.400000,79.410000
240.400000,80.010000
240.381921,80.100887
240.330438,80.177938
240.253387,80.229421
240.162500,80.247500
239.687500,80.247500
239.596613,80.229421
239.519562,80.177938
239.468079,80.100887
239.450000,80.010000
239.450000,79.410000
239.468079,79.319113
239.519562,79.242062
239.596613,79.190579
239.687500,79.172500
Z" /> 
</g>
<g style="fill:#000000; fill-opacity:1.000000; stroke:none;">
<circle cx="100.000000" cy="85.000000" r="4.000000" /> 
<path style="fill:#000000; fill-opacity:1.000000; stroke:none;fill-rule:evenodd;"
d="M 213.965000,117.055000
213.965000,118.885000
212.035000,118.885000
212.035000,117.055000
Z" /> 
</g>
<g style="fill:#000000; fill-opacity:1.000000; stroke:none;">
<circle cx="213.000000" cy="129.370000" r="1.065000" /> 
</g>
<g style="fill:#000000; fill-opacity:1.000000; stroke:none;">
<circle cx="213.000000" cy="121.070000" r="1.065000" /> 
<path style="fill:#000000; fill-opacity:1.000000; stroke:none;fill-rule:evenodd;"
d="M 266.405000,51.230000
266.387873,51.316104
266.339099,51.389099
266.266104,51.437873
266.180000,51.455000
265.730000,51.455000
265.643896,51.437873
265.570901,51.389099
265.522127,51.316104
265.505000,51.230000
265.505000,50.480000
265.522127,50.393896
265.570901,50.320901
265.643896,50.272127
265.730000,50.255000
266.180000,50.255000
266.266104,50.272127
266.339099,50.320901
266.387873,50.393896
266.405000,50.480000
Z" /> 
<path style="fill:#000000; fill-opacity:1.000000; stroke:none;fill-rule:evenodd;"
d="M 263.105000,51.230000
263.087873,51.316104
263.039099,51.389099
262.966104,51.437873
262.880000,51.455000
262.430000,51.455000
262.343896,51.437873
262.270901,51.389099
262.222127,51.316104
262.205000,51.230000
262.205000,50.480000
262.222127,50.393896
262.270901,50.320901
262.343896,50.272127
262.430000,50.255000
262.880000,50.255000
262.966104,50.272127
263.039099,50.320901
263.087873,50.393896
263.105000,50.480000
Z" /> 
<path style="fill:#000000; fill-opacity:1.000000; stroke:none;fill-rule:evenodd;"
d="M 236.687500,80.110000
236.596613,80.091921
236.519562,80.040438
236.468079,79.963387
236.450000,79.872500
236.450000,79.372500
236.468079,79.281613
236.519562,79.204562
236.596613,79.153079
236.687500,79.135000
237.162500,79.135000
237.253387,79.153079
237.330438,79.204562
237.381921,79.281613
237.400000,79.372500
237.400000,79.872500
237.381921,79.963387
237.330438,80.040438
237.253387,80.091921
237.162500,80.110000
Z" /> 
<path style="fill:#000000; fill-opacity:1.000000; stroke:none;fill-rule:evenodd;"
d="M 236.687500,78.285000
236.596613,78.266921
236.519562,78.215438
236.468079,78.138387
236.450000,78.047500
236.450000,77.547500
236.468079,77.456613
236.519562,77.379562
236.596613,77.328079
236.687500,77.310000
237.162500,77.310000
237.253387,77.328079
237.330438,77.379562
237.381921,77.456613
237.400000,77.547500
237.400000,78.047500
237.381921,78.138387
237.330438,78.215438
237.253387,78.266921
237.162500,78.285000
Z" /> 
</g>
<g style="fill:none; 
stroke:#000000; stroke-width:2.720000; stroke-opacity:1; 
stroke-linecap:round; stroke-linejoin:round;">
<path d="M185.200000 56.260000
L185.200000 55.740000
" />
<path d="M194.800000 56.260000
L194.800000 55.740000
" />
<path style="fill:#000000; fill-opacity:1.000000; stroke:none;fill-rule:evenodd;"
d="M 188.400000,62.600000
188.400000,64.400000
186.600000,64.400000
186.600000,62.600000
Z" /> 
</g>
<g style="fill:#000000; fill-opacity:1.000000; stroke:none;">
<circle cx="190.000000" cy="63.500000" r="0.900000" /> 
</g>
<g style="fill:#000000; fill-opacity:1.000000; stroke:none;">
<circle cx="192.500000" cy="63.500000" r="0.900000" /> 
</g>
<g style="fill:#000000; fill-opacity:1.000000; stroke:none;">
<circle cx="100.000000" cy="55.942500" r="4.000000" /> 
<path style="fill:#000000; fill-opacity:1.000000; stroke:none;fill-rule:evenodd;"
d="M 183.450000,135.550000
183.430970,135.645671
183.376777,135.726777
183.295671,135.780970
183.200000,135.800000
180.200000,135.800000
180.104329,135.780970
180.023223,135.726777
179.969030,135.645671
179.950000,135.550000
179.950000,134.450000
179.969030,134.354329
180.023223,134.273223
180.104329,134.219030
180.200000,134.200000
183.200000,134.200000
183.295671,134.219030
183.376777,134.273223
183.430970,134.354329
183.450000,134.450000
Z" /> 
<path style="fill:#000000; fill-opacity:1.000000; stroke:none;fill-rule:evenodd;"
d="M 178.050000,135.550000
178.030970,135.645671
177.976777,135.726777
177.895671,135.780970
177.800000,135.800000
174.800000,135.800000
174.704329,135.780970
174.623223,135.726777
174.569030,135.645671
174.550000,135.550000
174.550000,134.450000
174.569030,134.354329
174.623223,134.273223
174.704329,134.219030
174.800000,134.200000
177.800000,134.200000
177.895671,134.219030
177.976777,134.273223
178.030970,134.354329
178.050000,134.450000
Z" /> 
<path style="fill:#000000; fill-opacity:1.000000; stroke:none;fill-rule:evenodd;"
d="M 169.100000,70.825000
170.900000,70.825000
170.900000,72.625000
169.100000,72.625000
Z" /> 
</g>
<g style="fill:#000000; fill-opacity:1.000000; stroke:none;">
<circle cx="170.000000" cy="74.265000" r="0.900000" /> 
<path style="fill:#000000; fill-opacity:1.000000; stroke:none;fill-rule:evenodd;"
d="M 242.965000,55.192500
242.946921,55.283387
242.895438,55.360438
242.818387,55.411921
242.727500,55.430000
242.227500,55.430000
242.136613,55.411921
242.059562,55.360438
242.008079,55.283387
241.990000,55.192500
241.990000,54.717500
242.008079,54.626613
242.059562,54.549562
242.136613,54.498079
242.227500,54.480000
242.727500,54.480000
242.818387,54.498079
242.895438,54.549562
242.946921,54.626613
242.965000,54.717500
Z" /> 
<path style="fill:#000000; fill-opacity:1.000000; stroke:none;fill-rule:evenodd;"
d="M 241.140000,55.192500
241.121921,55.283387
241.070438,55.360438
240.993387,55.411921
240.902500,55.430000
240.402500,55.430000
240.311613,55.411921
240.234562,55.360438
240.183079,55.283387
240.165000,55.192500
240.165000,54.717500
240.183079,54.626613
240.234562,54.549562
240.311613,54.498079
240.402500,54.480000
240.902500,54.480000
240.993387,54.498079
241.070438,54.549562
241.121921,54.626613
241.140000,54.717500
Z" /> 
<path style="fill:#000000; fill-opacity:1.000000; stroke:none;fill-rule:evenodd;"
d="M 152.465000,135.185000
152.465000,137.015000
150.535000,137.015000
150.535000,135.185000
Z" /> 
</g>
<g style="fill:#000000; fill-opacity:1.000000; stroke:none;">
<circle cx="151.500000" cy="147.500000" r="1.065000" /> 
</g>
<g style="fill:#000000; fill-opacity:1.000000; stroke:none;">
<circle cx="151.500000" cy="139.200000" r="1.065000" /> 
<path style="fill:#000000; fill-opacity:1.000000; stroke:none;fill-rule:evenodd;"
d="M 266.405000,47.680000
266.387873,47.766104
266.339099,47.839099
266.266104,47.887873
266.180000,47.905000
265.730000,47.905000
265.643896,47.887873
265.570901,47.839099
265.522127,47.766104
265.505000,47.680000
265.505000,46.930000
265.522127,46.843896
265.570901,46.770901
265.643896,46.722127
265.730000,46.705000
266.180000,46.705000
266.266104,46.722127
266.339099,46.770901
266.387873,46.843896
266.405000,46.930000
Z" /> 
<path style="fill:#000000; fill-opacity:1.000000; stroke:none;fill-rule:evenodd;"
d="M 263.105000,47.680000
263.087873,47.766104
263.039099,47.839099
262.966104,47.887873
262.880000,47.905000
262.430000,47.905000
262.343896,47.887873
262.270901,47.839099
262.222127,47.766104
262.205000,47.680000
262.205000,46.930000
262.222127,46.843896
262.270901,46.770901
262.343896,46.722127
262.430000,46.705000
262.880000,46.705000
262.966104,46.722127
263.039099,46.770901
263.087873,46.843896
263.105000,46.930000
Z" /> 
<path style="fill:#000000; fill-opacity:1.000000; stroke:none;fill-rule:evenodd;"
d="M 210.900000,70.175000
209.100000,70.175000
209.100000,68.375000
210.900000,68.375000
Z" /> 
</g>
<g style="fill:#000000; fill-opacity:1.000000; stroke:none;">
<circle cx="210.000000" cy="66.735000" r="0.900000" /> 
<path style="fill:#000000; fill-opacity:1.000000; stroke:none;fill-rule:evenodd;"
d="M 209.500000,96.000000
209.500000,94.000000
211.500000,94.000000
211.500000,96.000000
Z" /> 
</g>
<g style="fill:#000000; fill-opacity:1.000000; stroke:none;">
<circle cx="210.500000" cy="97.500000" r="1.000000" /> 
<circle cx="210.500000" cy="100.000000" r="1.000000" /> 
<circle cx="173.540000" cy="118.920000" r="1.100000" /> 
</g>
<g style="fill:#000000; fill-opacity:1.000000; stroke:none;">
<circle cx="167.190000" cy="121.460000" r="1.100000" /> 
<path style="fill:#000000; fill-opacity:1.000000; stroke:none;fill-rule:evenodd;"
d="M 253.837500,92.197500
253.819421,92.288387
253.767938,92.365438
253.690887,92.416921
253.600000,92.435000
253.100000,92.435000
253.009113,92.416921
252.932062,92.365438
252.880579,92.288387
252.862500,92.197500
252.862500,91.722500
252.880579,91.631613
252.932062,91.554562
253.009113,91.503079
253.100000,91.485000
253.600000,91.485000
253.690887,91.503079
253.767938,91.554562
253.819421,91.631613
253.837500,91.722500
Z" /> 
<path style="fill:#000000; fill-opacity:1.000000; stroke:none;fill-rule:evenodd;"
d="M 252.012500,92.197500
251.994421,92.288387
251.942938,92.365438
251.865887,92.416921
251.775000,92.435000
251.275000,92.435000
251.184113,92.416921
251.107062,92.365438
251.055579,92.288387
251.037500,92.197500
251.037500,91.722500
251.055579,91.631613
251.107062,91.554562
251.184113,91.503079
251.275000,91.485000
251.775000,91.485000
251.865887,91.503079
251.942938,91.554562
251.994421,91.631613
252.012500,91.722500
Z" /> 
</g>
<g style="fill:none; 
stroke:#000000; stroke-width:2.720000; stroke-opacity:1; 
stroke-linecap:round; stroke-linejoin:round;">
<path d="M154.300000 84.740000
L154.300000 85.260000
" />
<path d="M144.700000 84.740000
L144.700000 85.260000
" />
<path style="fill:#000000; fill-opacity:1.000000; stroke:none;fill-rule:evenodd;"
d="M 151.100000,78.400000
151.100000,76.600000
152.900000,76.600000
152.900000,78.400000
Z" /> 
</g>
<g style="fill:#000000; fill-opacity:1.000000; stroke:none;">
<circle cx="149.500000" cy="77.500000" r="0.900000" /> 
</g>
<g style="fill:#000000; fill-opacity:1.000000; stroke:none;">
<circle cx="147.000000" cy="77.500000" r="0.900000" /> 
<path style="fill:#000000; fill-opacity:1.000000; stroke:none;fill-rule:evenodd;"
d="M 266.405000,54.780000
266.387873,54.866104
266.339099,54.939099
266.266104,54.987873
266.180000,55.005000
265.730000,55.005000
265.643896,54.987873
265.570901,54.939099
265.522127,54.866104
265.505000,54.780000
265.505000,54.030000
265.522127,53.943896
265.570901,53.870901
265.643896,53.822127
265.730000,53.805000
266.180000,53.805000
266.266104,53.822127
266.339099,53.870901
266.387873,53.943896
266.405000,54.030000
Z" /> 
<path style="fill:#000000; fill-opacity:1.000000; stroke:none;fill-rule:evenodd;"
d="M 263.105000,54.780000
263.087873,54.866104
263.039099,54.939099
262.966104,54.987873
262.880000,55.005000
262.430000,55.005000
262.343896,54.987873
262.270901,54.939099
262.222127,54.866104
262.205000,54.780000
262.205000,54.030000
262.222127,53.943896
262.270901,53.870901
262.343896,53.822127
262.430000,53.805000
262.880000,53.805000
262.966104,53.822127
263.039099,53.870901
263.087873,53.943896
263.105000,54.030000
Z" /> 
<path style="fill:#000000; fill-opacity:1.000000; stroke:none;fill-rule:evenodd;"
d="M 266.405000,37.030000
266.387873,37.116104
266.339099,37.189099
266.266104,37.237873
266.180000,37.255000
265.730000,37.255000
265.643896,37.237873
265.570901,37.189099
265.522127,37.116104
265.505000,37.030000
265.505000,36.280000
265.522127,36.193896
265.570901,36.120901
265.643896,36.072127
265.730000,36.055000
266.180000,36.055000
266.266104,36.072127
266.339099,36.120901
266.387873,36.193896
266.405000,36.280000
Z" /> 
<path style="fill:#000000; fill-opacity:1.000000; stroke:none;fill-rule:evenodd;"
d="M 263.105000,37.030000
263.087873,37.116104
263.039099,37.189099
262.966104,37.237873
262.880000,37.255000
262.430000,37.255000
262.343896,37.237873
262.270901,37.189099
262.222127,37.116104
262.205000,37.030000
262.205000,36.280000
262.222127,36.193896
262.270901,36.120901
262.343896,36.072127
262.430000,36.055000
262.880000,36.055000
262.966104,36.072127
263.039099,36.120901
263.087873,36.193896
263.105000,36.280000
Z" /> 
<path style="fill:#000000; fill-opacity:1.000000; stroke:none;fill-rule:evenodd;"
d="M 242.965000,57.702500
242.946921,57.793387
242.895438,57.870438
242.818387,57.921921
242.727500,57.940000
242.227500,57.940000
242.136613,57.921921
242.059562,57.870438
242.008079,57.793387
241.990000,57.702500
241.990000,57.227500
242.008079,57.136613
242.059562,57.059562
242.136613,57.008079
242.227500,56.990000
242.727500,56.990000
242.818387,57.008079
242.895438,57.059562
242.946921,57.136613
242.965000,57.227500
Z" /> 
<path style="fill:#000000; fill-opacity:1.000000; stroke:none;fill-rule:evenodd;"
d="M 241.140000,57.702500
241.121921,57.793387
241.070438,57.870438
240.993387,57.921921
240.902500,57.940000
240.402500,57.940000
240.311613,57.921921
240.234562,57.870438
240.183079,57.793387
240.165000,57.702500
240.165000,57.227500
240.183079,57.136613
240.234562,57.059562
240.311613,57.008079
240.402500,56.990000
240.902500,56.990000
240.993387,57.008079
241.070438,57.059562
241.121921,57.136613
241.140000,57.227500
Z" /> 
<path style="fill:#000000; fill-opacity:1.000000; stroke:none;fill-rule:evenodd;"
d="M 277.175000,54.780000
277.157873,54.866104
277.109099,54.939099
277.036104,54.987873
276.950000,55.005000
276.500000,55.005000
276.413896,54.987873
276.340901,54.939099
276.292127,54.866104
276.275000,54.780000
276.275000,54.030000
276.292127,53.943896
276.340901,53.870901
276.413896,53.822127
276.500000,53.805000
276.950000,53.805000
277.036104,53.822127
277.109099,53.870901
277.157873,53.943896
277.175000,54.030000
Z" /> 
<path style="fill:#000000; fill-opacity:1.000000; stroke:none;fill-rule:evenodd;"
d="M 273.875000,54.780000
273.857873,54.866104
273.809099,54.939099
273.736104,54.987873
273.650000,55.005000
273.200000,55.005000
273.113896,54.987873
273.040901,54.939099
272.992127,54.866104
272.975000,54.780000
272.975000,54.030000
272.992127,53.943896
273.040901,53.870901
273.113896,53.822127
273.200000,53.805000
273.650000,53.805000
273.736104,53.822127
273.809099,53.870901
273.857873,53.943896
273.875000,54.030000
Z" /> 
</g>
<g style="fill:#000000; fill-opacity:1.000000; stroke:none;">
<circle cx="80.000000" cy="85.000000" r="4.000000" /> 
<path style="fill:#000000; fill-opacity:1.000000; stroke:none;fill-rule:evenodd;"
d="M 277.175000,47.680000
277.157873,47.766104
277.109099,47.839099
277.036104,47.887873
276.950000,47.905000
276.500000,47.905000
276.413896,47.887873
276.340901,47.839099
276.292127,47.766104
276.275000,47.680000
276.275000,46.930000
276.292127,46.843896
276.340901,46.770901
276.413896,46.722127
276.500000,46.705000
276.950000,46.705000
277.036104,46.722127
277.109099,46.770901
277.157873,46.843896
277.175000,46.930000
Z" /> 
<path style="fill:#000000; fill-opacity:1.000000; stroke:none;fill-rule:evenodd;"
d="M 273.875000,47.680000
273.857873,47.766104
273.809099,47.839099
273.736104,47.887873
273.650000,47.905000
273.200000,47.905000
273.113896,47.887873
273.040901,47.839099
272.992127,47.766104
272.975000,47.680000
272.975000,46.930000
272.992127,46.843896
273.040901,46.770901
273.113896,46.722127
273.200000,46.705000
273.650000,46.705000
273.736104,46.722127
273.809099,46.770901
273.857873,46.843896
273.875000,46.930000
Z" /> 
</g>
<g style="fill:none; 
stroke:#000000; stroke-width:2.720000; stroke-opacity:1; 
stroke-linecap:round; stroke-linejoin:round;">
<path d="M194.800000 84.515000
L194.800000 85.035000
" />
<path d="M185.200000 84.515000
L185.200000 85.035000
" />
<path style="fill:#000000; fill-opacity:1.000000; stroke:none;fill-rule:evenodd;"
d="M 191.600000,78.175000
191.600000,76.375000
193.400000,76.375000
193.400000,78.175000
Z" /> 
</g>
<g style="fill:#000000; fill-opacity:1.000000; stroke:none;">
<circle cx="190.000000" cy="77.275000" r="0.900000" /> 
</g>
<g style="fill:#000000; fill-opacity:1.000000; stroke:none;">
<circle cx="187.500000" cy="77.275000" r="0.900000" /> 
<path style="fill:#000000; fill-opacity:1.000000; stroke:none;fill-rule:evenodd;"
d="M 250.687500,80.247500
250.596613,80.229421
250.519562,80.177938
250.468079,80.100887
250.450000,80.010000
250.450000,79.410000
250.468079,79.319113
250.519562,79.242062
250.596613,79.190579
250.687500,79.172500
251.162500,79.172500
251.253387,79.190579
251.330438,79.242062
251.381921,79.319113
251.400000,79.410000
251.400000,80.010000
251.381921,80.100887
251.330438,80.177938
251.253387,80.229421
251.162500,80.247500
Z" /> 
<path style="fill:#000000; fill-opacity:1.000000; stroke:none;fill-rule:evenodd;"
d="M 250.687500,78.522500
250.596613,78.504421
250.519562,78.452938
250.468079,78.375887
250.450000,78.285000
250.450000,77.685000
250.468079,77.594113
250.519562,77.517062
250.596613,77.465579
250.687500,77.447500
251.162500,77.447500
251.253387,77.465579
251.330438,77.517062
251.381921,77.594113
251.400000,77.685000
251.400000,78.285000
251.381921,78.375887
251.330438,78.452938
251.253387,78.504421
251.162500,78.522500
Z" /> 
<path style="fill:#000000; fill-opacity:1.000000; stroke:none;fill-rule:evenodd;"
d="M 238.615000,57.702500
238.596921,57.793387
238.545438,57.870438
238.468387,57.921921
238.377500,57.940000
237.877500,57.940000
237.786613,57.921921
237.709562,57.870438
237.658079,57.793387
237.640000,57.702500
237.640000,57.227500
237.658079,57.136613
237.709562,57.059562
237.786613,57.008079
237.877500,56.990000
238.377500,56.990000
238.468387,57.008079
238.545438,57.059562
238.596921,57.136613
238.615000,57.227500
Z" /> 
<path style="fill:#000000; fill-opacity:1.000000; stroke:none;fill-rule:evenodd;"
d="M 236.790000,57.702500
236.771921,57.793387
236.720438,57.870438
236.643387,57.921921
236.552500,57.940000
236.052500,57.940000
235.961613,57.921921
235.884562,57.870438
235.833079,57.793387
235.815000,57.702500
235.815000,57.227500
235.833079,57.136613
235.884562,57.059562
235.961613,57.008079
236.052500,56.990000
236.552500,56.990000
236.643387,57.008079
236.720438,57.059562
236.771921,57.136613
236.790000,57.227500
Z" /> 
<path style="fill:#000000; fill-opacity:1.000000; stroke:none;fill-rule:evenodd;"
d="M 277.175000,58.330000
277.157873,58.416104
277.109099,58.489099
277.036104,58.537873
276.950000,58.555000
276.500000,58.555000
276.413896,58.537873
276.340901,58.489099
276.292127,58.416104
276.275000,58.330000
276.275000,57.580000
276.292127,57.493896
276.340901,57.420901
276.413896,57.372127
276.500000,57.355000
276.950000,57.355000
277.036104,57.372127
277.109099,57.420901
277.157873,57.493896
277.175000,57.580000
Z" /> 
<path style="fill:#000000; fill-opacity:1.000000; stroke:none;fill-rule:evenodd;"
d="M 273.875000,58.330000
273.857873,58.416104
273.809099,58.489099
273.736104,58.537873
273.650000,58.555000
273.200000,58.555000
273.113896,58.537873
273.040901,58.489099
272.992127,58.416104
272.975000,58.330000
272.975000,57.580000
272.992127,57.493896
273.040901,57.420901
273.113896,57.372127
273.200000,57.355000
273.650000,57.355000
273.736104,57.372127
273.809099,57.420901
273.857873,57.493896
273.875000,57.580000
Z" /> 
</g>
<g style="fill:#000000; fill-opacity:1.000000; stroke:none;">
<circle cx="60.000000" cy="55.942500" r="4.000000" /> 
<path style="fill:#000000; fill-opacity:1.000000; stroke:none;fill-rule:evenodd;"
d="M 195.900000,144.427500
195.919030,144.331829
195.973223,144.250723
196.054329,144.196530
196.150000,144.177500
197.850000,144.177500
197.945671,144.196530
198.026777,144.250723
198.080970,144.331829
198.100000,144.427500
198.100000,145.127500
198.080970,145.223171
198.026777,145.304277
197.945671,145.358470
197.850000,145.377500
196.150000,145.377500
196.054329,145.358470
195.973223,145.304277
195.919030,145.223171
195.900000,145.127500
Z" /> 
<path style="fill:#000000; fill-opacity:1.000000; stroke:none;fill-rule:evenodd;"
d="M 200.100000,142.897500
200.119030,142.801829
200.173223,142.720723
200.254329,142.666530
200.350000,142.647500
202.900000,142.647500
202.995671,142.666530
203.076777,142.720723
203.130970,142.801829
203.150000,142.897500
203.150000,145.147500
203.130970,145.243171
203.076777,145.324277
202.995671,145.378470
202.900000,145.397500
200.350000,145.397500
200.254329,145.378470
200.173223,145.324277
200.119030,145.243171
200.100000,145.147500
Z" /> 
<path style="fill:#000000; fill-opacity:1.000000; stroke:none;fill-rule:evenodd;"
d="M 200.100000,139.847500
200.119030,139.751829
200.173223,139.670723
200.254329,139.616530
200.350000,139.597500
202.900000,139.597500
202.995671,139.616530
203.076777,139.670723
203.130970,139.751829
203.150000,139.847500
203.150000,142.097500
203.130970,142.193171
203.076777,142.274277
202.995671,142.328470
202.900000,142.347500
200.350000,142.347500
200.254329,142.328470
200.173223,142.274277
200.119030,142.193171
200.100000,142.097500
Z" /> 
<path style="fill:#000000; fill-opacity:1.000000; stroke:none;fill-rule:evenodd;"
d="M 200.100000,139.847497
200.119030,139.751827
200.173222,139.670722
200.254327,139.616530
200.349998,139.597501
206.250003,139.597500
206.345673,139.616530
206.426778,139.670722
206.480970,139.751827
206.499999,139.847498
206.500000,145.147503
206.480970,145.243173
206.426778,145.324278
206.345673,145.378470
206.250002,145.397499
200.349997,145.397500
200.254327,145.378470
200.173222,145.324278
200.119030,145.243173
200.100001,145.147502
Z" /> 
<path style="fill:#000000; fill-opacity:1.000000; stroke:none;fill-rule:evenodd;"
d="M 203.450000,142.897500
203.469030,142.801829
203.523223,142.720723
203.604329,142.666530
203.700000,142.647500
206.250000,142.647500
206.345671,142.666530
206.426777,142.720723
206.480970,142.801829
206.500000,142.897500
206.500000,145.147500
206.480970,145.243171
206.426777,145.324277
206.345671,145.378470
206.250000,145.397500
203.700000,145.397500
203.604329,145.378470
203.523223,145.324277
203.469030,145.243171
203.450000,145.147500
Z" /> 
<path style="fill:#000000; fill-opacity:1.000000; stroke:none;fill-rule:evenodd;"
d="M 203.450000,139.847500
203.469030,139.751829
203.523223,139.670723
203.604329,139.616530
203.700000,139.597500
206.250000,139.597500
206.345671,139.616530
206.426777,139.670723
206.480970,139.751829
206.500000,139.847500
206.500000,142.097500
206.480970,142.193171
206.426777,142.274277
206.345671,142.328470
206.250000,142.347500
203.700000,142.347500
203.604329,142.328470
203.523223,142.274277
203.469030,142.193171
203.450000,142.097500
Z" /> 
<path style="fill:#000000; fill-opacity:1.000000; stroke:none;fill-rule:evenodd;"
d="M 195.900000,139.867500
195.919030,139.771829
195.973223,139.690723
196.054329,139.636530
196.150000,139.617500
197.850000,139.617500
197.945671,139.636530
198.026777,139.690723
198.080970,139.771829
198.100000,139.867500
198.100000,140.567500
198.080970,140.663171
198.026777,140.744277
197.945671,140.798470
197.850000,140.817500
196.150000,140.817500
196.054329,140.798470
195.973223,140.744277
195.919030,140.663171
195.900000,140.567500
Z" /> 
</g>
<g style="fill:#000000; fill-opacity:1.000000; stroke:none;">
<circle cx="197.061467" cy="112.608964" r="1.000000" /> 
<circle cx="201.391036" cy="116.938533" r="1.000000" /> 
<circle cx="201.391036" cy="123.061467" r="1.000000" /> 
<circle cx="197.061467" cy="127.391036" r="1.000000" /> 
<circle cx="190.938533" cy="127.391036" r="1.000000" /> 
<circle cx="186.608964" cy="123.061467" r="1.000000" /> 
<circle cx="186.608964" cy="116.938533" r="1.000000" /> 
<circle cx="190.938533" cy="112.608964" r="1.000000" /> 
<circle cx="196.650000" cy="120.000000" r="1.000000" /> 
</g>
<g style="fill:none; 
stroke:#000000; stroke-width:4.200000; stroke-opacity:1; 
stroke-linecap:round; stroke-linejoin:round;">
<path d="M56.100000 33.000000
L58.900000 33.000000
" />
<path d="M56.100000 155.500000
L58.900000 155.500000
" />
<path d="M121.100000 33.000000
L123.900000 33.000000
" />
<path d="M121.100000 155.500000
L123.900000 155.500000
" />
<path style="fill:#000000; fill-opacity:1.000000; stroke:none;fill-rule:evenodd;"
d="M 242.965000,62.722500
242.946921,62.813387
242.895438,62.890438
242.818387,62.941921
242.727500,62.960000
242.227500,62.960000
242.136613,62.941921
242.059562,62.890438
242.008079,62.813387
241.990000,62.722500
241.990000,62.247500
242.008079,62.156613
242.059562,62.079562
242.136613,62.028079
242.227500,62.010000
242.727500,62.010000
242.818387,62.028079
242.895438,62.079562
242.946921,62.156613
242.965000,62.247500
Z" /> 
<path style="fill:#000000; fill-opacity:1.000000; stroke:none;fill-rule:evenodd;"
d="M 241.140000,62.722500
241.121921,62.813387
241.070438,62.890438
240.993387,62.941921
240.902500,62.960000
240.402500,62.960000
240.311613,62.941921
240.234562,62.890438
240.183079,62.813387
240.165000,62.722500
240.165000,62.247500
240.183079,62.156613
240.234562,62.079562
240.311613,62.028079
240.402500,62.010000
240.902500,62.010000
240.993387,62.028079
241.070438,62.079562
241.121921,62.156613
241.140000,62.247500
Z" /> 
</g>
<g style="fill:none; 
stroke:#000000; stroke-width:2.720000; stroke-opacity:1; 
stroke-linecap:round; stroke-linejoin:round;">
<path d="M174.800000 84.740000
L174.800000 85.260000
" />
<path d="M165.200000 84.740000
L165.200000 85.260000
" />
<path style="fill:#000000; fill-opacity:1.000000; stroke:none;fill-rule:evenodd;"
d="M 171.600000,78.400000
171.600000,76.600000
173.400000,76.600000
173.400000,78.400000
Z" /> 
</g>
<g style="fill:#000000; fill-opacity:1.000000; stroke:none;">
<circle cx="170.000000" cy="77.500000" r="0.900000" /> 
</g>
<g style="fill:#000000; fill-opacity:1.000000; stroke:none;">
<circle cx="167.500000" cy="77.500000" r="0.900000" /> 
<path style="fill:#000000; fill-opacity:1.000000; stroke:none;fill-rule:evenodd;"
d="M 248.687500,80.110000
248.596613,80.091921
248.519562,80.040438
248.468079,79.963387
248.450000,79.872500
248.450000,79.372500
248.468079,79.281613
248.519562,79.204562
248.596613,79.153079
248.687500,79.135000
249.162500,79.135000
249.253387,79.153079
249.330438,79.204562
249.381921,79.281613
249.400000,79.372500
249.400000,79.872500
249.381921,79.963387
249.330438,80.040438
249.253387,80.091921
249.162500,80.110000
Z" /> 
<path style="fill:#000000; fill-opacity:1.000000; stroke:none;fill-rule:evenodd;"
d="M 248.687500,78.285000
248.596613,78.266921
248.519562,78.215438
248.468079,78.138387
248.450000,78.047500
248.450000,77.547500
248.468079,77.456613
248.519562,77.379562
248.596613,77.328079
248.687500,77.310000
249.162500,77.310000
249.253387,77.328079
249.330438,77.379562
249.381921,77.456613
249.400000,77.547500
249.400000,78.047500
249.381921,78.138387
249.330438,78.215438
249.253387,78.266921
249.162500,78.285000
Z" /> 
<path style="fill:#000000; fill-opacity:1.000000; stroke:none;fill-rule:evenodd;"
d="M 238.615000,52.682500
238.596921,52.773387
238.545438,52.850438
238.468387,52.901921
238.377500,52.920000
237.877500,52.920000
237.786613,52.901921
237.709562,52.850438
237.658079,52.773387
237.640000,52.682500
237.640000,52.207500
237.658079,52.116613
237.709562,52.039562
237.786613,51.988079
237.877500,51.970000
238.377500,51.970000
238.468387,51.988079
238.545438,52.039562
238.596921,52.116613
238.615000,52.207500
Z" /> 
<path style="fill:#000000; fill-opacity:1.000000; stroke:none;fill-rule:evenodd;"
d="M 236.790000,52.682500
236.771921,52.773387
236.720438,52.850438
236.643387,52.901921
236.552500,52.920000
236.052500,52.920000
235.961613,52.901921
235.884562,52.850438
235.833079,52.773387
235.815000,52.682500
235.815000,52.207500
235.833079,52.116613
235.884562,52.039562
235.961613,51.988079
236.052500,51.970000
236.552500,51.970000
236.643387,51.988079
236.720438,52.039562
236.771921,52.116613
236.790000,52.207500
Z" /> 
<path style="fill:#000000; fill-opacity:1.000000; stroke:none;fill-rule:evenodd;"
d="M 189.000000,42.000000
189.000000,40.000000
191.000000,40.000000
191.000000,42.000000
Z" /> 
</g>
<g style="fill:#000000; fill-opacity:1.000000; stroke:none;">
<circle cx="190.000000" cy="43.500000" r="1.000000" /> 
<circle cx="190.000000" cy="46.000000" r="1.000000" /> 
<path style="fill:#000000; fill-opacity:1.000000; stroke:none;fill-rule:evenodd;"
d="M 266.405000,61.880000
266.387873,61.966104
266.339099,62.039099
266.266104,62.087873
266.180000,62.105000
265.730000,62.105000
265.643896,62.087873
265.570901,62.039099
265.522127,61.966104
265.505000,61.880000
265.505000,61.130000
265.522127,61.043896
265.570901,60.970901
265.643896,60.922127
265.730000,60.905000
266.180000,60.905000
266.266104,60.922127
266.339099,60.970901
266.387873,61.043896
266.405000,61.130000
Z" /> 
<path style="fill:#000000; fill-opacity:1.000000; stroke:none;fill-rule:evenodd;"
d="M 263.105000,61.880000
263.087873,61.966104
263.039099,62.039099
262.966104,62.087873
262.880000,62.105000
262.430000,62.105000
262.343896,62.087873
262.270901,62.039099
262.222127,61.966104
262.205000,61.880000
262.205000,61.130000
262.222127,61.043896
262.270901,60.970901
262.343896,60.922127
262.430000,60.905000
262.880000,60.905000
262.966104,60.922127
263.039099,60.970901
263.087873,61.043896
263.105000,61.130000
Z" /> 
<path style="fill:#000000; fill-opacity:1.000000; stroke:none;fill-rule:evenodd;"
d="M 169.000000,42.000000
169.000000,40.000000
171.000000,40.000000
171.000000,42.000000
Z" /> 
<circle cx="170.000000" cy="43.500000" r="1.000000" /> 
<circle cx="170.000000" cy="46.000000" r="1.000000" /> 
<path style="fill:#000000; fill-opacity:1.000000; stroke:none;fill-rule:evenodd;"
d="M 258.237500,75.947500
258.219421,76.038387
258.167938,76.115438
258.090887,76.166921
258.000000,76.185000
257.500000,76.185000
257.409113,76.166921
257.332062,76.115438
257.280579,76.038387
257.262500,75.947500
257.262500,75.472500
257.280579,75.381613
257.332062,75.304562
257.409113,75.253079
257.500000,75.235000
258.000000,75.235000
258.090887,75.253079
258.167938,75.304562
258.219421,75.381613
258.237500,75.472500
Z" /> 
<path style="fill:#000000; fill-opacity:1.000000; stroke:none;fill-rule:evenodd;"
d="M 256.412500,75.947500
256.394421,76.038387
256.342938,76.115438
256.265887,76.166921
256.175000,76.185000
255.675000,76.185000
255.584113,76.166921
255.507062,76.115438
255.455579,76.038387
255.437500,75.947500
255.437500,75.472500
255.455579,75.381613
255.507062,75.304562
255.584113,75.253079
255.675000,75.235000
256.175000,75.235000
256.265887,75.253079
256.342938,75.304562
256.394421,75.381613
256.412500,75.472500
Z" /> 
<path style="fill:#000000; fill-opacity:1.000000; stroke:none;fill-rule:evenodd;"
d="M 277.175000,37.030000
277.157873,37.116104
277.109099,37.189099
277.036104,37.237873
276.950000,37.255000
276.500000,37.255000
276.413896,37.237873
276.340901,37.189099
276.292127,37.116104
276.275000,37.030000
276.275000,36.280000
276.292127,36.193896
276.340901,36.120901
276.413896,36.072127
276.500000,36.055000
276.950000,36.055000
277.036104,36.072127
277.109099,36.120901
277.157873,36.193896
277.175000,36.280000
Z" /> 
<path style="fill:#000000; fill-opacity:1.000000; stroke:none;fill-rule:evenodd;"
d="M 273.875000,37.030000
273.857873,37.116104
273.809099,37.189099
273.736104,37.237873
273.650000,37.255000
273.200000,37.255000
273.113896,37.237873
273.040901,37.189099
272.992127,37.116104
272.975000,37.030000
272.975000,36.280000
272.992127,36.193896
273.040901,36.120901
273.113896,36.072127
273.200000,36.055000
273.650000,36.055000
273.736104,36.072127
273.809099,36.120901
273.857873,36.193896
273.875000,36.280000
Z" /> 
<path style="fill:#000000; fill-opacity:1.000000; stroke:none;fill-rule:evenodd;"
d="M 193.450000,135.550000
193.430970,135.645671
193.376777,135.726777
193.295671,135.780970
193.200000,135.800000
190.200000,135.800000
190.104329,135.780970
190.023223,135.726777
189.969030,135.645671
189.950000,135.550000
189.950000,134.450000
189.969030,134.354329
190.023223,134.273223
190.104329,134.219030
190.200000,134.200000
193.200000,134.200000
193.295671,134.219030
193.376777,134.273223
193.430970,134.354329
193.450000,134.450000
Z" /> 
<path style="fill:#000000; fill-opacity:1.000000; stroke:none;fill-rule:evenodd;"
d="M 188.050000,135.550000
188.030970,135.645671
187.976777,135.726777
187.895671,135.780970
187.800000,135.800000
184.800000,135.800000
184.704329,135.780970
184.623223,135.726777
184.569030,135.645671
184.550000,135.550000
184.550000,134.450000
184.569030,134.354329
184.623223,134.273223
184.704329,134.219030
184.800000,134.200000
187.800000,134.200000
187.895671,134.219030
187.976777,134.273223
188.030970,134.354329
188.050000,134.450000
Z" /> 
<circle cx="123.000000" cy="142.500000" r="3.500000" /> 
<path style="fill:#000000; fill-opacity:1.000000; stroke:none;fill-rule:evenodd;"
d="M 234.265000,50.172500
234.246921,50.263387
234.195438,50.340438
234.118387,50.391921
234.027500,50.410000
233.527500,50.410000
233.436613,50.391921
233.359562,50.340438
233.308079,50.263387
233.290000,50.172500
233.290000,49.697500
233.308079,49.606613
233.359562,49.529562
233.436613,49.478079
233.527500,49.460000
234.027500,49.460000
234.118387,49.478079
234.195438,49.529562
234.246921,49.606613
234.265000,49.697500
Z" /> 
<path style="fill:#000000; fill-opacity:1.000000; stroke:none;fill-rule:evenodd;"
d="M 232.440000,50.172500
232.421921,50.263387
232.370438,50.340438
232.293387,50.391921
232.202500,50.410000
231.702500,50.410000
231.611613,50.391921
231.534562,50.340438
231.483079,50.263387
231.465000,50.172500
231.465000,49.697500
231.483079,49.606613
231.534562,49.529562
231.611613,49.478079
231.702500,49.460000
232.202500,49.460000
232.293387,49.478079
232.370438,49.529562
232.421921,49.606613
232.440000,49.697500
Z" /> 
<path style="fill:#000000; fill-opacity:1.000000; stroke:none;fill-rule:evenodd;"
d="M 255.635000,47.680000
255.617873,47.766104
255.569099,47.839099
255.496104,47.887873
255.410000,47.905000
254.960000,47.905000
254.873896,47.887873
254.800901,47.839099
254.752127,47.766104
254.735000,47.680000
254.735000,46.930000
254.752127,46.843896
254.800901,46.770901
254.873896,46.722127
254.960000,46.705000
255.410000,46.705000
255.496104,46.722127
255.569099,46.770901
255.617873,46.843896
255.635000,46.930000
Z" /> 
<path style="fill:#000000; fill-opacity:1.000000; stroke:none;fill-rule:evenodd;"
d="M 252.335000,47.680000
252.317873,47.766104
252.269099,47.839099
252.196104,47.887873
252.110000,47.905000
251.660000,47.905000
251.573896,47.887873
251.500901,47.839099
251.452127,47.766104
251.435000,47.680000
251.435000,46.930000
251.452127,46.843896
251.500901,46.770901
251.573896,46.722127
251.660000,46.705000
252.110000,46.705000
252.196104,46.722127
252.269099,46.770901
252.317873,46.843896
252.335000,46.930000
Z" /> 
<path style="fill:#000000; fill-opacity:1.000000; stroke:none;fill-rule:evenodd;"
d="M 171.965000,135.185000
171.965000,137.015000
170.035000,137.015000
170.035000,135.185000
Z" /> 
</g>
<g style="fill:#000000; fill-opacity:1.000000; stroke:none;">
<circle cx="171.000000" cy="147.500000" r="1.065000" /> 
</g>
<g style="fill:#000000; fill-opacity:1.000000; stroke:none;">
<circle cx="171.000000" cy="139.200000" r="1.065000" /> 
<path style="fill:#000000; fill-opacity:1.000000; stroke:none;fill-rule:evenodd;"
d="M 277.175000,40.580000
277.157873,40.666104
277.109099,40.739099
277.036104,40.787873
276.950000,40.805000
276.500000,40.805000
276.413896,40.787873
276.340901,40.739099
276.292127,40.666104
276.275000,40.580000
276.275000,39.830000
276.292127,39.743896
276.340901,39.670901
276.413896,39.622127
276.500000,39.605000
276.950000,39.605000
277.036104,39.622127
277.109099,39.670901
277.157873,39.743896
277.175000,39.830000
Z" /> 
<path style="fill:#000000; fill-opacity:1.000000; stroke:none;fill-rule:evenodd;"
d="M 273.875000,40.580000
273.857873,40.666104
273.809099,40.739099
273.736104,40.787873
273.650000,40.805000
273.200000,40.805000
273.113896,40.787873
273.040901,40.739099
272.992127,40.666104
272.975000,40.580000
272.975000,39.830000
272.992127,39.743896
273.040901,39.670901
273.113896,39.622127
273.200000,39.605000
273.650000,39.605000
273.736104,39.622127
273.809099,39.670901
273.857873,39.743896
273.875000,39.830000
Z" /> 
<path style="fill:#000000; fill-opacity:1.000000; stroke:none;fill-rule:evenodd;"
d="M 149.000000,42.000000
149.000000,40.000000
151.000000,40.000000
151.000000,42.000000
Z" /> 
</g>
<g style="fill:#000000; fill-opacity:1.000000; stroke:none;">
<circle cx="150.000000" cy="43.500000" r="1.000000" /> 
<circle cx="150.000000" cy="46.000000" r="1.000000" /> 
</g>
<g style="fill:none; 
stroke:#000000; stroke-width:2.720000; stroke-opacity:1; 
stroke-linecap:round; stroke-linejoin:round;">
<path d="M205.200000 56.260000
L205.200000 55.740000
" />
<path d="M214.800000 56.260000
L214.800000 55.740000
" />
<path style="fill:#000000; fill-opacity:1.000000; stroke:none;fill-rule:evenodd;"
d="M 208.400000,62.600000
208.400000,64.400000
206.600000,64.400000
206.600000,62.600000
Z" /> 
</g>
<g style="fill:#000000; fill-opacity:1.000000; stroke:none;">
<circle cx="210.000000" cy="63.500000" r="0.900000" /> 
</g>
<g style="fill:#000000; fill-opacity:1.000000; stroke:none;">
<circle cx="212.500000" cy="63.500000" r="0.900000" /> 
<path style="fill:#000000; fill-opacity:1.000000; stroke:none;fill-rule:evenodd;"
d="M 180.100000,141.650000
180.195671,141.669030
180.276777,141.723223
180.330970,141.804329
180.350000,141.900000
180.350000,143.100000
180.330970,143.195671
180.276777,143.276777
180.195671,143.330970
180.100000,143.350000
178.900000,143.350000
178.804329,143.330970
178.723223,143.276777
178.669030,143.195671
178.650000,143.100000
178.650000,141.900000
178.669030,141.804329
178.723223,141.723223
178.804329,141.669030
178.900000,141.650000
Z" /> 
</g>
<g style="fill:#000000; fill-opacity:1.000000; stroke:none;">
<circle cx="179.500000" cy="145.040000" r="0.850000" /> 
</g>
<g style="fill:#000000; fill-opacity:1.000000; stroke:none;">
<circle cx="182.040000" cy="142.500000" r="0.850000" /> 
</g>
<g style="fill:#000000; fill-opacity:1.000000; stroke:none;">
<circle cx="182.040000" cy="145.040000" r="0.850000" /> 
</g>
<g style="fill:#000000; fill-opacity:1.000000; stroke:none;">
<circle cx="184.580000" cy="142.500000" r="0.850000" /> 
</g>
<g style="fill:#000000; fill-opacity:1.000000; stroke:none;">
<circle cx="184.580000" cy="145.040000" r="0.850000" /> 
</g>
<g style="fill:#000000; fill-opacity:1.000000; stroke:none;">
<circle cx="187.120000" cy="142.500000" r="0.850000" /> 
</g>
<g style="fill:#000000; fill-opacity:1.000000; stroke:none;">
<circle cx="187.120000" cy="145.040000" r="0.850000" /> 
</g>
<g style="fill:#000000; fill-opacity:1.000000; stroke:none;">
<circle cx="189.660000" cy="142.500000" r="0.850000" /> 
</g>
<g style="fill:#000000; fill-opacity:1.000000; stroke:none;">
<circle cx="189.660000" cy="145.040000" r="0.850000" /> 
</g>
<g style="fill:#000000; fill-opacity:1.000000; stroke:none;">
<circle cx="80.000000" cy="55.942500" r="4.000000" /> 
<path style="fill:#000000; fill-opacity:1.000000; stroke:none;fill-rule:evenodd;"
d="M 238.615000,55.192500
238.596921,55.283387
238.545438,55.360438
238.468387,55.411921
238.377500,55.430000
237.877500,55.430000
237.786613,55.411921
237.709562,55.360438
237.658079,55.283387
237.640000,55.192500
237.640000,54.717500
237.658079,54.626613
237.709562,54.549562
237.786613,54.498079
237.877500,54.480000
238.377500,54.480000
238.468387,54.498079
238.545438,54.549562
238.596921,54.626613
238.615000,54.717500
Z" /> 
<path style="fill:#000000; fill-opacity:1.000000; stroke:none;fill-rule:evenodd;"
d="M 236.790000,55.192500
236.771921,55.283387
236.720438,55.360438
236.643387,55.411921
236.552500,55.430000
236.052500,55.430000
235.961613,55.411921
235.884562,55.360438
235.833079,55.283387
235.815000,55.192500
235.815000,54.717500
235.833079,54.626613
235.884562,54.549562
235.961613,54.498079
236.052500,54.480000
236.552500,54.480000
236.643387,54.498079
236.720438,54.549562
236.771921,54.626613
236.790000,54.717500
Z" /> 
</g>
<g style="fill:#000000; fill-opacity:1.000000; stroke:none;">
<circle cx="61.500000" cy="142.720000" r="3.500000" /> 
<path style="fill:#000000; fill-opacity:1.000000; stroke:none;fill-rule:evenodd;"
d="M 209.000000,42.000000
209.000000,40.000000
211.000000,40.000000
211.000000,42.000000
Z" /> 
</g>
<g style="fill:#000000; fill-opacity:1.000000; stroke:none;">
<circle cx="210.000000" cy="43.500000" r="1.000000" /> 
<circle cx="210.000000" cy="46.000000" r="1.000000" /> 
<path style="fill:#000000; fill-opacity:1.000000; stroke:none;fill-rule:evenodd;"
d="M 233.825000,83.085000
233.842127,82.998896
233.890901,82.925901
233.963896,82.877127
234.050000,82.860000
234.500000,82.860000
234.586104,82.877127
234.659099,82.925901
234.707873,82.998896
234.725000,83.085000
234.725000,83.835000
234.707873,83.921104
234.659099,83.994099
234.586104,84.042873
234.500000,84.060000
234.050000,84.060000
233.963896,84.042873
233.890901,83.994099
233.842127,83.921104
233.825000,83.835000
Z" /> 
<path style="fill:#000000; fill-opacity:1.000000; stroke:none;fill-rule:evenodd;"
d="M 237.125000,83.085000
237.142127,82.998896
237.190901,82.925901
237.263896,82.877127
237.350000,82.860000
237.800000,82.860000
237.886104,82.877127
237.959099,82.925901
238.007873,82.998896
238.025000,83.085000
238.025000,83.835000
238.007873,83.921104
237.959099,83.994099
237.886104,84.042873
237.800000,84.060000
237.350000,84.060000
237.263896,84.042873
237.190901,83.994099
237.142127,83.921104
237.125000,83.835000
Z" /> 
<circle cx="120.000000" cy="85.057500" r="4.000000" /> 
<path style="fill:#000000; fill-opacity:1.000000; stroke:none;fill-rule:evenodd;"
d="M 148.600000,70.825000
150.400000,70.825000
150.400000,72.625000
148.600000,72.625000
Z" /> 
</g>
<g style="fill:#000000; fill-opacity:1.000000; stroke:none;">
<circle cx="149.500000" cy="74.265000" r="0.900000" /> 
</g>
<g style="fill:#000000; fill-opacity:1.000000; stroke:none;">
<circle cx="60.000000" cy="85.000000" r="4.000000" /> 
</g>
<g style="fill:#000000; fill-opacity:1.000000; stroke:none;">
<circle cx="80.000000" cy="142.720000" r="3.500000" /> 
<path style="fill:#000000; fill-opacity:1.000000; stroke:none;fill-rule:evenodd;"
d="M 255.635000,51.230000
255.617873,51.316104
255.569099,51.389099
255.496104,51.437873
255.410000,51.455000
254.960000,51.455000
254.873896,51.437873
254.800901,51.389099
254.752127,51.316104
254.735000,51.230000
254.735000,50.480000
254.752127,50.393896
254.800901,50.320901
254.873896,50.272127
254.960000,50.255000
255.410000,50.255000
255.496104,50.272127
255.569099,50.320901
255.617873,50.393896
255.635000,50.480000
Z" /> 
<path style="fill:#000000; fill-opacity:1.000000; stroke:none;fill-rule:evenodd;"
d="M 252.335000,51.230000
252.317873,51.316104
252.269099,51.389099
252.196104,51.437873
252.110000,51.455000
251.660000,51.455000
251.573896,51.437873
251.500901,51.389099
251.452127,51.316104
251.435000,51.230000
251.435000,50.480000
251.452127,50.393896
251.500901,50.320901
251.573896,50.272127
251.660000,50.255000
252.110000,50.255000
252.196104,50.272127
252.269099,50.320901
252.317873,50.393896
252.335000,50.480000
Z" /> 
</g>
<g style="fill:#000000; fill-opacity:1.000000; stroke:none;">
<circle cx="120.000000" cy="55.942500" r="4.000000" /> 
<path style="fill:#000000; fill-opacity:1.000000; stroke:none;fill-rule:evenodd;"
d="M 267.425000,64.880000
267.413582,64.937403
267.381066,64.986066
267.332403,65.018582
267.275000,65.030000
265.625000,65.030000
265.567597,65.018582
265.518934,64.986066
265.486418,64.937403
265.475000,64.880000
265.475000,64.580000
265.486418,64.522597
265.518934,64.473934
265.567597,64.441418
265.625000,64.430000
267.275000,64.430000
267.332403,64.441418
267.381066,64.473934
267.413582,64.522597
267.425000,64.580000
Z" /> 
<path style="fill:#000000; fill-opacity:1.000000; stroke:none;fill-rule:evenodd;"
d="M 267.425000,66.150000
267.413582,66.207403
267.381066,66.256066
267.332403,66.288582
267.275000,66.300000
265.625000,66.300000
265.567597,66.288582
265.518934,66.256066
265.486418,66.207403
265.475000,66.150000
265.475000,65.850000
265.486418,65.792597
265.518934,65.743934
265.567597,65.711418
265.625000,65.700000
267.275000,65.700000
267.332403,65.711418
267.381066,65.743934
267.413582,65.792597
267.425000,65.850000
Z" /> 
<path style="fill:#000000; fill-opacity:1.000000; stroke:none;fill-rule:evenodd;"
d="M 267.425000,67.420000
267.413582,67.477403
267.381066,67.526066
267.332403,67.558582
267.275000,67.570000
265.625000,67.570000
265.567597,67.558582
265.518934,67.526066
265.486418,67.477403
265.475000,67.420000
265.475000,67.120000
265.486418,67.062597
265.518934,67.013934
265.567597,66.981418
265.625000,66.970000
267.275000,66.970000
267.332403,66.981418
267.381066,67.013934
267.413582,67.062597
267.425000,67.120000
Z" /> 
<path style="fill:#000000; fill-opacity:1.000000; stroke:none;fill-rule:evenodd;"
d="M 267.425000,68.690000
267.413582,68.747403
267.381066,68.796066
267.332403,68.828582
267.275000,68.840000
265.625000,68.840000
265.567597,68.828582
265.518934,68.796066
265.486418,68.747403
265.475000,68.690000
265.475000,68.390000
265.486418,68.332597
265.518934,68.283934
265.567597,68.251418
265.625000,68.240000
267.275000,68.240000
267.332403,68.251418
267.381066,68.283934
267.413582,68.332597
267.425000,68.390000
Z" /> 
<path style="fill:#000000; fill-opacity:1.000000; stroke:none;fill-rule:evenodd;"
d="M 267.425000,69.960000
267.413582,70.017403
267.381066,70.066066
267.332403,70.098582
267.275000,70.110000
265.625000,70.110000
265.567597,70.098582
265.518934,70.066066
265.486418,70.017403
265.475000,69.960000
265.475000,69.660000
265.486418,69.602597
265.518934,69.553934
265.567597,69.521418
265.625000,69.510000
267.275000,69.510000
267.332403,69.521418
267.381066,69.553934
267.413582,69.602597
267.425000,69.660000
Z" /> 
<path style="fill:#000000; fill-opacity:1.000000; stroke:none;fill-rule:evenodd;"
d="M 267.425000,71.230000
267.413582,71.287403
267.381066,71.336066
267.332403,71.368582
267.275000,71.380000
265.625000,71.380000
265.567597,71.368582
265.518934,71.336066
265.486418,71.287403
265.475000,71.230000
265.475000,70.930000
265.486418,70.872597
265.518934,70.823934
265.567597,70.791418
265.625000,70.780000
267.275000,70.780000
267.332403,70.791418
267.381066,70.823934
267.413582,70.872597
267.425000,70.930000
Z" /> 
<path style="fill:#000000; fill-opacity:1.000000; stroke:none;fill-rule:evenodd;"
d="M 267.425000,72.500000
267.413582,72.557403
267.381066,72.606066
267.332403,72.638582
267.275000,72.650000
265.625000,72.650000
265.567597,72.638582
265.518934,72.606066
265.486418,72.557403
265.475000,72.500000
265.475000,72.200000
265.486418,72.142597
265.518934,72.093934
265.567597,72.061418
265.625000,72.050000
267.275000,72.050000
267.332403,72.061418
267.381066,72.093934
267.413582,72.142597
267.425000,72.200000
Z" /> 
<path style="fill:#000000; fill-opacity:1.000000; stroke:none;fill-rule:evenodd;"
d="M 262.475000,72.500000
262.463582,72.557403
262.431066,72.606066
262.382403,72.638582
262.325000,72.650000
260.675000,72.650000
260.617597,72.638582
260.568934,72.606066
260.536418,72.557403
260.525000,72.500000
260.525000,72.200000
260.536418,72.142597
260.568934,72.093934
260.617597,72.061418
260.675000,72.050000
262.325000,72.050000
262.382403,72.061418
262.431066,72.093934
262.463582,72.142597
262.475000,72.200000
Z" /> 
<path style="fill:#000000; fill-opacity:1.000000; stroke:none;fill-rule:evenodd;"
d="M 262.475000,71.230000
262.463582,71.287403
262.431066,71.336066
262.382403,71.368582
262.325000,71.380000
260.675000,71.380000
260.617597,71.368582
260.568934,71.336066
260.536418,71.287403
260.525000,71.230000
260.525000,70.930000
260.536418,70.872597
260.568934,70.823934
260.617597,70.791418
260.675000,70.780000
262.325000,70.780000
262.382403,70.791418
262.431066,70.823934
262.463582,70.872597
262.475000,70.930000
Z" /> 
<path style="fill:#000000; fill-opacity:1.000000; stroke:none;fill-rule:evenodd;"
d="M 262.475000,69.960000
262.463582,70.017403
262.431066,70.066066
262.382403,70.098582
262.325000,70.110000
260.675000,70.110000
260.617597,70.098582
260.568934,70.066066
260.536418,70.017403
260.525000,69.960000
260.525000,69.660000
260.536418,69.602597
260.568934,69.553934
260.617597,69.521418
260.675000,69.510000
262.325000,69.510000
262.382403,69.521418
262.431066,69.553934
262.463582,69.602597
262.475000,69.660000
Z" /> 
<path style="fill:#000000; fill-opacity:1.000000; stroke:none;fill-rule:evenodd;"
d="M 262.475000,68.690000
262.463582,68.747403
262.431066,68.796066
262.382403,68.828582
262.325000,68.840000
260.675000,68.840000
260.617597,68.828582
260.568934,68.796066
260.536418,68.747403
260.525000,68.690000
260.525000,68.390000
260.536418,68.332597
260.568934,68.283934
260.617597,68.251418
260.675000,68.240000
262.325000,68.240000
262.382403,68.251418
262.431066,68.283934
262.463582,68.332597
262.475000,68.390000
Z" /> 
<path style="fill:#000000; fill-opacity:1.000000; stroke:none;fill-rule:evenodd;"
d="M 262.475000,67.420000
262.463582,67.477403
262.431066,67.526066
262.382403,67.558582
262.325000,67.570000
260.675000,67.570000
260.617597,67.558582
260.568934,67.526066
260.536418,67.477403
260.525000,67.420000
260.525000,67.120000
260.536418,67.062597
260.568934,67.013934
260.617597,66.981418
260.675000,66.970000
262.325000,66.970000
262.382403,66.981418
262.431066,67.013934
262.463582,67.062597
262.475000,67.120000
Z" /> 
<path style="fill:#000000; fill-opacity:1.000000; stroke:none;fill-rule:evenodd;"
d="M 262.475000,66.150000
262.463582,66.207403
262.431066,66.256066
262.382403,66.288582
262.325000,66.300000
260.675000,66.300000
260.617597,66.288582
260.568934,66.256066
260.536418,66.207403
260.525000,66.150000
260.525000,65.850000
260.536418,65.792597
260.568934,65.743934
260.617597,65.711418
260.675000,65.700000
262.325000,65.700000
262.382403,65.711418
262.431066,65.743934
262.463582,65.792597
262.475000,65.850000
Z" /> 
<path style="fill:#000000; fill-opacity:1.000000; stroke:none;fill-rule:evenodd;"
d="M 262.475000,64.880000
262.463582,64.937403
262.431066,64.986066
262.382403,65.018582
262.325000,65.030000
260.675000,65.030000
260.617597,65.018582
260.568934,64.986066
260.536418,64.937403
260.525000,64.880000
260.525000,64.580000
260.536418,64.522597
260.568934,64.473934
260.617597,64.441418
260.675000,64.430000
262.325000,64.430000
262.382403,64.441418
262.431066,64.473934
262.463582,64.522597
262.475000,64.580000
Z" /> 
<path style="fill:#000000; fill-opacity:1.000000; stroke:none;fill-rule:evenodd;"
d="M 234.265000,55.192500
234.246921,55.283387
234.195438,55.360438
234.118387,55.411921
234.027500,55.430000
233.527500,55.430000
233.436613,55.411921
233.359562,55.360438
233.308079,55.283387
233.290000,55.192500
233.290000,54.717500
233.308079,54.626613
233.359562,54.549562
233.436613,54.498079
233.527500,54.480000
234.027500,54.480000
234.118387,54.498079
234.195438,54.549562
234.246921,54.626613
234.265000,54.717500
Z" /> 
<path style="fill:#000000; fill-opacity:1.000000; stroke:none;fill-rule:evenodd;"
d="M 232.440000,55.192500
232.421921,55.283387
232.370438,55.360438
232.293387,55.411921
232.202500,55.430000
231.702500,55.430000
231.611613,55.411921
231.534562,55.360438
231.483079,55.283387
231.465000,55.192500
231.465000,54.717500
231.483079,54.626613
231.534562,54.549562
231.611613,54.498079
231.702500,54.480000
232.202500,54.480000
232.293387,54.498079
232.370438,54.549562
232.421921,54.626613
232.440000,54.717500
Z" /> 
<path style="fill:#000000; fill-opacity:1.000000; stroke:none;fill-rule:evenodd;"
d="M 169.000000,96.000000
169.000000,94.000000
171.000000,94.000000
171.000000,96.000000
Z" /> 
</g>
<g style="fill:#000000; fill-opacity:1.000000; stroke:none;">
<circle cx="170.000000" cy="97.500000" r="1.000000" /> 
<circle cx="170.000000" cy="100.000000" r="1.000000" /> 
</g>
<g style="fill:none; 
stroke:#000000; stroke-width:2.720000; stroke-opacity:1; 
stroke-linecap:round; stroke-linejoin:round;">
<path d="M214.800000 84.515000
L214.800000 85.035000
" />
<path d="M205.200000 84.515000
L205.200000 85.035000
" />
<path style="fill:#000000; fill-opacity:1.000000; stroke:none;fill-rule:evenodd;"
d="M 211.600000,78.175000
211.600000,76.375000
213.400000,76.375000
213.400000,78.175000
Z" /> 
</g>
<g style="fill:#000000; fill-opacity:1.000000; stroke:none;">
<circle cx="210.000000" cy="77.275000" r="0.900000" /> 
</g>
<g style="fill:#000000; fill-opacity:1.000000; stroke:none;">
<circle cx="207.500000" cy="77.275000" r="0.900000" /> 
</g>
<g style="fill:none; 
stroke:#000000; stroke-width:2.720000; stroke-opacity:1; 
stroke-linecap:round; stroke-linejoin:round;">
<path d="M144.700000 56.260000
L144.700000 55.740000
" />
<path d="M154.300000 56.260000
L154.300000 55.740000
" />
<path style="fill:#000000; fill-opacity:1.000000; stroke:none;fill-rule:evenodd;"
d="M 147.900000,62.600000
147.900000,64.400000
146.100000,64.400000
146.100000,62.600000
Z" /> 
</g>
<g style="fill:#000000; fill-opacity:1.000000; stroke:none;">
<circle cx="149.500000" cy="63.500000" r="0.900000" /> 
</g>
<g style="fill:#000000; fill-opacity:1.000000; stroke:none;">
<circle cx="152.000000" cy="63.500000" r="0.900000" /> 
</g>
<g style="fill:#000000; fill-opacity:1.000000; stroke:none;">
<circle cx="213.000000" cy="139.200000" r="1.065000" /> 
</g>
<g style="fill:#000000; fill-opacity:1.000000; stroke:none;">
<circle cx="213.000000" cy="147.500000" r="1.065000" /> 
<path style="fill:#000000; fill-opacity:1.000000; stroke:none;fill-rule:evenodd;"
d="M 213.965000,135.185000
213.965000,137.015000
212.035000,137.015000
212.035000,135.185000
Z" /> 
<path style="fill:#000000; fill-opacity:1.000000; stroke:none;fill-rule:evenodd;"
d="M 250.550000,85.460000
250.463896,85.442873
250.390901,85.394099
250.342127,85.321104
250.325000,85.235000
250.325000,84.785000
250.342127,84.698896
250.390901,84.625901
250.463896,84.577127
250.550000,84.560000
251.300000,84.560000
251.386104,84.577127
251.459099,84.625901
251.507873,84.698896
251.525000,84.785000
251.525000,85.235000
251.507873,85.321104
251.459099,85.394099
251.386104,85.442873
251.300000,85.460000
Z" /> 
<path style="fill:#000000; fill-opacity:1.000000; stroke:none;fill-rule:evenodd;"
d="M 250.550000,82.160000
250.463896,82.142873
250.390901,82.094099
250.342127,82.021104
250.325000,81.935000
250.325000,81.485000
250.342127,81.398896
250.390901,81.325901
250.463896,81.277127
250.550000,81.260000
251.300000,81.260000
251.386104,81.277127
251.459099,81.325901
251.507873,81.398896
251.525000,81.485000
251.525000,81.935000
251.507873,82.021104
251.459099,82.094099
251.386104,82.142873
251.300000,82.160000
Z" /> 
</g>
<g style="fill:#000000; fill-opacity:1.000000; stroke:none;">
<circle cx="123.000000" cy="124.470000" r="3.500000" /> 
<path style="fill:#000000; fill-opacity:1.000000; stroke:none;fill-rule:evenodd;"
d="M 245.325000,75.947500
245.306921,76.038387
245.255438,76.115438
245.178387,76.166921
245.087500,76.185000
244.587500,76.185000
244.496613,76.166921
244.419562,76.115438
244.368079,76.038387
244.350000,75.947500
244.350000,75.472500
244.368079,75.381613
244.419562,75.304562
244.496613,75.253079
244.587500,75.235000
245.087500,75.235000
245.178387,75.253079
245.255438,75.304562
245.306921,75.381613
245.325000,75.472500
Z" /> 
<path style="fill:#000000; fill-opacity:1.000000; stroke:none;fill-rule:evenodd;"
d="M 243.500000,75.947500
243.481921,76.038387
243.430438,76.115438
243.353387,76.166921
243.262500,76.185000
242.762500,76.185000
242.671613,76.166921
242.594562,76.115438
242.543079,76.038387
242.525000,75.947500
242.525000,75.472500
242.543079,75.381613
242.594562,75.304562
242.671613,75.253079
242.762500,75.235000
243.262500,75.235000
243.353387,75.253079
243.430438,75.304562
243.481921,75.381613
243.500000,75.472500
Z" /> 
<path style="fill:#000000; fill-opacity:1.000000; stroke:none;fill-rule:evenodd;"
d="M 236.825000,74.335000
236.842127,74.248896
236.890901,74.175901
236.963896,74.127127
237.050000,74.110000
237.500000,74.110000
237.586104,74.127127
237.659099,74.175901
237.707873,74.248896
237.725000,74.335000
237.725000,75.085000
237.707873,75.171104
237.659099,75.244099
237.586104,75.292873
237.500000,75.310000
237.050000,75.310000
236.963896,75.292873
236.890901,75.244099
236.842127,75.171104
236.825000,75.085000
Z" /> 
<path style="fill:#000000; fill-opacity:1.000000; stroke:none;fill-rule:evenodd;"
d="M 240.125000,74.335000
240.142127,74.248896
240.190901,74.175901
240.263896,74.127127
240.350000,74.110000
240.800000,74.110000
240.886104,74.127127
240.959099,74.175901
241.007873,74.248896
241.025000,74.335000
241.025000,75.085000
241.007873,75.171104
240.959099,75.244099
240.886104,75.292873
240.800000,75.310000
240.350000,75.310000
240.263896,75.292873
240.190901,75.244099
240.142127,75.171104
240.125000,75.085000
Z" /> 
<path style="fill:#000000; fill-opacity:1.000000; stroke:none;fill-rule:evenodd;"
d="M 277.175000,61.880000
277.157873,61.966104
277.109099,62.039099
277.036104,62.087873
276.950000,62.105000
276.500000,62.105000
276.413896,62.087873
276.340901,62.039099
276.292127,61.966104
276.275000,61.880000
276.275000,61.130000
276.292127,61.043896
276.340901,60.970901
276.413896,60.922127
276.500000,60.905000
276.950000,60.905000
277.036104,60.922127
277.109099,60.970901
277.157873,61.043896
277.175000,61.130000
Z" /> 
<path style="fill:#000000; fill-opacity:1.000000; stroke:none;fill-rule:evenodd;"
d="M 273.875000,61.880000
273.857873,61.966104
273.809099,62.039099
273.736104,62.087873
273.650000,62.105000
273.200000,62.105000
273.113896,62.087873
273.040901,62.039099
272.992127,61.966104
272.975000,61.880000
272.975000,61.130000
272.992127,61.043896
273.040901,60.970901
273.113896,60.922127
273.200000,60.905000
273.650000,60.905000
273.736104,60.922127
273.809099,60.970901
273.857873,61.043896
273.875000,61.130000
Z" /> 
<path style="fill:#000000; fill-opacity:1.000000; stroke:none;fill-rule:evenodd;"
d="M 277.175000,44.130000
277.157873,44.216104
277.109099,44.289099
277.036104,44.337873
276.950000,44.355000
276.500000,44.355000
276.413896,44.337873
276.340901,44.289099
276.292127,44.216104
276.275000,44.130000
276.275000,43.380000
276.292127,43.293896
276.340901,43.220901
276.413896,43.172127
276.500000,43.155000
276.950000,43.155000
277.036104,43.172127
277.109099,43.220901
277.157873,43.293896
277.175000,43.380000
Z" /> 
<path style="fill:#000000; fill-opacity:1.000000; stroke:none;fill-rule:evenodd;"
d="M 273.875000,44.130000
273.857873,44.216104
273.809099,44.289099
273.736104,44.337873
273.650000,44.355000
273.200000,44.355000
273.113896,44.337873
273.040901,44.289099
272.992127,44.216104
272.975000,44.130000
272.975000,43.380000
272.992127,43.293896
273.040901,43.220901
273.113896,43.172127
273.200000,43.155000
273.650000,43.155000
273.736104,43.172127
273.809099,43.220901
273.857873,43.293896
273.875000,43.380000
Z" /> 
<path style="fill:#000000; fill-opacity:1.000000; stroke:none;fill-rule:evenodd;"
d="M 266.405000,40.580000
266.387873,40.666104
266.339099,40.739099
266.266104,40.787873
266.180000,40.805000
265.730000,40.805000
265.643896,40.787873
265.570901,40.739099
265.522127,40.666104
265.505000,40.580000
265.505000,39.830000
265.522127,39.743896
265.570901,39.670901
265.643896,39.622127
265.730000,39.605000
266.180000,39.605000
266.266104,39.622127
266.339099,39.670901
266.387873,39.743896
266.405000,39.830000
Z" /> 
<path style="fill:#000000; fill-opacity:1.000000; stroke:none;fill-rule:evenodd;"
d="M 263.105000,40.580000
263.087873,40.666104
263.039099,40.739099
262.966104,40.787873
262.880000,40.805000
262.430000,40.805000
262.343896,40.787873
262.270901,40.739099
262.222127,40.666104
262.205000,40.580000
262.205000,39.830000
262.222127,39.743896
262.270901,39.670901
262.343896,39.622127
262.430000,39.605000
262.880000,39.605000
262.966104,39.622127
263.039099,39.670901
263.087873,39.743896
263.105000,39.830000
Z" /> 
<path style="fill:#000000; fill-opacity:1.000000; stroke:none;fill-rule:evenodd;"
d="M 277.175000,51.230000
277.157873,51.316104
277.109099,51.389099
277.036104,51.437873
276.950000,51.455000
276.500000,51.455000
276.413896,51.437873
276.340901,51.389099
276.292127,51.316104
276.275000,51.230000
276.275000,50.480000
276.292127,50.393896
276.340901,50.320901
276.413896,50.272127
276.500000,50.255000
276.950000,50.255000
277.036104,50.272127
277.109099,50.320901
277.157873,50.393896
277.175000,50.480000
Z" /> 
<path style="fill:#000000; fill-opacity:1.000000; stroke:none;fill-rule:evenodd;"
d="M 273.875000,51.230000
273.857873,51.316104
273.809099,51.389099
273.736104,51.437873
273.650000,51.455000
273.200000,51.455000
273.113896,51.437873
273.040901,51.389099
272.992127,51.316104
272.975000,51.230000
272.975000,50.480000
272.992127,50.393896
273.040901,50.320901
273.113896,50.272127
273.200000,50.255000
273.650000,50.255000
273.736104,50.272127
273.809099,50.320901
273.857873,50.393896
273.875000,50.480000
Z" /> 
<path style="fill:#000000; fill-opacity:1.000000; stroke:none;fill-rule:evenodd;"
d="M 148.000000,96.000000
148.000000,94.000000
150.000000,94.000000
150.000000,96.000000
Z" /> 
</g>
<g style="fill:#000000; fill-opacity:1.000000; stroke:none;">
<circle cx="149.000000" cy="97.500000" r="1.000000" /> 
<circle cx="149.000000" cy="100.000000" r="1.000000" /> 
<path style="fill:#000000; fill-opacity:1.000000; stroke:none;fill-rule:evenodd;"
d="M 258.975000,64.880000
258.963582,64.937403
258.931066,64.986066
258.882403,65.018582
258.825000,65.030000
257.175000,65.030000
257.117597,65.018582
257.068934,64.986066
257.036418,64.937403
257.025000,64.880000
257.025000,64.580000
257.036418,64.522597
257.068934,64.473934
257.117597,64.441418
257.175000,64.430000
258.825000,64.430000
258.882403,64.441418
258.931066,64.473934
258.963582,64.522597
258.975000,64.580000
Z" /> 
<path style="fill:#000000; fill-opacity:1.000000; stroke:none;fill-rule:evenodd;"
d="M 258.975000,66.150000
258.963582,66.207403
258.931066,66.256066
258.882403,66.288582
258.825000,66.300000
257.175000,66.300000
257.117597,66.288582
257.068934,66.256066
257.036418,66.207403
257.025000,66.150000
257.025000,65.850000
257.036418,65.792597
257.068934,65.743934
257.117597,65.711418
257.175000,65.700000
258.825000,65.700000
258.882403,65.711418
258.931066,65.743934
258.963582,65.792597
258.975000,65.850000
Z" /> 
<path style="fill:#000000; fill-opacity:1.000000; stroke:none;fill-rule:evenodd;"
d="M 258.975000,67.420000
258.963582,67.477403
258.931066,67.526066
258.882403,67.558582
258.825000,67.570000
257.175000,67.570000
257.117597,67.558582
257.068934,67.526066
257.036418,67.477403
257.025000,67.420000
257.025000,67.120000
257.036418,67.062597
257.068934,67.013934
257.117597,66.981418
257.175000,66.970000
258.825000,66.970000
258.882403,66.981418
258.931066,67.013934
258.963582,67.062597
258.975000,67.120000
Z" /> 
<path style="fill:#000000; fill-opacity:1.000000; stroke:none;fill-rule:evenodd;"
d="M 258.975000,68.690000
258.963582,68.747403
258.931066,68.796066
258.882403,68.828582
258.825000,68.840000
257.175000,68.840000
257.117597,68.828582
257.068934,68.796066
257.036418,68.747403
257.025000,68.690000
257.025000,68.390000
257.036418,68.332597
257.068934,68.283934
257.117597,68.251418
257.175000,68.240000
258.825000,68.240000
258.882403,68.251418
258.931066,68.283934
258.963582,68.332597
258.975000,68.390000
Z" /> 
<path style="fill:#000000; fill-opacity:1.000000; stroke:none;fill-rule:evenodd;"
d="M 254.025000,68.690000
254.013582,68.747403
253.981066,68.796066
253.932403,68.828582
253.875000,68.840000
252.225000,68.840000
252.167597,68.828582
252.118934,68.796066
252.086418,68.747403
252.075000,68.690000
252.075000,68.390000
252.086418,68.332597
252.118934,68.283934
252.167597,68.251418
252.225000,68.240000
253.875000,68.240000
253.932403,68.251418
253.981066,68.283934
254.013582,68.332597
254.025000,68.390000
Z" /> 
<path style="fill:#000000; fill-opacity:1.000000; stroke:none;fill-rule:evenodd;"
d="M 254.025000,67.420000
254.013582,67.477403
253.981066,67.526066
253.932403,67.558582
253.875000,67.570000
252.225000,67.570000
252.167597,67.558582
252.118934,67.526066
252.086418,67.477403
252.075000,67.420000
252.075000,67.120000
252.086418,67.062597
252.118934,67.013934
252.167597,66.981418
252.225000,66.970000
253.875000,66.970000
253.932403,66.981418
253.981066,67.013934
254.013582,67.062597
254.025000,67.120000
Z" /> 
<path style="fill:#000000; fill-opacity:1.000000; stroke:none;fill-rule:evenodd;"
d="M 254.025000,66.150000
254.013582,66.207403
253.981066,66.256066
253.932403,66.288582
253.875000,66.300000
252.225000,66.300000
252.167597,66.288582
252.118934,66.256066
252.086418,66.207403
252.075000,66.150000
252.075000,65.850000
252.086418,65.792597
252.118934,65.743934
252.167597,65.711418
252.225000,65.700000
253.875000,65.700000
253.932403,65.711418
253.981066,65.743934
254.013582,65.792597
254.025000,65.850000
Z" /> 
<path style="fill:#000000; fill-opacity:1.000000; stroke:none;fill-rule:evenodd;"
d="M 254.025000,64.880000
254.013582,64.937403
253.981066,64.986066
253.932403,65.018582
253.875000,65.030000
252.225000,65.030000
252.167597,65.018582
252.118934,64.986066
252.086418,64.937403
252.075000,64.880000
252.075000,64.580000
252.086418,64.522597
252.118934,64.473934
252.167597,64.441418
252.225000,64.430000
253.875000,64.430000
253.932403,64.441418
253.981066,64.473934
254.013582,64.522597
254.025000,64.580000
Z" /> 
<path style="fill:#000000; fill-opacity:1.000000; stroke:none;fill-rule:evenodd;"
d="M 255.635000,44.130000
255.617873,44.216104
255.569099,44.289099
255.496104,44.337873
255.410000,44.355000
254.960000,44.355000
254.873896,44.337873
254.800901,44.289099
254.752127,44.216104
254.735000,44.130000
254.735000,43.380000
254.752127,43.293896
254.800901,43.220901
254.873896,43.172127
254.960000,43.155000
255.410000,43.155000
255.496104,43.172127
255.569099,43.220901
255.617873,43.293896
255.635000,43.380000
Z" /> 
<path style="fill:#000000; fill-opacity:1.000000; stroke:none;fill-rule:evenodd;"
d="M 252.335000,44.130000
252.317873,44.216104
252.269099,44.289099
252.196104,44.337873
252.110000,44.355000
251.660000,44.355000
251.573896,44.337873
251.500901,44.289099
251.452127,44.216104
251.435000,44.130000
251.435000,43.380000
251.452127,43.293896
251.500901,43.220901
251.573896,43.172127
251.660000,43.155000
252.110000,43.155000
252.196104,43.172127
252.269099,43.220901
252.317873,43.293896
252.335000,43.380000
Z" /> 
<path style="fill:#000000; fill-opacity:1.000000; stroke:none;fill-rule:evenodd;"
d="M 266.405000,44.130000
266.387873,44.216104
266.339099,44.289099
266.266104,44.337873
266.180000,44.355000
265.730000,44.355000
265.643896,44.337873
265.570901,44.289099
265.522127,44.216104
265.505000,44.130000
265.505000,43.380000
265.522127,43.293896
265.570901,43.220901
265.643896,43.172127
265.730000,43.155000
266.180000,43.155000
266.266104,43.172127
266.339099,43.220901
266.387873,43.293896
266.405000,43.380000
Z" /> 
<path style="fill:#000000; fill-opacity:1.000000; stroke:none;fill-rule:evenodd;"
d="M 263.105000,44.130000
263.087873,44.216104
263.039099,44.289099
262.966104,44.337873
262.880000,44.355000
262.430000,44.355000
262.343896,44.337873
262.270901,44.289099
262.222127,44.216104
262.205000,44.130000
262.205000,43.380000
262.222127,43.293896
262.270901,43.220901
262.343896,43.172127
262.430000,43.155000
262.880000,43.155000
262.966104,43.172127
263.039099,43.220901
263.087873,43.293896
263.105000,43.380000
Z" /> 
</g>
<g style="fill:none; 
stroke:#000000; stroke-width:2.720000; stroke-opacity:1; 
stroke-linecap:round; stroke-linejoin:round;">
<path d="M165.200000 56.260000
L165.200000 55.740000
" />
<path d="M174.800000 56.260000
L174.800000 55.740000
" />
<path style="fill:#000000; fill-opacity:1.000000; stroke:none;fill-rule:evenodd;"
d="M 168.400000,62.600000
168.400000,64.400000
166.600000,64.400000
166.600000,62.600000
Z" /> 
</g>
<g style="fill:#000000; fill-opacity:1.000000; stroke:none;">
<circle cx="170.000000" cy="63.500000" r="0.900000" /> 
</g>
<g style="fill:#000000; fill-opacity:1.000000; stroke:none;">
<circle cx="172.500000" cy="63.500000" r="0.900000" /> 
<path style="fill:#000000; fill-opacity:1.000000; stroke:none;fill-rule:evenodd;"
d="M 190.900000,70.175000
189.100000,70.175000
189.100000,68.375000
190.900000,68.375000
Z" /> 
</g>
<g style="fill:#000000; fill-opacity:1.000000; stroke:none;">
<circle cx="190.000000" cy="66.735000" r="0.900000" /> 
<path style="fill:#000000; fill-opacity:1.000000; stroke:none;fill-rule:evenodd;"
d="M 264.375000,82.190000
264.363582,82.247403
264.331066,82.296066
264.282403,82.328582
264.225000,82.340000
262.575000,82.340000
262.517597,82.328582
262.468934,82.296066
262.436418,82.247403
262.425000,82.190000
262.425000,81.890000
262.436418,81.832597
262.468934,81.783934
262.517597,81.751418
262.575000,81.740000
264.225000,81.740000
264.282403,81.751418
264.331066,81.783934
264.363582,81.832597
264.375000,81.890000
Z" /> 
<path style="fill:#000000; fill-opacity:1.000000; stroke:none;fill-rule:evenodd;"
d="M 264.375000,83.460000
264.363582,83.517403
264.331066,83.566066
264.282403,83.598582
264.225000,83.610000
262.575000,83.610000
262.517597,83.598582
262.468934,83.566066
262.436418,83.517403
262.425000,83.460000
262.425000,83.160000
262.436418,83.102597
262.468934,83.053934
262.517597,83.021418
262.575000,83.010000
264.225000,83.010000
264.282403,83.021418
264.331066,83.053934
264.363582,83.102597
264.375000,83.160000
Z" /> 
<path style="fill:#000000; fill-opacity:1.000000; stroke:none;fill-rule:evenodd;"
d="M 264.375000,84.730000
264.363582,84.787403
264.331066,84.836066
264.282403,84.868582
264.225000,84.880000
262.575000,84.880000
262.517597,84.868582
262.468934,84.836066
262.436418,84.787403
262.425000,84.730000
262.425000,84.430000
262.436418,84.372597
262.468934,84.323934
262.517597,84.291418
262.575000,84.280000
264.225000,84.280000
264.282403,84.291418
264.331066,84.323934
264.363582,84.372597
264.375000,84.430000
Z" /> 
<path style="fill:#000000; fill-opacity:1.000000; stroke:none;fill-rule:evenodd;"
d="M 264.375000,86.000000
264.363582,86.057403
264.331066,86.106066
264.282403,86.138582
264.225000,86.150000
262.575000,86.150000
262.517597,86.138582
262.468934,86.106066
262.436418,86.057403
262.425000,86.000000
262.425000,85.700000
262.436418,85.642597
262.468934,85.593934
262.517597,85.561418
262.575000,85.550000
264.225000,85.550000
264.282403,85.561418
264.331066,85.593934
264.363582,85.642597
264.375000,85.700000
Z" /> 
<path style="fill:#000000; fill-opacity:1.000000; stroke:none;fill-rule:evenodd;"
d="M 264.375000,87.270000
264.363582,87.327403
264.331066,87.376066
264.282403,87.408582
264.225000,87.420000
262.575000,87.420000
262.517597,87.408582
262.468934,87.376066
262.436418,87.327403
262.425000,87.270000
262.425000,86.970000
262.436418,86.912597
262.468934,86.863934
262.517597,86.831418
262.575000,86.820000
264.225000,86.820000
264.282403,86.831418
264.331066,86.863934
264.363582,86.912597
264.375000,86.970000
Z" /> 
<path style="fill:#000000; fill-opacity:1.000000; stroke:none;fill-rule:evenodd;"
d="M 264.375000,88.540000
264.363582,88.597403
264.331066,88.646066
264.282403,88.678582
264.225000,88.690000
262.575000,88.690000
262.517597,88.678582
262.468934,88.646066
262.436418,88.597403
262.425000,88.540000
262.425000,88.240000
262.436418,88.182597
262.468934,88.133934
262.517597,88.101418
262.575000,88.090000
264.225000,88.090000
264.282403,88.101418
264.331066,88.133934
264.363582,88.182597
264.375000,88.240000
Z" /> 
<path style="fill:#000000; fill-opacity:1.000000; stroke:none;fill-rule:evenodd;"
d="M 264.375000,89.810000
264.363582,89.867403
264.331066,89.916066
264.282403,89.948582
264.225000,89.960000
262.575000,89.960000
262.517597,89.948582
262.468934,89.916066
262.436418,89.867403
262.425000,89.810000
262.425000,89.510000
262.436418,89.452597
262.468934,89.403934
262.517597,89.371418
262.575000,89.360000
264.225000,89.360000
264.282403,89.371418
264.331066,89.403934
264.363582,89.452597
264.375000,89.510000
Z" /> 
<path style="fill:#000000; fill-opacity:1.000000; stroke:none;fill-rule:evenodd;"
d="M 264.375000,91.080000
264.363582,91.137403
264.331066,91.186066
264.282403,91.218582
264.225000,91.230000
262.575000,91.230000
262.517597,91.218582
262.468934,91.186066
262.436418,91.137403
262.425000,91.080000
262.425000,90.780000
262.436418,90.722597
262.468934,90.673934
262.517597,90.641418
262.575000,90.630000
264.225000,90.630000
264.282403,90.641418
264.331066,90.673934
264.363582,90.722597
264.375000,90.780000
Z" /> 
<path style="fill:#000000; fill-opacity:1.000000; stroke:none;fill-rule:evenodd;"
d="M 259.425000,91.080000
259.413582,91.137403
259.381066,91.186066
259.332403,91.218582
259.275000,91.230000
257.625000,91.230000
257.567597,91.218582
257.518934,91.186066
257.486418,91.137403
257.475000,91.080000
257.475000,90.780000
257.486418,90.722597
257.518934,90.673934
257.567597,90.641418
257.625000,90.630000
259.275000,90.630000
259.332403,90.641418
259.381066,90.673934
259.413582,90.722597
259.425000,90.780000
Z" /> 
<path style="fill:#000000; fill-opacity:1.000000; stroke:none;fill-rule:evenodd;"
d="M 259.425000,89.810000
259.413582,89.867403
259.381066,89.916066
259.332403,89.948582
259.275000,89.960000
257.625000,89.960000
257.567597,89.948582
257.518934,89.916066
257.486418,89.867403
257.475000,89.810000
257.475000,89.510000
257.486418,89.452597
257.518934,89.403934
257.567597,89.371418
257.625000,89.360000
259.275000,89.360000
259.332403,89.371418
259.381066,89.403934
259.413582,89.452597
259.425000,89.510000
Z" /> 
<path style="fill:#000000; fill-opacity:1.000000; stroke:none;fill-rule:evenodd;"
d="M 259.425000,88.540000
259.413582,88.597403
259.381066,88.646066
259.332403,88.678582
259.275000,88.690000
257.625000,88.690000
257.567597,88.678582
257.518934,88.646066
257.486418,88.597403
257.475000,88.540000
257.475000,88.240000
257.486418,88.182597
257.518934,88.133934
257.567597,88.101418
257.625000,88.090000
259.275000,88.090000
259.332403,88.101418
259.381066,88.133934
259.413582,88.182597
259.425000,88.240000
Z" /> 
<path style="fill:#000000; fill-opacity:1.000000; stroke:none;fill-rule:evenodd;"
d="M 259.425000,87.270000
259.413582,87.327403
259.381066,87.376066
259.332403,87.408582
259.275000,87.420000
257.625000,87.420000
257.567597,87.408582
257.518934,87.376066
257.486418,87.327403
257.475000,87.270000
257.475000,86.970000
257.486418,86.912597
257.518934,86.863934
257.567597,86.831418
257.625000,86.820000
259.275000,86.820000
259.332403,86.831418
259.381066,86.863934
259.413582,86.912597
259.425000,86.970000
Z" /> 
<path style="fill:#000000; fill-opacity:1.000000; stroke:none;fill-rule:evenodd;"
d="M 259.425000,86.000000
259.413582,86.057403
259.381066,86.106066
259.332403,86.138582
259.275000,86.150000
257.625000,86.150000
257.567597,86.138582
257.518934,86.106066
257.486418,86.057403
257.475000,86.000000
257.475000,85.700000
257.486418,85.642597
257.518934,85.593934
257.567597,85.561418
257.625000,85.550000
259.275000,85.550000
259.332403,85.561418
259.381066,85.593934
259.413582,85.642597
259.425000,85.700000
Z" /> 
<path style="fill:#000000; fill-opacity:1.000000; stroke:none;fill-rule:evenodd;"
d="M 259.425000,84.730000
259.413582,84.787403
259.381066,84.836066
259.332403,84.868582
259.275000,84.880000
257.625000,84.880000
257.567597,84.868582
257.518934,84.836066
257.486418,84.787403
257.475000,84.730000
257.475000,84.430000
257.486418,84.372597
257.518934,84.323934
257.567597,84.291418
257.625000,84.280000
259.275000,84.280000
259.332403,84.291418
259.381066,84.323934
259.413582,84.372597
259.425000,84.430000
Z" /> 
<path style="fill:#000000; fill-opacity:1.000000; stroke:none;fill-rule:evenodd;"
d="M 259.425000,83.460000
259.413582,83.517403
259.381066,83.566066
259.332403,83.598582
259.275000,83.610000
257.625000,83.610000
257.567597,83.598582
257.518934,83.566066
257.486418,83.517403
257.475000,83.460000
257.475000,83.160000
257.486418,83.102597
257.518934,83.053934
257.567597,83.021418
257.625000,83.010000
259.275000,83.010000
259.332403,83.021418
259.381066,83.053934
259.413582,83.102597
259.425000,83.160000
Z" /> 
<path style="fill:#000000; fill-opacity:1.000000; stroke:none;fill-rule:evenodd;"
d="M 259.425000,82.190000
259.413582,82.247403
259.381066,82.296066
259.332403,82.328582
259.275000,82.340000
257.625000,82.340000
257.567597,82.328582
257.518934,82.296066
257.486418,82.247403
257.475000,82.190000
257.475000,81.890000
257.486418,81.832597
257.518934,81.783934
257.567597,81.751418
257.625000,81.740000
259.275000,81.740000
259.332403,81.751418
259.381066,81.783934
259.413582,81.832597
259.425000,81.890000
Z" /> 
<path style="fill:#000000; fill-opacity:1.000000; stroke:none;fill-rule:evenodd;"
d="M 253.187500,99.935000
253.168470,100.030671
253.114277,100.111777
253.033171,100.165970
252.937500,100.185000
252.262500,100.185000
252.166829,100.165970
252.085723,100.111777
252.031530,100.030671
252.012500,99.935000
252.012500,98.985000
252.031530,98.889329
252.085723,98.808223
252.166829,98.754030
252.262500,98.735000
252.937500,98.735000
253.033171,98.754030
253.114277,98.808223
253.168470,98.889329
253.187500,98.985000
Z" /> 
<path style="fill:#000000; fill-opacity:1.000000; stroke:none;fill-rule:evenodd;"
d="M 251.112500,99.935000
251.093470,100.030671
251.039277,100.111777
250.958171,100.165970
250.862500,100.185000
250.187500,100.185000
250.091829,100.165970
250.010723,100.111777
249.956530,100.030671
249.937500,99.935000
249.937500,98.985000
249.956530,98.889329
250.010723,98.808223
250.091829,98.754030
250.187500,98.735000
250.862500,98.735000
250.958171,98.754030
251.039277,98.808223
251.093470,98.889329
251.112500,98.985000
Z" /> 
<path style="fill:#000000; fill-opacity:1.000000; stroke:none;fill-rule:evenodd;"
d="M 189.100000,70.825000
190.900000,70.825000
190.900000,72.625000
189.100000,72.625000
Z" /> 
</g>
<g style="fill:#000000; fill-opacity:1.000000; stroke:none;">
<circle cx="190.000000" cy="74.265000" r="0.900000" /> 
</g>
<g style="fill:#000000; fill-opacity:1.000000; stroke:none;">
<circle cx="153.960000" cy="118.920000" r="1.100000" /> 
</g>
<g style="fill:#000000; fill-opacity:1.000000; stroke:none;">
<circle cx="147.610000" cy="121.460000" r="1.100000" /> 
<path style="fill:#000000; fill-opacity:1.000000; stroke:none;fill-rule:evenodd;"
d="M 209.100000,70.825000
210.900000,70.825000
210.900000,72.625000
209.100000,72.625000
Z" /> 
</g>
<g style="fill:#000000; fill-opacity:1.000000; stroke:none;">
<circle cx="210.000000" cy="74.265000" r="0.900000" /> 
<path style="fill:#000000; fill-opacity:1.000000; stroke:none;fill-rule:evenodd;"
d="M 170.900000,70.175000
169.100000,70.175000
169.100000,68.375000
170.900000,68.375000
Z" /> 
</g>
<g style="fill:#000000; fill-opacity:1.000000; stroke:none;">
<circle cx="170.000000" cy="66.735000" r="0.900000" /> 
<path style="fill:#000000; fill-opacity:1.000000; stroke:none;fill-rule:evenodd;"
d="M 189.000000,96.000000
189.000000,94.000000
191.000000,94.000000
191.000000,96.000000
Z" /> 
</g>
<g style="fill:#000000; fill-opacity:1.000000; stroke:none;">
<circle cx="190.000000" cy="97.500000" r="1.000000" /> 
<circle cx="190.000000" cy="100.000000" r="1.000000" /> 
<path style="fill:#000000; fill-opacity:1.000000; stroke:none;fill-rule:evenodd;"
d="M 253.837500,89.687500
253.819421,89.778387
253.767938,89.855438
253.690887,89.906921
253.600000,89.925000
253.100000,89.925000
253.009113,89.906921
252.932062,89.855438
252.880579,89.778387
252.862500,89.687500
252.862500,89.212500
252.880579,89.121613
252.932062,89.044562
253.009113,88.993079
253.100000,88.975000
253.600000,88.975000
253.690887,88.993079
253.767938,89.044562
253.819421,89.121613
253.837500,89.212500
Z" /> 
<path style="fill:#000000; fill-opacity:1.000000; stroke:none;fill-rule:evenodd;"
d="M 252.012500,89.687500
251.994421,89.778387
251.942938,89.855438
251.865887,89.906921
251.775000,89.925000
251.275000,89.925000
251.184113,89.906921
251.107062,89.855438
251.055579,89.778387
251.037500,89.687500
251.037500,89.212500
251.055579,89.121613
251.107062,89.044562
251.184113,88.993079
251.275000,88.975000
251.775000,88.975000
251.865887,88.993079
251.942938,89.044562
251.994421,89.121613
252.012500,89.212500
Z" /> 
<circle cx="104.000000" cy="120.000000" r="4.600000" /> 
</g>
<g style="fill:#000000; fill-opacity:1.000000; stroke:none;">
<circle cx="60.000000" cy="43.500000" r="3.100000" /> 
</g>
<g style="fill:#000000; fill-opacity:1.000000; stroke:none;">
<circle cx="120.000000" cy="43.500000" r="3.100000" /> 
</g>
<g style="fill:#000000; fill-opacity:1.000000; stroke:none;">
<circle cx="80.000000" cy="73.000000" r="1.600000" /> 
</g>
<g style="fill:#000000; fill-opacity:1.000000; stroke:none;">
<circle cx="80.000000" cy="68.000000" r="1.600000" /> 
</g>
<g style="fill:#000000; fill-opacity:1.000000; stroke:none;">
<circle cx="100.000000" cy="73.000000" r="1.600000" /> 
</g>
<g style="fill:#000000; fill-opacity:1.000000; stroke:none;">
<circle cx="120.000000" cy="97.500000" r="3.100000" /> 
</g>
<g style="fill:#000000; fill-opacity:1.000000; stroke:none;">
<circle cx="80.000000" cy="43.500000" r="3.100000" /> 
</g>
<g style="fill:#000000; fill-opacity:1.000000; stroke:none;">
<circle cx="120.000000" cy="73.000000" r="1.600000" /> 
</g>
<g style="fill:#000000; fill-opacity:1.000000; stroke:none;">
<circle cx="60.000000" cy="73.000000" r="1.600000" /> 
</g>
<g style="fill:#000000; fill-opacity:1.000000; stroke:none;">
<circle cx="120.000000" cy="68.000000" r="1.600000" /> 
</g>
<g style="fill:#000000; fill-opacity:1.000000; stroke:none;">
<circle cx="60.000000" cy="97.500000" r="3.100000" /> 
</g>
<g style="fill:#000000; fill-opacity:1.000000; stroke:none;">
<circle cx="100.000000" cy="97.500000" r="3.100000" /> 
</g>
<g style="fill:#000000; fill-opacity:1.000000; stroke:none;">
<circle cx="80.000000" cy="97.500000" r="3.100000" /> 
</g>
<g style="fill:#000000; fill-opacity:1.000000; stroke:none;">
<circle cx="60.000000" cy="68.000000" r="1.600000" /> 
</g>
<g style="fill:#000000; fill-opacity:1.000000; stroke:none;">
<circle cx="100.000000" cy="68.000000" r="1.600000" /> 
</g>
<g style="fill:#000000; fill-opacity:1.000000; stroke:none;">
<circle cx="100.000000" cy="43.500000" r="3.100000" /> 
</g> 
</svg>
