<?xml version="1.0" standalone="no"?>
 <!DOCTYPE svg PUBLIC "-//W3C//DTD SVG 1.1//EN" 
 "http://www.w3.org/Graphics/SVG/1.1/DTD/svg11.dtd"> 
<svg
  xmlns:svg="http://www.w3.org/2000/svg"
  xmlns="http://www.w3.org/2000/svg"
  xmlns:xlink="http://www.w3.org/1999/xlink"
  version="1.1"
  width="297.002200mm" height="210.007200mm" viewBox="0.000000 0.000000 297.002200 210.007200">
<title>SVG Image created as MiniSeq-Edge_Cuts.svg date 2024/09/08 22:53:06 </title>
  <desc>Image generated by PCBNEW </desc>
<g style="fill:#000000; fill-opacity:1.000000;stroke:#000000; stroke-opacity:1.000000;
stroke-linecap:round; stroke-linejoin:round;"
 transform="translate(0 0) scale(1 1)">
<path style="fill:none; 
stroke:#000000; stroke-width:0.100000; stroke-opacity:1; 
stroke-linecap:round; stroke-linejoin:round;fill:none"
d="M 140.000000,39.000000
220.000000,39.000000
220.000000,149.500000
140.000000,149.500000
Z" /> 
<path style="fill:none; 
stroke:#000000; stroke-width:0.100000; stroke-opacity:1; 
stroke-linecap:round; stroke-linejoin:round;fill:none"
d="M 50.000000,30.000000
130.000000,30.000000
130.000000,158.500000
50.000000,158.500000
Z" /> 
<path style="fill:none; 
stroke:#000000; stroke-width:0.100000; stroke-opacity:1; 
stroke-linecap:round; stroke-linejoin:round;fill:none"
d="M 51.500000,114.500000
91.000000,114.500000
91.000000,133.500000
51.500000,133.500000
Z" /> 
</g>
<g style="fill:none; 
stroke:#000000; stroke-width:0.150000; stroke-opacity:1; 
stroke-linecap:round; stroke-linejoin:round;">
<text x="215.000000" y="35.350000"
textLength="9.869047" font-size="1.333333" lengthAdjust="spacingAndGlyphs"
text-anchor="middle" opacity="0" stroke-opacity="0">10.0000 mm</text>
<g class="stroked-text"><desc>10.0000 mm</desc>
<path d="M210.952381 35.304819
L210.380953 35.304819
" />
<path d="M210.666667 35.304819
L210.666667 34.304819
" />
<path d="M210.666667 34.304819
L210.571429 34.447676
" />
<path d="M210.571429 34.447676
L210.476191 34.542914
" />
<path d="M210.476191 34.542914
L210.380953 34.590533
" />
<path d="M211.571429 34.304819
L211.666667 34.304819
" />
<path d="M211.666667 34.304819
L211.761905 34.352438
" />
<path d="M211.761905 34.352438
L211.809524 34.400057
" />
<path d="M211.809524 34.400057
L211.857143 34.495295
" />
<path d="M211.857143 34.495295
L211.904762 34.685771
" />
<path d="M211.904762 34.685771
L211.904762 34.923866
" />
<path d="M211.904762 34.923866
L211.857143 35.114342
" />
<path d="M211.857143 35.114342
L211.809524 35.209580
" />
<path d="M211.809524 35.209580
L211.761905 35.257200
" />
<path d="M211.761905 35.257200
L211.666667 35.304819
" />
<path d="M211.666667 35.304819
L211.571429 35.304819
" />
<path d="M211.571429 35.304819
L211.476191 35.257200
" />
<path d="M211.476191 35.257200
L211.428572 35.209580
" />
<path d="M211.428572 35.209580
L211.380953 35.114342
" />
<path d="M211.380953 35.114342
L211.333334 34.923866
" />
<path d="M211.333334 34.923866
L211.333334 34.685771
" />
<path d="M211.333334 34.685771
L211.380953 34.495295
" />
<path d="M211.380953 34.495295
L211.428572 34.400057
" />
<path d="M211.428572 34.400057
L211.476191 34.352438
" />
<path d="M211.476191 34.352438
L211.571429 34.304819
" />
<path d="M212.333334 35.209580
L212.380953 35.257200
" />
<path d="M212.380953 35.257200
L212.333334 35.304819
" />
<path d="M212.333334 35.304819
L212.285715 35.257200
" />
<path d="M212.285715 35.257200
L212.333334 35.209580
" />
<path d="M212.333334 35.209580
L212.333334 35.304819
" />
<path d="M213.000000 34.304819
L213.095238 34.304819
" />
<path d="M213.095238 34.304819
L213.190476 34.352438
" />
<path d="M213.190476 34.352438
L213.238095 34.400057
" />
<path d="M213.238095 34.400057
L213.285714 34.495295
" />
<path d="M213.285714 34.495295
L213.333333 34.685771
" />
<path d="M213.333333 34.685771
L213.333333 34.923866
" />
<path d="M213.333333 34.923866
L213.285714 35.114342
" />
<path d="M213.285714 35.114342
L213.238095 35.209580
" />
<path d="M213.238095 35.209580
L213.190476 35.257200
" />
<path d="M213.190476 35.257200
L213.095238 35.304819
" />
<path d="M213.095238 35.304819
L213.000000 35.304819
" />
<path d="M213.000000 35.304819
L212.904762 35.257200
" />
<path d="M212.904762 35.257200
L212.857143 35.209580
" />
<path d="M212.857143 35.209580
L212.809524 35.114342
" />
<path d="M212.809524 35.114342
L212.761905 34.923866
" />
<path d="M212.761905 34.923866
L212.761905 34.685771
" />
<path d="M212.761905 34.685771
L212.809524 34.495295
" />
<path d="M212.809524 34.495295
L212.857143 34.400057
" />
<path d="M212.857143 34.400057
L212.904762 34.352438
" />
<path d="M212.904762 34.352438
L213.000000 34.304819
" />
<path d="M213.952381 34.304819
L214.047619 34.304819
" />
<path d="M214.047619 34.304819
L214.142857 34.352438
" />
<path d="M214.142857 34.352438
L214.190476 34.400057
" />
<path d="M214.190476 34.400057
L214.238095 34.495295
" />
<path d="M214.238095 34.495295
L214.285714 34.685771
" />
<path d="M214.285714 34.685771
L214.285714 34.923866
" />
<path d="M214.285714 34.923866
L214.238095 35.114342
" />
<path d="M214.238095 35.114342
L214.190476 35.209580
" />
<path d="M214.190476 35.209580
L214.142857 35.257200
" />
<path d="M214.142857 35.257200
L214.047619 35.304819
" />
<path d="M214.047619 35.304819
L213.952381 35.304819
" />
<path d="M213.952381 35.304819
L213.857143 35.257200
" />
<path d="M213.857143 35.257200
L213.809524 35.209580
" />
<path d="M213.809524 35.209580
L213.761905 35.114342
" />
<path d="M213.761905 35.114342
L213.714286 34.923866
" />
<path d="M213.714286 34.923866
L213.714286 34.685771
" />
<path d="M213.714286 34.685771
L213.761905 34.495295
" />
<path d="M213.761905 34.495295
L213.809524 34.400057
" />
<path d="M213.809524 34.400057
L213.857143 34.352438
" />
<path d="M213.857143 34.352438
L213.952381 34.304819
" />
<path d="M214.904762 34.304819
L215.000000 34.304819
" />
<path d="M215.000000 34.304819
L215.095238 34.352438
" />
<path d="M215.095238 34.352438
L215.142857 34.400057
" />
<path d="M215.142857 34.400057
L215.190476 34.495295
" />
<path d="M215.190476 34.495295
L215.238095 34.685771
" />
<path d="M215.238095 34.685771
L215.238095 34.923866
" />
<path d="M215.238095 34.923866
L215.190476 35.114342
" />
<path d="M215.190476 35.114342
L215.142857 35.209580
" />
<path d="M215.142857 35.209580
L215.095238 35.257200
" />
<path d="M215.095238 35.257200
L215.000000 35.304819
" />
<path d="M215.000000 35.304819
L214.904762 35.304819
" />
<path d="M214.904762 35.304819
L214.809524 35.257200
" />
<path d="M214.809524 35.257200
L214.761905 35.209580
" />
<path d="M214.761905 35.209580
L214.714286 35.114342
" />
<path d="M214.714286 35.114342
L214.666667 34.923866
" />
<path d="M214.666667 34.923866
L214.666667 34.685771
" />
<path d="M214.666667 34.685771
L214.714286 34.495295
" />
<path d="M214.714286 34.495295
L214.761905 34.400057
" />
<path d="M214.761905 34.400057
L214.809524 34.352438
" />
<path d="M214.809524 34.352438
L214.904762 34.304819
" />
<path d="M215.857143 34.304819
L215.952381 34.304819
" />
<path d="M215.952381 34.304819
L216.047619 34.352438
" />
<path d="M216.047619 34.352438
L216.095238 34.400057
" />
<path d="M216.095238 34.400057
L216.142857 34.495295
" />
<path d="M216.142857 34.495295
L216.190476 34.685771
" />
<path d="M216.190476 34.685771
L216.190476 34.923866
" />
<path d="M216.190476 34.923866
L216.142857 35.114342
" />
<path d="M216.142857 35.114342
L216.095238 35.209580
" />
<path d="M216.095238 35.209580
L216.047619 35.257200
" />
<path d="M216.047619 35.257200
L215.952381 35.304819
" />
<path d="M215.952381 35.304819
L215.857143 35.304819
" />
<path d="M215.857143 35.304819
L215.761905 35.257200
" />
<path d="M215.761905 35.257200
L215.714286 35.209580
" />
<path d="M215.714286 35.209580
L215.666667 35.114342
" />
<path d="M215.666667 35.114342
L215.619048 34.923866
" />
<path d="M215.619048 34.923866
L215.619048 34.685771
" />
<path d="M215.619048 34.685771
L215.666667 34.495295
" />
<path d="M215.666667 34.495295
L215.714286 34.400057
" />
<path d="M215.714286 34.400057
L215.761905 34.352438
" />
<path d="M215.761905 34.352438
L215.857143 34.304819
" />
<path d="M217.380953 35.304819
L217.380953 34.638152
" />
<path d="M217.380953 34.733390
L217.428572 34.685771
" />
<path d="M217.428572 34.685771
L217.523810 34.638152
" />
<path d="M217.523810 34.638152
L217.666667 34.638152
" />
<path d="M217.666667 34.638152
L217.761905 34.685771
" />
<path d="M217.761905 34.685771
L217.809524 34.781009
" />
<path d="M217.809524 34.781009
L217.809524 35.304819
" />
<path d="M217.809524 34.781009
L217.857143 34.685771
" />
<path d="M217.857143 34.685771
L217.952381 34.638152
" />
<path d="M217.952381 34.638152
L218.095238 34.638152
" />
<path d="M218.095238 34.638152
L218.190477 34.685771
" />
<path d="M218.190477 34.685771
L218.238096 34.781009
" />
<path d="M218.238096 34.781009
L218.238096 35.304819
" />
<path d="M218.714286 35.304819
L218.714286 34.638152
" />
<path d="M218.714286 34.733390
L218.761905 34.685771
" />
<path d="M218.761905 34.685771
L218.857143 34.638152
" />
<path d="M218.857143 34.638152
L219.000000 34.638152
" />
<path d="M219.000000 34.638152
L219.095238 34.685771
" />
<path d="M219.095238 34.685771
L219.142857 34.781009
" />
<path d="M219.142857 34.781009
L219.142857 35.304819
" />
<path d="M219.142857 34.781009
L219.190476 34.685771
" />
<path d="M219.190476 34.685771
L219.285714 34.638152
" />
<path d="M219.285714 34.638152
L219.428571 34.638152
" />
<path d="M219.428571 34.638152
L219.523810 34.685771
" />
<path d="M219.523810 34.685771
L219.571429 34.781009
" />
<path d="M219.571429 34.781009
L219.571429 35.304819
" />
</g></g>
<g style="fill:none; 
stroke:#000000; stroke-width:0.100000; stroke-opacity:1; 
stroke-linecap:round; stroke-linejoin:round;">
<path d="M210.000000 45.000000
L210.000000 35.413580
" />
<path d="M220.000000 45.000000
L220.000000 35.413580
" />
<path d="M210.000000 36.000000
L220.000000 36.000000
" />
<path d="M210.000000 36.000000
L220.000000 36.000000
" />
<path d="M210.000000 36.000000
L211.126504 35.413579
" />
<path d="M210.000000 36.000000
L211.126504 36.586421
" />
<path d="M220.000000 36.000000
L218.873496 36.586421
" />
<path d="M220.000000 36.000000
L218.873496 35.413579
" />
</g> 
</svg>
